<?xml version="1.0" encoding="UTF-8"?>
<svg id="Capa_1" data-name="Capa 1" xmlns="http://www.w3.org/2000/svg" viewBox="0 0 66.48 1009.92">
  <defs>
    <style>
      .cls-1 {
        fill: #7b7d53;
      }

      .cls-1, .cls-2, .cls-3, .cls-4, .cls-5, .cls-6, .cls-7, .cls-8, .cls-9, .cls-10, .cls-11, .cls-12, .cls-13, .cls-14, .cls-15, .cls-16, .cls-17, .cls-18, .cls-19, .cls-20, .cls-21, .cls-22, .cls-23, .cls-24, .cls-25, .cls-26, .cls-27, .cls-28, .cls-29, .cls-30, .cls-31, .cls-32, .cls-33, .cls-34, .cls-35, .cls-36, .cls-37, .cls-38, .cls-39, .cls-40, .cls-41, .cls-42, .cls-43, .cls-44, .cls-45, .cls-46, .cls-47, .cls-48, .cls-49, .cls-50, .cls-51, .cls-52, .cls-53, .cls-54, .cls-55, .cls-56, .cls-57, .cls-58, .cls-59, .cls-60, .cls-61, .cls-62, .cls-63, .cls-64, .cls-65, .cls-66, .cls-67, .cls-68, .cls-69, .cls-70, .cls-71, .cls-72, .cls-73, .cls-74, .cls-75, .cls-76, .cls-77, .cls-78, .cls-79, .cls-80, .cls-81, .cls-82, .cls-83, .cls-84, .cls-85, .cls-86, .cls-87, .cls-88, .cls-89, .cls-90, .cls-91, .cls-92, .cls-93, .cls-94, .cls-95, .cls-96, .cls-97, .cls-98, .cls-99, .cls-100, .cls-101, .cls-102, .cls-103, .cls-104, .cls-105, .cls-106, .cls-107, .cls-108, .cls-109, .cls-110, .cls-111, .cls-112, .cls-113, .cls-114, .cls-115, .cls-116, .cls-117, .cls-118, .cls-119, .cls-120, .cls-121, .cls-122, .cls-123, .cls-124, .cls-125, .cls-126, .cls-127, .cls-128, .cls-129, .cls-130, .cls-131, .cls-132, .cls-133, .cls-134, .cls-135, .cls-136, .cls-137, .cls-138, .cls-139, .cls-140, .cls-141, .cls-142, .cls-143, .cls-144, .cls-145, .cls-146, .cls-147, .cls-148, .cls-149, .cls-150, .cls-151, .cls-152, .cls-153, .cls-154, .cls-155, .cls-156, .cls-157, .cls-158, .cls-159, .cls-160, .cls-161, .cls-162, .cls-163, .cls-164, .cls-165, .cls-166, .cls-167, .cls-168, .cls-169, .cls-170, .cls-171, .cls-172, .cls-173, .cls-174, .cls-175, .cls-176, .cls-177, .cls-178, .cls-179, .cls-180, .cls-181, .cls-182, .cls-183, .cls-184, .cls-185, .cls-186, .cls-187, .cls-188, .cls-189, .cls-190, .cls-191, .cls-192, .cls-193, .cls-194, .cls-195, .cls-196, .cls-197, .cls-198, .cls-199, .cls-200, .cls-201, .cls-202, .cls-203, .cls-204, .cls-205 {
        stroke-width: 0px;
      }

      .cls-2 {
        fill: #f9faf8;
      }

      .cls-3 {
        fill: #66473e;
      }

      .cls-4 {
        fill: #d5ae97;
      }

      .cls-5 {
        fill: #453731;
      }

      .cls-6 {
        fill: #eecca7;
      }

      .cls-7 {
        fill: #594244;
      }

      .cls-8 {
        fill: #d19d81;
      }

      .cls-9 {
        fill: #80534a;
      }

      .cls-10 {
        fill: #918350;
      }

      .cls-11 {
        fill: #ce635e;
      }

      .cls-12 {
        fill: #e78a7d;
      }

      .cls-13 {
        fill: #645c51;
      }

      .cls-14 {
        fill: #dd8a7a;
      }

      .cls-15 {
        fill: #df7266;
      }

      .cls-16 {
        fill: #a29865;
      }

      .cls-17 {
        fill: #848761;
      }

      .cls-18 {
        fill: #e18373;
      }

      .cls-19 {
        fill: #851d1b;
      }

      .cls-20 {
        fill: #2a3f3f;
      }

      .cls-21 {
        fill: #d77f72;
      }

      .cls-22 {
        fill: #2f3a2b;
      }

      .cls-23 {
        fill: #9d4032;
      }

      .cls-24 {
        fill: #2b3a2e;
      }

      .cls-25 {
        fill: #c2655e;
      }

      .cls-26 {
        fill: #e7af85;
      }

      .cls-27 {
        fill: #9c9663;
      }

      .cls-28 {
        fill: #c4c7ae;
      }

      .cls-29 {
        fill: #f9f9f6;
      }

      .cls-30 {
        fill: #eadac1;
      }

      .cls-31 {
        fill: #2e4333;
      }

      .cls-32 {
        fill: #da8875;
      }

      .cls-33 {
        fill: #cd7a69;
      }

      .cls-34 {
        fill: #a54536;
      }

      .cls-35 {
        fill: #ea8977;
      }

      .cls-36 {
        fill: #df978f;
      }

      .cls-37 {
        fill: #4b6d77;
      }

      .cls-38 {
        fill: #a74d3f;
      }

      .cls-39 {
        fill: #59524c;
      }

      .cls-40 {
        fill: #c36a64;
      }

      .cls-41 {
        fill: #ebcfad;
      }

      .cls-42 {
        fill: #843928;
      }

      .cls-43 {
        fill: #c56b65;
      }

      .cls-44 {
        fill: #614c41;
      }

      .cls-45 {
        fill: #91664c;
      }

      .cls-46 {
        fill: #e8907d;
      }

      .cls-47 {
        fill: #894e45;
      }

      .cls-48 {
        fill: #ed8671;
      }

      .cls-49 {
        fill: #e1a982;
      }

      .cls-50 {
        fill: #d7897e;
      }

      .cls-51 {
        fill: #29392e;
      }

      .cls-52 {
        fill: #cf6b59;
      }

      .cls-53 {
        fill: #613b32;
      }

      .cls-54 {
        fill: #4a342c;
      }

      .cls-55 {
        fill: #7c372b;
      }

      .cls-56 {
        fill: #dd8771;
      }

      .cls-57 {
        fill: #dde0c1;
      }

      .cls-58 {
        fill: #8a3d2f;
      }

      .cls-59 {
        fill: #c05e44;
      }

      .cls-60 {
        fill: #dd6f60;
      }

      .cls-61 {
        fill: #7c7957;
      }

      .cls-62 {
        fill: #d77e61;
      }

      .cls-63 {
        fill: #28392c;
      }

      .cls-64 {
        fill: #eff0e5;
      }

      .cls-65 {
        fill: #e98777;
      }

      .cls-66 {
        fill: #8f874e;
      }

      .cls-67 {
        fill: #7e4e4a;
      }

      .cls-68 {
        fill: #e27859;
      }

      .cls-69 {
        fill: #97935d;
      }

      .cls-70 {
        fill: #958451;
      }

      .cls-71 {
        fill: #8a6274;
      }

      .cls-72 {
        fill: #a99683;
      }

      .cls-73 {
        fill: #6c4f4b;
      }

      .cls-74 {
        fill: #3a4731;
      }

      .cls-75 {
        fill: #d98371;
      }

      .cls-76 {
        fill: #dee4db;
      }

      .cls-77 {
        fill: #e69c8e;
      }

      .cls-78 {
        fill: #9e584a;
      }

      .cls-79 {
        fill: #8b3c2c;
      }

      .cls-80 {
        fill: #664a4d;
      }

      .cls-81 {
        fill: #f5d091;
      }

      .cls-82 {
        fill: #c88072;
      }

      .cls-83 {
        fill: #714344;
      }

      .cls-84 {
        fill: #ce5f50;
      }

      .cls-85 {
        fill: #c86251;
      }

      .cls-86 {
        fill: #eae7d5;
      }

      .cls-87 {
        fill: #d88d7e;
      }

      .cls-88 {
        fill: #ea7e6f;
      }

      .cls-89 {
        fill: #b35148;
      }

      .cls-90 {
        fill: #4f4743;
      }

      .cls-91 {
        fill: #af635c;
      }

      .cls-92 {
        fill: #cc8678;
      }

      .cls-93 {
        fill: #d1695a;
      }

      .cls-94 {
        fill: #e49381;
      }

      .cls-95 {
        fill: #85885f;
      }

      .cls-96 {
        fill: #75524d;
      }

      .cls-97 {
        fill: #3d4a3d;
      }

      .cls-98 {
        fill: #e6b99c;
      }

      .cls-99 {
        fill: #4b352c;
      }

      .cls-100 {
        fill: #87563d;
      }

      .cls-101 {
        fill: #1f2e2e;
      }

      .cls-102 {
        fill: #d39884;
      }

      .cls-103 {
        fill: #b55d56;
      }

      .cls-104 {
        fill: #838253;
      }

      .cls-105 {
        fill: #c97467;
      }

      .cls-106 {
        fill: #cb6e66;
      }

      .cls-107 {
        fill: #6e4e4e;
      }

      .cls-108 {
        fill: #979b7d;
      }

      .cls-109 {
        fill: #474934;
      }

      .cls-110 {
        fill: #5a5b57;
      }

      .cls-111 {
        fill: #d1746d;
      }

      .cls-112 {
        fill: #d6847e;
      }

      .cls-113 {
        fill: #694041;
      }

      .cls-114 {
        fill: #505833;
      }

      .cls-115 {
        fill: #dbb599;
      }

      .cls-116 {
        fill: #ce7060;
      }

      .cls-117 {
        fill: #71574e;
      }

      .cls-118 {
        fill: #d16653;
      }

      .cls-119 {
        fill: #e1b297;
      }

      .cls-120 {
        fill: #e4dac7;
      }

      .cls-121 {
        fill: #515852;
      }

      .cls-122 {
        fill: #d17e73;
      }

      .cls-123 {
        fill: #35413b;
      }

      .cls-124 {
        fill: #5f3934;
      }

      .cls-125 {
        fill: #da8371;
      }

      .cls-126 {
        fill: #2d261f;
      }

      .cls-127 {
        fill: #444730;
      }

      .cls-128 {
        fill: #2f3f3d;
      }

      .cls-129 {
        fill: #ad614a;
      }

      .cls-130 {
        fill: #a49965;
      }

      .cls-131 {
        fill: #e6b487;
      }

      .cls-132 {
        fill: #d7807e;
      }

      .cls-133 {
        fill: #b35d45;
      }

      .cls-134 {
        fill: #bc6453;
      }

      .cls-135 {
        fill: #453c48;
      }

      .cls-136 {
        fill: #453d31;
      }

      .cls-137 {
        fill: #b09279;
      }

      .cls-138 {
        fill: #604444;
      }

      .cls-139 {
        fill: #dc7466;
      }

      .cls-140 {
        fill: #352b2b;
      }

      .cls-141 {
        fill: #eb987f;
      }

      .cls-142 {
        fill: #e98b7a;
      }

      .cls-143 {
        fill: #a69d76;
      }

      .cls-144 {
        fill: #b9655b;
      }

      .cls-145 {
        fill: #4a342b;
      }

      .cls-146 {
        fill: #3e3c3f;
      }

      .cls-147 {
        fill: #e18270;
      }

      .cls-148 {
        fill: #c27368;
      }

      .cls-149 {
        fill: #b4665d;
      }

      .cls-150 {
        fill: #979b7c;
      }

      .cls-151 {
        fill: #d36a5d;
      }

      .cls-152 {
        fill: #944c41;
      }

      .cls-153 {
        fill: #586846;
      }

      .cls-154 {
        fill: #653322;
      }

      .cls-155 {
        fill: #7f6a5f;
      }

      .cls-156 {
        fill: #364d4f;
      }

      .cls-157 {
        fill: #ca6b56;
      }

      .cls-158 {
        fill: #434048;
      }

      .cls-159 {
        fill: #727f7d;
      }

      .cls-160 {
        fill: #2c4232;
      }

      .cls-161 {
        fill: #c7986f;
      }

      .cls-162 {
        fill: #e5c1a3;
      }

      .cls-163 {
        fill: #d9e0c0;
      }

      .cls-164 {
        fill: #b86c5d;
      }

      .cls-165 {
        fill: #d8877b;
      }

      .cls-166 {
        fill: #27372b;
      }

      .cls-167 {
        fill: #dca292;
      }

      .cls-168 {
        fill: #ec9172;
      }

      .cls-169 {
        fill: #e0876f;
      }

      .cls-170 {
        fill: #7f3d34;
      }

      .cls-171 {
        fill: #eb8e7b;
      }

      .cls-172 {
        fill: #91894f;
      }

      .cls-173 {
        fill: #e48f72;
      }

      .cls-174 {
        fill: #e8a871;
      }

      .cls-175 {
        fill: #f1d3b3;
      }

      .cls-176 {
        fill: #db9589;
      }

      .cls-177 {
        fill: #c8b9a3;
      }

      .cls-178 {
        fill: #df7464;
      }

      .cls-179 {
        fill: #3b3f41;
      }

      .cls-180 {
        fill: #b76962;
      }

      .cls-181 {
        fill: #6f5450;
      }

      .cls-182 {
        fill: #e7af84;
      }

      .cls-183 {
        fill: #674d55;
      }

      .cls-184 {
        fill: #e5c5a1;
      }

      .cls-185 {
        fill: #858758;
      }

      .cls-186 {
        fill: #663c40;
      }

      .cls-187 {
        fill: #994434;
      }

      .cls-188 {
        fill: #a65245;
      }

      .cls-189 {
        fill: #bdb688;
      }

      .cls-190 {
        fill: #b85c45;
      }

      .cls-191 {
        fill: #ef9279;
      }

      .cls-192 {
        fill: #f1b07f;
      }

      .cls-193 {
        fill: #e6817b;
      }

      .cls-194 {
        fill: #e17658;
      }

      .cls-195 {
        fill: #6e2222;
      }

      .cls-196 {
        fill: #db9586;
      }

      .cls-197 {
        fill: #684442;
      }

      .cls-198 {
        fill: #ac6159;
      }

      .cls-199 {
        fill: #b85f3f;
      }

      .cls-200 {
        fill: #fefefe;
      }

      .cls-201 {
        fill: #877e4b;
      }

      .cls-202 {
        fill: #ea7b64;
      }

      .cls-203 {
        fill: #7b7958;
      }

      .cls-204 {
        fill: #534749;
      }

      .cls-205 {
        fill: #e06c5c;
      }
    </style>
  </defs>
  <path class="cls-200" d="M.5,1009.9c-.15-.1-.51.23-.48-.24.02-.28,0-.56,0-.84C.03,672.93.03,337.05,0,1.16,0,.18.2,0,1.17,0c21.43.03,42.85.03,64.28,0,.86,0,1.04.18,1.04,1.04-.02,335.97-.02,671.93,0,1007.9,0,.83-.17.98-.98.98-20.87-.03-41.74-.02-62.6-.02-.09-.11-.14-.23-.15-.38.66-2.38,1.64-4.66,2.24-7.07.85-3.46,1.44-6.95,1.65-10.51.23-3.83.71-7.62,1.25-11.42.51-3.56,1.03-7.11,1.6-10.65.06-.4.14-.79.28-1.16,1.22-3.15.74-5.95-1.69-8.35-.18-.3-.22-.63-.17-.97.02-.12.07-.24.13-.35.37-.39.91-.46,1.36-.72.87-.49,1.02-.94.59-1.86-.25-.53-.77-.94-.73-1.6,1.55-2.04,1.53-4.6,2.31-6.9.38-1.14-.2-2.08-.98-2.89-.32-.4-.4-.87-.4-1.35-.02-4.51-.04-9.02,0-13.53,0-.2.04-.4.09-.59.13-.47.54-.75.78-1.14.73-1.63-.7-3.96-2.54-4.14-1.76-.17-3.4.18-4.92,1.11-.33.16-.68.19-1.04.17-1.76-.07-1.76-.07-1.7,1.71,0,1.01.03,2.01,0,3.02.06,5.93.06,11.86,0,17.79.03,1.06.04,2.12,0,3.18.03,1.04.03,2.08,0,3.12.02.95.03,1.91,0,2.86.02.66.02,1.32,0,1.98.04.6.02,1.2,0,1.81.06.4.04.8.04,1.2,0,15.1,0,30.2,0,45.3,0,.64.06,1.28-.13,1.9-.06.15-.15.28-.25.41Z"/>
  <path class="cls-176" d="M.5,1009.9c.01-.08.02-.17.04-.25.77-.47,1.54-.48,2.3,0,.02.09.03.17.05.26H.5Z"/>
  <path class="cls-116" d="M2.84,1009.64c-.77,0-1.54,0-2.3,0-.01-3.11-.03-6.22-.03-9.33,0-13.12.02-26.25.03-39.37.51-.44,1.12-.37,1.7-.28,2.03.33,4.02.28,5.96-.47,2.31,1.74,3.21,4.84,2.13,7.96-.66,1.9-.83,3.88-1.17,5.82-.55,3.13-.89,6.3-1.34,9.45-.42,2.88-.64,5.78-.84,8.68-.3,4.46-1.06,8.84-2.45,13.09-.49,1.51-.96,3.03-1.68,4.45Z"/>
  <path class="cls-160" d="M32.32,782.16c1.43.45,1.67,1.73,1.59,2.87-.17,2.57-.57,5.13-.88,7.69-.44,3.55-1.04,7.08-1.94,10.54-1.31,5.04-3.05,9.92-5.71,14.44-1.18,2.02-2,4.19-2.5,6.51-.42,1.96-1.69,3.59-2.89,5.14-.94,1.21-1.51,2.54-1.74,3.98-.38,2.39-1.28,4.43-2.96,6.21-2.51,2.66-4.85,5.46-7.31,8.17-.71.79-1.57,1.44-2.36,2.17-1.12,1.04-1.59.91-1.94-.58-.05-.19-.08-.39-.12-.59-.3-.5.1-.82.33-1.17,1.92-2.88,3.76-5.82,5.8-8.61.93-1.26,1.41-2.76,2.17-4.11,3.59-3.48,5.47-7.99,7.41-12.45,3.03-6.96,5.55-14.1,7.44-21.46.92-3.59,1.82-7.19,2.5-10.84.17-.67.63-1.18.97-1.75.61-1.06.69-2.24.86-3.41.15-1.01-.09-2.28,1.27-2.75Z"/>
  <path class="cls-127" d="M9.66,730.13c-.51-.63-.43-1.22.08-1.82.71-.85,1.37-1.49,2.66-1.64,3.64-.43,7.34-.52,10.88-1.72.96-.33,1.95.27,2.8.75,1.58.91,3.11,1.74,5.02,1.97,2.26.27,2.95,2.28,3.57,4.16.59,1.75.05,3.28-1.03,4.67-.86,1.11-1.92,2.03-3.08,2.79-.74.48-1.29,1.04-1.41,1.93-.37,2.66-1.86,4.85-2.88,7.25-1.17,2.76-3.58,4.16-5.72,5.87-1.11.89-2.37.7-3.55,0-.47-.7.07-1.21.35-1.73,1.15-2.11,2.87-3.82,4.06-5.91.87-1.53,1.69-3.08,2.03-4.83.23-1.16.1-1.27-1.07-.93-1.83.53-3.43,1.48-4.78,2.82-1.7,1.68-3.36,3.4-5.07,5.07-.77.74-1.57,1.5-2.76,1.48-.18-.03-.35-.1-.48-.23-.26-.77.26-1.29.6-1.85,1.9-3.2,4.6-5.68,7.39-8.06,1.91-1.63,3.89-3.16,5.92-4.64,1.14-.83,1.61-.73,2.44.44.27.38.45.94,1.03.87.55-.07.7-.64.81-1.08.25-.94.8-1.74,1.16-2.62.38-.93.16-1.57-.78-1.75-3.41-.65-6.78-1.75-10.34-1.2-1.31.2-2.53.68-3.79,1.03-1.18.33-2.28.15-3.37-.32-.34-.15-.63-.35-.68-.76Z"/>
  <path class="cls-66" d="M9.66,730.13c1.23.86,2.57,1.3,4.03.73,3.74-1.48,7.52-1.34,11.33-.4,1.04.26,2.1.39,3.14.67.98.26,1.23,1.01.88,1.87-.52,1.29-1.13,2.53-1.71,3.79-.41.87-.94.71-1.45.11-1.53-1.78-1.55-1.82-3.5-.36-3.86,2.88-7.67,5.83-10.7,9.64-.93,1.17-1.91,2.35-2.32,3.85-1.45.53-2.81,1.33-4.39,1.48-1.43-.73-2.74-.62-3.9.58-.14.14-.34.21-.55.1,0-2.46,0-4.91.01-7.37,1.8-.55,2.77-2.02,3.8-3.43.52-.71,1.1-1.36,1.83-1.87,1.33-.95,2.76-1.23,4.29-.61.86.35.99.06.77-.71-.18-.61-.3-1.24-.54-1.84-.46-1.12-1.23-1.84-2.45-2.04-.34-.06-.73-.04-.98-.37-.14-1.87.82-3.05,2.4-3.83Z"/>
  <path class="cls-114" d="M1.42,282.86c1.46-1.8,3.62-1.73,5.61-2.13,1.4-.28,2.83-.11,4.22-.55,2.5-.79,6.12.7,7.29,2.98.87,1.71.68,3.47-.03,5.19-.81,1.94-1.66,3.85-2.46,5.79-1.25,3.03-2.15,6.19-3.26,9.28-1.1,3.05-2.12,6.14-3.24,9.19-1.03,2.81-1.82,5.69-2.03,8.67-.28,4.1-2.41,7.06-5.47,9.5-.41.33-.78.81-1.5.88v-10.34c.21-1.61,1.01-3.02,1.62-4.48,3.26-7.86,6.92-15.53,10.57-23.21,1.32-2.78,2.36-5.68,3.47-8.54.37-.95-.24-1.1-.89-1.27-3.71-.67-7.42-.72-11.12.07-.63.13-1.27.13-1.88-.08-.44-.15-.94-.3-.89-.94Z"/>
  <path class="cls-171" d="M.54,503.42c0-2.41,0-4.81-.01-7.22.32-.16.63-.05.92.04,2.82.93,5.32.12,7.62-1.5,1.88-1.32,3.62-2.86,5.85-3.61,2.66-.92,5.34-1.76,7.86-3.07,1.81-.94,3.36-2.24,5.07-3.33.57-.15,1.14-.17,1.71.02.43.2.61.61.73,1.02.23.81.71,1.48,1.18,2.15.07,1.43-.29,2.82-.37,4.24-.16.6-.54,1.04-1.02,1.41-1.21.93-2.2,2.13-3.56,2.88-1.17-.03-2.23.26-3.03,1.2-1.08.44-2.24.53-3.37.73-2.12.38-4,1.27-5.81,2.39-4.03,1.27-8.07,2.46-12.3,2.86-.51.05-1.03.2-1.48-.2Z"/>
  <path class="cls-189" d="M15.56,283.63c1.34.22,1.43.54.9,1.7-.79,1.73-1.43,3.53-2.13,5.3-1.83,4.59-4.12,8.97-6.2,13.44-2.31,4.98-4.44,10.04-6.61,15.09-.31.73-.65,1.44-.98,2.17,0-8.98,0-17.95,0-26.93.34-.32.78-.39,1.2-.47,2.98-.58,5.34-2.31,7.76-4.16-1.09-.24-2.11.16-3.04-.31-.34-.89.47-1.09.93-1.42,2.07-1.49,4.4-2.53,6.64-3.75.48-.26.95-.59,1.52-.67Z"/>
  <path class="cls-30" d="M.52,687.91c0-2.43-.02-4.85,0-7.28,0-.47.14-.93.22-1.39-.27-.89.22-1.63.57-2.35,1.1-2.26,2.65-4.2,4.47-5.94.12-.11.27-.16.43-.18.24.03.44.16.66.24,1.36.51,2.32.12,2.9-1.17.47-1.04.27-1.44-1.13-2.27-.16-.32.07-.54.25-.73.9-.97,1.53-2.13,2.22-3.24,1-1.07,2.02-2.12,2.94-3.25,2.66-1.9,5.05-4.13,7.61-6.17.96-.77,1.95-1.51,2.84-2.38.38-.37.85-.59,1.38-.67,1.17-.04,2.35-.15,3.51.07.75.49.2,1.01-.04,1.41-.85,1.4-1.81,2.72-2.88,3.95-.71.82-1.31,1.7-1.88,2.61-.81,1.06-1.24,2.41-2.37,3.23-3.25.53-5.24,2.39-6,5.62-.19.79-.56,1.54-1.64,1.3-.18-.08-.33-.21-.5-.31-.87-.51-1.3-.34-1.47.67-.17,1.02-.05,2.06-.06,3.08.16,1.66-.71,2.61-2.16,3.17-.48.18-.95.4-1.44.57-2.37.84-3.41,2.65-3.55,5.03-.06,1-.32,1.76-1.13,2.36-.88.66-1.35,1.65-1.9,2.58-.41.68-.74,1.57-1.82,1.44Z"/>
  <path class="cls-154" d="M64.27,572.27c.35,3.77-.25,7.28-2.06,10.7-1.09,2.06-1.75,4.38-2.6,6.58-.95,2.47-2.38,4.75-3.56,7.13-.77,1.55-1.89,2.79-3.26,3.81-.3.23-.22.47-.21.73.03,1.95-.88,3.34-2.58,4.2-1.01.52-2.08.95-3.11,1.41-.95-.24-1.34-1.16-2.01-1.73,0-.08,0-.18.05-.22,1.45-1.19,2.1-2.81,2.46-4.59.56-1.15,1.34-2.16,2.09-3.19,2.44-3.36,4.19-7.01,4.96-11.11,1.57-3.31,2.94-6.7,3.88-10.26.42-1.62.66-3.28,1.22-4.87.37-.73.64-1.51,1-2.25.2-.4.31-.92.89-.98.84.66.98,1.7,1.23,2.61.27.96.73,1.61,1.6,2.01Z"/>
  <path class="cls-6" d="M.52,687.91c.98-.37,1.41-1.24,1.85-2.09.48-.93,1.05-1.77,1.93-2.37.53-.36.74-.84.76-1.52.09-3.47,1.65-5.12,4.12-5.84.38-.11.73-.3,1.1-.45,1.61-.63,1.91-1.07,1.94-2.86,1.11.44,1.34,1.61,2.01,2.41.04,1.06.22,2.05,1.15,2.73.23.16.34.43.33.73-.27.96-.56,1.91-.77,2.89-.14.63-.4,1.22-1.04,1.52-.42.14-.86.09-1.28.13-1.33.13-1.82.71-1.62,2.03.15.94.05,1.8-.45,2.62-1.07,1.41-1.2,3.04-1.12,4.72.02.47.02.95-.02,1.42-.84,2.58-2.41,4.44-5.08,5.23-.92.01-1.78.2-2.58.68-.37.22-.76.43-1.22.26v-12.26Z"/>
  <path class="cls-87" d="M49.28,449.2c-.55,2.56-.46,5.25-1.69,7.66-2.92,4.39-4.69,9.31-6.46,14.23-.27.75-.56,1.49-.91,2.21-.63,1.29-.94,2.71-1.56,4-.7.79-1.34,1.63-2.08,2.38-.29.3-.68.94-1.18.16-.26-1.79-.09-3.58-.11-5.37,0-.92.39-1.68,1.04-2.31.11-.11.22-.22.33-.34,1.83-1.99,1.63-2.78-.95-3.73-.74-.2-1.5-.08-2.24-.11-.97-.04-1.78-.35-2.25-1.27-.12-.96.41-1.62,1.13-2.08,3.31-2.14,5.96-5.02,8.73-7.77q.99-.99.22-1.94,1.36-1.6.26-3.67c-.09-.18-.15-.36-.14-.57.46-1.31,1.63-1.69,2.76-2,1.74-.48,3.5-.6,5.1.53Z"/>
  <path class="cls-163" d="M26.58,766.36c1.89-1.05,3.47-2.5,5.01-3.98.26-.25.52-.5.75-.76.41-.46.92-.71,1.48-.41.62.34.47,1.04.31,1.51-.38,1.13-.92,2.2-1.62,3.18-.2.37-.36.75-.54,1.13-.62.98-1.12,2.03-1.94,2.88-1.23,1.91-2.4,3.85-2.87,6.12-.04.24-.13.46-.22.67-.82,3.69-2.01,7.27-3.23,10.84-1.21,3.36-2.57,6.67-3.73,10.04-.33.94-.73,1.85-1.1,2.77-.35.59-.72,1.18-1.2,1.67-.39.3-.75.64-1.01,1.07-1.31,1.23-2.34,2.72-3.65,3.94-.35.32-.69.72-1.24.34-.43-.42-.89-.74-1.52-.83-2.39-.34-2.83-.91-2.66-3.32.01-.16.04-.31.08-.46.64-1.01,1.45-1.85,2.47-2.47.08-.01.18-.04.23,0,1.66,1.01,2.89.21,4.13-.9,4.3-3.85,6.21-8.58,5.4-14.37-.17-1.22-.47-2.44-.34-3.69.08-.4.26-.75.49-1.08,1.83-2.66,3.42-5.48,5.13-8.21.38-.61.7-1.25,1.03-1.89.62-1.22.61-2.49.33-3.79Z"/>
  <path class="cls-166" d="M20.06,542.03c.54,2.15-.04,4.21-.69,6.19-1.67,5.03-3.42,10.02-5.25,14.99-.88,2.39-2.67,4.29-3.85,6.53-1.54,2.95-3.77,5.45-5.47,8.31-1.03,1.75-2.68,2.98-4.26,4.51v-6.46c.15-.38.4-.68.71-.94,1.64-1.38,2.67-3.16,3.22-5.2.55-2.04,1.7-3.56,3.46-4.67,1.09-.62,1.82-1.56,2.22-2.72,1.65-4.75,3.28-9.5,4.91-14.24.85-2.47,1.14-5.05,1.18-7.66.32-.9.7-1.76,1.64-2.2.19-.04.37-.02.55.05,1.2.85,1.27,2.24,1.62,3.49Z"/>
  <path class="cls-173" d="M.54,393.04c0-3.28,0-6.56,0-9.84,1.82-1.97,1.97-4.33,1.64-6.82-.23-1.69-.64-3.38-.03-5.08.48-1.53,1.2-2.94,1.92-4.36.87-1.72,1.62-3.47,1.26-5.47.56-1.15,1.19-2.25,2.13-3.14,1.35-.09,2.45-.73,3.46-1.6.57-.49,1.21-.87,1.91-1.16.41-.17.82-.3,1.2.08.53.85.43,1.8.4,2.73-.41,1.74-.85,3.48-1.46,5.16-3.35,7.97-6.63,15.97-9.82,24-.62,1.55-1.32,3.07-1.9,4.64-.13.34-.2.81-.72.85Z"/>
  <path class="cls-17" d="M9.82,750.08c1.04-.04,1.75-.72,2.43-1.38,1.76-1.73,3.48-3.51,5.23-5.25,1.47-1.46,3.24-2.42,5.24-2.94,1.17-.31,1.34-.12,1.11,1.04-.58,2.92-2.08,5.38-3.81,7.73-.8,1.09-1.58,2.19-2.33,3.31-.34.52-.74,1.05-.7,1.74-2.99,1.93-6.16,3.56-9,5.76-1.48,1.15-3.21,1.97-4.83,2.94-1.57.09-2.47-1.32-1.76-2.8.31-.66.85-1.14,1.32-1.68,2.41-2.79,4.87-5.54,7.1-8.48Z"/>
  <path class="cls-145" d="M33.97,623.14c-1.83,3.26-4.83,4.92-8.24,5.95-1.1.33-2.24-.25-3.42-.04-1.36.24-2.62.66-3.77,1.34-3.75,2.22-7.81,3.36-12.11,3.76-1.7.16-3.39.33-5.11.24-.6-.03-.85-.18-.83-.82.05-1.23.04-2.47.05-3.71.64-.76,1.56-.77,2.41-.79,1.85-.05,3.73-.25,5.53.44.44.17.86.11,1.24-.18.42-.32.9-.5,1.4-.63,3.72-.44,7.07-1.82,10.09-4.02.29-.21.62-.37.94-.53,3.35-.63,6.1-2.46,8.77-4.44.26-.19.54-.33.86-.38.65-.03,1.01.43,1.42.81.69.89.84,1.91.76,3Z"/>
  <path class="cls-58" d="M.54,393.04c2.22-5.48,4.37-11,6.69-16.44,1.86-4.35,3.4-8.83,5.5-13.07.59-.29.88.14,1.13.53.42.64.68,1.38.53,2.14-.29,1.45-.12,2.91-.2,4.37,0,.2-.05.4-.12.59-1.68,2.38-2.45,5.14-3.25,7.89-.36,1.26-.76,2.51-1.26,3.73-1.74,4.19-3.25,8.47-4.88,12.7-.19.48-.38.96-.64,1.41-.76,1-1.16,2.17-1.7,3.28-.4.82-.65,1.85-1.82,1.98,0-3.03,0-6.07,0-9.1Z"/>
  <path class="cls-178" d="M.55,519.07v-12.32c.27-.32.64-.46,1.03-.55,4.18-.92,8.38-1.75,12.61-2.45.65.17.66.72.7,1.24.17,1.95-.82,3.36-2.14,4.6-.46.44-1,.79-1.54,1.13-2.13,1.35-2.24,1.89-.82,3.93.03.12.03.25-.01.37-1.63,2.19-3.97,3.18-6.5,3.77-1.07.25-2.17.82-3.33.29Z"/>
  <path class="cls-205" d="M.54,948.24c0-6,0-11.99,0-17.99,1.91-.73,3.9-.97,5.92-1.04,1.1,1.83,1.59,3.87,1.99,5.94.69,3.65.1,7.12-1.48,10.45-.61,1.29-.98,2.69-1.68,3.94-.08.11-.17.19-.29.26-.35.15-.7.07-1.03-.08-1.13-.53-2.3-.99-3.45-1.48Z"/>
  <path class="cls-60" d="M.55,614.02c0-3.35,0-6.7,0-10.06.38-.49.88-.8,1.46-.99,2.88-.26,4.46-1.7,5-4.59.17-.9.29-1.8.66-2.64.38-.58.67-1.27,1.55-1.19,1.12,1.26,1.29,2.9,1.56,4.43.33,1.91.44,3.85.15,5.82-.75,5.19-3.69,8.67-8.17,11.04-.21.11-.44.19-.68.18-.56-.62-.78-1.51-1.52-2Z"/>
  <path class="cls-131" d="M18.68,699.89c-.41.19-.7.47-.77.94-.52.51-1.02.2-1.47-.09-.53-.34-1.06-.66-1.69-.75-1.27-.25-2.34-.94-3.36-1.68-1.25-.91-1.41-2.29-.62-4.19.77-1.29,1.84-2.39,2.45-3.79.1-.22.26-.41.55-.23.88.9,2.02,1.07,3.18,1.02,1.26-.06,2.02-.86,2.33-2.05.33-1.27.45-2.58.51-3.89.02-.51-.06-1.04.2-1.52.34-.32.7-.12.99.04,1.56.89,3.2,1.57,4.88,2.19.41.6.05,1.1-.29,1.51-.91,1.1-1.07,2.17-.06,3.29.05.38-.12.7-.33.99-1.92,2.68-4.04,5.21-6,7.86-.12.16-.29.27-.48.34Z"/>
  <path class="cls-68" d="M.54,418.24c0-1.76,0-3.53,0-5.29.51-2.53,1.76-4.77,2.87-7.05,1.1-2.25,2.18-4.52,3.65-6.57.28-.39.51-.81.99-.99.58-.14,1.16-.19,1.73.09.48.5.24,1.04.09,1.57-.36,1.31-.91,2.55-1.3,3.85-.62,2.06-.5,3.85,1.36,5.22.36,1.1.34,2.2-.17,3.24-.58,1.17-1.14,2.35-1.67,3.54-1.27,1.08-2.65,2.01-4.11,2.8-1.28.7-2.67.45-3.45-.42Z"/>
  <path class="cls-193" d="M.74,460c.48-.29,1.25-.16,1.38-.95,1.5.52,2.78-.2,4.06-.78,1.41-.64,2.52-1.76,3.81-2.62,1.56-.41,3.15-.67,4.75-.82,1.79.01,3.58-.18,5.37.11.64.35.58.94.37,1.46-.72,1.82-1.76,3.46-3.05,4.93-.45.17-.9.18-1.35-.02-.5-.37-.53-.94-.62-1.48-.06-.35-.13-.75-.56-.81-.47-.06-.72.29-.86.67-.38,1.04-.56,2.14-.86,3.21-.14.48-.13,1.04-.65,1.34-1.1.31-2.22.15-3.32.16-1.79.02-3.58-.05-5.34.36-2.28-.62-3.48-2.45-3.13-4.76Z"/>
  <path class="cls-69" d="M11.98,835c-.83,2.71-2.59,4.87-4.14,7.16-1.46,2.16-2.85,4.37-4.27,6.56-.96,1.1-1.93,2.2-3.03,3.46v-6.64c.17-.48.26-.99.53-1.44,1.06-1.76,1.57-3.59.96-5.68-.38-1.28.36-2.31,1.32-3.1.46-.37.98-.7,1.55-.87,2.06-.6,3.83-1.68,5.35-3.19.18-.07.37-.09.56-.05,1.4.96,1.83,2.38,1.16,3.79Z"/>
  <path class="cls-179" d="M14.89,699.69c.65.09,1.2.39,1.67.82.39.36.87.32,1.35.32.89,2.63-.26,5.63-2.64,6.96-2.61,1.46-5.3,2.57-8.37,2.74-1.65.09-3.17.93-4.66,1.67-.53.26-1.06.52-1.71.84v-4c.24-.56.76-.79,1.25-1.05,3.34-1.74,6.77-3.34,9.76-5.71.75-.6,1.42-1.27,2.13-1.91.37-.33.76-.56,1.23-.68Z"/>
  <path class="cls-120" d="M29.66,651.44h-4.09c.55-1.57,1.69-2.68,2.87-3.74,2.5-.82,4.05-2.66,5.28-4.87.19-.34.27-.76.67-.95,1.6-.33,3.05-1.09,4.58-1.61,1.7-.57,3.4-.76,5.12-.31.85.22,1.83.62,1.77,1.65-.11,1.88-.54,3.69-2.31,4.81-.58-.81-1.25-.94-2.06-.33-.32.24-.7.33-1.11.24-.38-.1-.78-.15-1.14-.32-.89-.42-1.68-.21-2.43.36-1.39,1.05-2.66,2.23-3.82,3.53-.87.97-1.86,1.83-3.34,1.53Z"/>
  <path class="cls-132" d="M10.38,514.72c-1.99-1.21-1.76-2.71.35-4.07,1.14-.73,2.19-1.49,3-2.61.93-1.3,1.12-2.65.65-4.14.42-1.12,1.48-1.43,2.4-1.92,2.74-.2,4.86-1.4,6.17-3.89.13-.25.31-.47.49-.68.72-1.24,1.89-1.31,3.12-1.2.47.6.09,1.14-.15,1.66-.5,1.09-1.34,1.97-1.9,3.02-.22.42-.45.84-.5,1.33-.08.8.16,1.31,1.07,1.35.43.02.98-.14,1.19.48-.46,0-.6.29-.8.67-.48.91-1,1.87-2.27,1.81-.49-1.41-.5-1.43-1.89-.55-2.93,1.85-5.47,4.18-7.72,6.81-.49.57-1.02,1.1-1.53,1.66-.48.54-1.04.68-1.69.28Z"/>
  <path class="cls-10" d="M.55,829c-.01-5.95-.23-11.92.04-17.86.14-3.17,1.83-5.97,3.98-8.36.4-.44,1.08-.62,1.63-.92.43.31.89.59,1.18,1.06.47,1.82-.21,3.44-.85,5.07-.61,1.55-1.49,2.99-2.03,4.57-.85,2.47-.98,4.9.61,7.17.14.43-.07.78-.27,1.12-1.27,2.13-2.23,4.41-3.2,6.69-.24.56-.33,1.27-1.08,1.45Z"/>
  <path class="cls-4" d="M14.89,699.69c-2.35,2.26-4.87,4.3-7.76,5.84-2.2,1.17-4.4,2.34-6.61,3.51,0-1.77,0-3.54,0-5.31,2.27-.76,3.61-2.27,3.73-4.73,2.46-.78,3.94-2.55,4.86-4.88.65-.4,1.28-.46,1.89.08-.87,2.36-.62,3.12,1.42,4.41.76.49,1.51,1.01,2.45,1.09Z"/>
  <path class="cls-195" d="M.54,627.19c0-1.67,0-3.34,0-5.01,1.01-.74,2.04-1.47,2.47-2.74,1.37-1.2,2.92-2.16,4.29-3.36,2.26-1.96,4.13-4.26,6.03-6.55.63-.76,1.19-1.58,1.95-2.24,1.64-.94,2.55-.65,3.48,1.09.08.71-.38,1.18-.78,1.66-.88,1.06-1.88,2.03-2.7,3.16-.44.61-.74,1.3-.97,2.03-.15.48-.4.87-.9,1.04-3.58,1.26-5.71,3.9-7,7.36-.3.46-.79.66-1.25.91-1.15.69-2.22,1.49-3.35,2.21-.38.24-.73.63-1.27.44Z"/>
  <path class="cls-54" d="M64.27,572.27c-.99.02-1.54-.29-1.72-1.44-.17-1.1-.75-2.14-1.16-3.21-.57-.42-.47-1.06-.52-1.64-.18-2.05-.84-2.48-2.8-2.06-2.88.63-5.77,1.18-8.58,2.08-.81-.17-1.46-.48-1.23-1.51.21-.91,1.12-.86,1.7-1.05,2.71-.92,5.05-2.34,7.11-4.34,1.66-1.61,3.84-1.71,5.8-.61,1.02.57,1.52,1.27,1.48,2.53-.1,3.75-.06,7.5-.07,11.25Z"/>
  <path class="cls-146" d="M49.28,449.2c-2.45-.72-4.83-.89-7.03.76-.29.22-.56.45-.68.8-.38.55-.97.46-1.51.47-2.2.02-4.41.02-6.61,0-.79-.02-1.56-.21-2.34-.25-1.59-.1-3.15-.05-4.55.88-.26.18-.58.24-.9.24-.84-.14-1.7-.16-2.54-.31-.72-.62-1.81-.73-2.3-1.67,1.2-.83,2.65-1.02,4-1.37,3.71-.98,7.5-1.59,11.35-1.79,3.65-.19,7.3-.22,10.95-.12.32,0,.63.04.95.08,1.55.2,1.8.66,1.21,2.27Z"/>
  <path class="cls-203" d="M32.32,782.16c-.82.53-.89,1.48-.9,2.24-.03,2.17-.72,4.03-2,5.73-1.33,1.82-1.97,3.95-2.69,6.05-.49,1.45-1.2,2.76-2.32,3.83-.49.48-1.05.84-1.68,1.09-1.44.57-1.95.2-1.92-1.39,2.57-5.07,4.08-10.57,6.34-15.76,1.01-2.31,2.39-4.42,3.68-6.57.14-.24.31-.47.57-.59.26-.08.51-.06.71.16-.5,1.76-.34,3.5.21,5.22Z"/>
  <path class="cls-61" d="M19.8,781.23c.2,2.61.8,5.19.58,7.84-.36,4.33-2.54,7.7-5.63,10.56-.35.32-.75.59-1.11.89-.94.77-1.9.96-2.9.13-.2-.16-.42-.22-.66-.2-.16-.46.2-.73.41-1.06,1.07-1.72,2.17-3.42,3.21-5.15,1.12-1.86,1.63-3.94,1.86-6.08-.26-.87-.44-1.68.29-2.5.54-.6.42-1.49.48-2.27,1.01-.41,1.95-.93,2.68-1.78.2-.23.45-.44.8-.38Z"/>
  <path class="cls-74" d="M.55,829c1.23-2.04,1.87-4.35,3-6.44.49-.9,1.02-1.78,1.54-2.66.23-.97,1.12-1.41,1.68-2.11,2.1-2.57,3.38-5.56,4.51-8.64.22-.59.24-1.26.7-1.75.8-.44,1.41-1.06,1.98-1.81.75-.99,1.57-1.93,2.56-2.71.11-.18.29-.21.47-.25.98.17.76.88.62,1.49-.4,1.8-1.4,3.31-2.42,4.78-2.7,3.89-5.06,7.94-6.52,12.48-1.22,2.17-2.42,4.36-3.64,6.53-.25.45-.51.9-.92,1.23-.7.42-1.44.79-2.19,1.1-.51.21-1.07.37-1.39-.33,0-.31,0-.62,0-.92Z"/>
  <path class="cls-55" d="M.54,493.07c0-1.19,0-2.38,0-3.58,1.27-1.01,2.59-1.97,3.31-3.51.79-1.01,1.73-1.88,2.67-2.74,2.67-2.68,5.25-5.47,8.01-8.06.66-.36,1.06-1.1,1.83-1.29,1.49.08,2.14.61,2.46,2.03-.09.41-.35.72-.63,1-3.81,3.91-7.51,7.93-11.41,11.75-1.84.79-3.14,2.29-4.64,3.53-.48.39-.87.96-1.61.87Z"/>
  <path class="cls-135" d="M.55,519.07c3.67-.41,7.09-1.41,9.78-4.14.91-.37,1.54-.08,1.83.86.26.84,1.06,1.27,1.45,2.01.22,1.33-.25,2.33-1.44,2.98-.96.52-1.6,1.44-2.51,1.99-2.68,1.62-5.66,1.64-8.66,1.49-.55-.03-.5-.39-.5-.75.02-1.48.03-2.96.05-4.43Z"/>
  <path class="cls-107" d="M26.1,345.54c-.3.33-.27.73-.23,1.13.48,5.94.15,11.89.14,17.84,0,2.03-.86,3.95-1.22,5.95-.17.97-.45,1.93-.68,2.89-.61-.07-.67-.61-.85-1.03-.65-1.5-.63-3.11-.67-4.7-.02-6.79-.01-13.58,0-20.37,0-.59-.06-1.21.3-1.74,1.08-.53,2.15-.58,3.22.03Z"/>
  <path class="cls-186" d="M35.63,480.12c1.14-.77,1.73-2.09,2.85-2.88.67.9.27,1.94.35,2.91-.03,1.21-.02,2.41,1.07,3.26.17.13.16.35.08.55-.5,3.67-2.44,6.52-5.11,8.93-.49.45-1.12.74-1.84.68-.86-.21-1.73-.4-2.22-1.27-.06-1.52.33-3.01.44-4.51-.06-.51.3-.82.59-1.12,1.64-1.74,2.9-3.7,3.48-6.05.05-.2.13-.38.3-.51Z"/>
  <path class="cls-118" d="M.54,418.24c1.38.78,2.71.63,4-.23,1.11-.75,2.17-1.58,3.37-2.18.3.26.35.63.32.97-.1,1.36.29,2.65.59,3.94.08.32.09.64.01.96-.07.27-.2.52-.4.73-1.94,1.99-2.93,4.53-3.98,7.02-.19.44-.38.88-.66,1.27-1.01.97-1.8,2.21-3.26,2.63,0-2.09,0-4.17,0-6.26.13-.25.22-.51.39-.73,1.08-1.44,1.25-2.87-.05-4.27-.2-.21-.22-.5-.34-.74,0-1.04,0-2.08,0-3.12Z"/>
  <path class="cls-15" d="M.74,460c-.25,2.28,1.23,3.46,2.87,4.53.36.4.31.88.26,1.36-.05.44-.18.86-.28,1.28-.59,2.4-.51,2.5,1.83,2.08,1.19-.22,1.97.16,2.55,1.24.31.57.46,1.19.55,1.82.16,1.08.51,2.08,1.19,2.95.07,2.46-2.6,5.2-4.76,4.89-.66-1.17-.86-2.47-.93-3.78-.12-2.31-.42-2.58-2.77-2.21-.24.04-.47.08-.7-.03-.01-4.51-.03-9.02-.04-13.53,0-.22-.08-.49.23-.61Z"/>
  <path class="cls-181" d="M9.07,589.04c1.09-2.51,3.1-4.17,5.27-5.65,1.96-1.33,4.04-2.46,5.79-4.09.79-.74,1.78-.98,2.83-1.06.75.43,1.04,1.18,1.31,1.95-.07.66-.56,1.06-1.01,1.39-1.58,1.14-2.91,2.5-3.91,4.19-.19.2-.39.39-.57.6-.55.67-1.04,1.39-1.49,2.14-.37.62-.81,1.17-1.56,1.36-1.79-.71-1.78-.7-3.22.78-.59.61-1.3,1.04-2.22.87-.38-.84-.79-1.67-1.21-2.49Z"/>
  <path class="cls-57" d="M.52,552.84c0-4.18.02-8.36.02-12.54.29-.14.58-.23.91-.2,3.02.34,5.82-.21,8.36-1.96.26-.18.55-.31.88-.33.9.08,1.79.26,2.16,1.21.4,1.03-.15,1.83-.81,2.57-.91,1.03-1.85,1.98-3.33,2.1-2.56-.36-3.87.52-4.72,3.24-.52,1.68-.96,3.39-2.02,4.83-.36.49-.67,1.12-1.44,1.08Z"/>
  <path class="cls-138" d="M30.82,492.32c.74.41,1.61.62,2.22,1.27.46,3.6-.71,6.67-3.15,9.26-.95,1.01-2.29,1.14-3.61,1.21-.27-.25-.6-.15-.91-.16-1.76-.03-2.28-.89-1.45-2.55.42-.85,1-1.62,1.52-2.42.54-.83,1.13-1.65,1.13-2.71,1.4-1.32,3.03-2.38,4.26-3.89Z"/>
  <path class="cls-70" d="M15.56,283.63c-1.37,1.16-3.06,1.77-4.6,2.63-1.42.79-2.84,1.56-4.12,2.56-.2.16-.36.3-.38.57-1.7,1.31-4.8,1.06-5.92-.48-.01-1.57.01-3.14-.06-4.71-.03-.75.46-1.01.93-1.34.72.93,1.76.9,2.71.69,3.72-.85,7.42-.75,11.14-.11.1.02.19.13.29.19Z"/>
  <path class="cls-91" d="M5.06,949.69c.59-2.12,1.62-4.06,2.38-6.11,1.6-4.32,1.06-8.52-.51-12.69-.2-.52-.46-1.02-.46-1.6,1.02-1.17,2.76-1.17,4.11,0,0,4.95,0,9.9-.04,14.85,0,.48.19.72.55.92-.26.61-.16,1.26-.21,1.89-.19,2.18-1.11,3.08-3.28,3.06-.85,0-1.76.25-2.54-.33Z"/>
  <path class="cls-31" d="M19.8,781.23c-.61.56-1.21,1.13-1.84,1.68-.47.41-1.01.6-1.64.49-.28-2.58.97-4.65,2.17-6.76.62-1.09,1.49-1.93,2.33-2.82,1.37-1.44,2.04-3.19,2.1-5.15.03-.98.41-1.77.88-2.54.48-.79,1.15-.9,1.92-.37.29.2.58.41.87.61,1.24,1.63.36,3.14-.41,4.54-1.96,3.54-4.13,6.96-6.37,10.33Z"/>
  <path class="cls-150" d="M.54,829.93c.51.45,1.01.23,1.52-.02.67-.32,1.34-.62,2.02-.93.73-.43,1.27.16,1.86.39.66.25,1.28.65,2.02.3.26-.1.51-.2.77-.28.57-.17,1.1-.12,1.48.38.38.5.52,1.05.09,1.62-1.17,1.7-2.9,2.55-4.78,3.14-.73.23-1.38.62-2.01,1.01-.98.61-1.48,1.88-1.12,3,.63,2,.05,3.77-.9,5.48-.29.52-.63,1.01-.94,1.51,0-5.2,0-10.41,0-15.61Z"/>
  <path class="cls-183" d="M39.95,473.18c1.57-3.72,2.67-7.64,4.5-11.25.9-1.77,1.4-3.81,3.14-5.07.89,3.33,1.37,6.71,1.37,10.19-.76-.02-1.06-.59-1.45-1-.41-.44-.88-.72-1.47-.48-.55.23-.9.68-.86,1.3.11,1.73-.57,3.35-.72,5.05-.08.86-.51,1.6-1.4,1.87-.57.17-.77.64-1.05,1.06-.14.14-.3.13-.46.04-.32-.77-.85-1.34-1.6-1.71Z"/>
  <path class="cls-39" d="M26.1,345.54c-1.06,0-2.11,0-3.17.01-.68.53-1.47.22-2.21.31-.52,0-1.04-.05-1.54.13-1.12.14-2.08.97-3.28.73-.65-.39-1.29-.82-1.96-1.19,2.15-2.52,4.64-4.75,7.57-6.17,2.32-1.13,4.43-.51,5.15,2.32.34,1.33.18,2.65-.55,3.86Z"/>
  <path class="cls-128" d="M28.49,647.89c-.97,1.18-1.95,2.36-2.92,3.54-2.69,2.2-5.37,4.41-8.09,6.58-1.1.88-2.01,2.01-3.35,2.56-.58-.33-.62-.94-.79-1.49-.09-1.32.6-2.17,1.57-3,2.65-2.25,5.19-4.61,7.82-6.88,1.44-1.25,3.08-2.17,4.97-2.59.85.06,1.01.55.79,1.28Z"/>
  <path class="cls-121" d="M40.43,670.46c.26,2.4-.48,4.43-2.08,6.23-.81.91-1.4,2.02-1.79,3.2-.87,2.64-2.78,4.55-4.53,6.58-.54.43-1.13.37-1.73.17-.49-.38-.18-.83-.02-1.18,1.34-2.89,2.52-5.85,3.98-8.69,1.84-1.74,2.76-3.93,3.09-6.4.65-1.11,1.62-2,2.21-3.16.12-.24.34-.32.55-.05.37,1.07.99,2.12.32,3.3Z"/>
  <path class="cls-204" d="M13.62,517.8c-.86-.35-1.47-.99-1.71-1.87-.24-.88-.75-1.13-1.57-1,0-.07.02-.14.04-.21.76.06,1.3-.2,1.83-.83,2.71-3.19,5.64-6.16,9.25-8.35.49-.29.91-.95,1.57-.63.79.39-.05,1.09.18,1.61-.1,2.28-1.69,3.67-3.09,5.16-1.44,1.53-2.9,3.01-4.91,3.84-.91.38-1.28,1.36-1.58,2.27Z"/>
  <path class="cls-51" d="M10.75,537.99c-1.98,1.38-4.12,2.28-6.55,2.49-1.24.11-2.45,0-3.66-.17,1.15-1.66,2.92-2.41,4.7-3.04,2.3-.82,4.65-1.5,6.98-2.21,1.2-.37,2.09-1.25,3.13-1.88,2.97-1.8,4.5-1.33,5.32,2.04.26,1.06.8,2.3.1,3.46-.82-.04-.81-.73-.97-1.28-.38-1.34-.52-1.42-1.68-.84-.64-.71-1.4-.74-2.27-.52-1.16.29-2.23.77-3.24,1.39-.58.36-1.17.63-1.87.57Z"/>
  <path class="cls-13" d="M7.43,358.49c-.63.99-1.27,1.97-1.9,2.96-1.18.74-2.2,1.68-3.2,2.65-.48.46-1.06.91-1.8.39,0-1.12.07-2.25-.05-3.35-.16-1.43.36-2.51,1.3-3.53,2-2.17,4.23-4.08,6.34-6.12.64.56,1.22,1.17,1.81,1.79.14.56-.18.99-.42,1.43-.69,1.27-1.37,2.55-2.1,3.8Z"/>
  <path class="cls-170" d="M5.06,949.69c.87,0,1.74,0,2.61,0,2.06,0,2.78-.77,2.89-2.89.03-.59-.42-1.4.53-1.73,1.08,1.3,1.19,2.68.35,4.15-.13.23-.21.53-.2.79.06,1.92-.69,3.53-1.87,4.97-.95.63-2.01.36-3.02.32-1.39-.06-2.77-.22-4.16-.24-.6,0-1.19-.11-1.65-.58,0-1.03.01-2.07.02-3.1.11-.11.23-.24.39-.24,1.55.03,2.84-.69,4.12-1.44h0Z"/>
  <path class="cls-104" d="M7.92,565.55c-1.88,1.36-2.87,3.24-3.5,5.46-.61,2.16-2.03,3.82-3.87,5.1,0-1.69,0-3.39.01-5.08.68-2.7,1.64-5.31,2.61-7.91.46-.38.85-.85,1.42-1.07.78-.09,1.4-.54,2.05-.9.46-.25.92-.51,1.44-.16.57.39.69.97.56,1.59-.22,1-.64,1.95-.72,2.99Z"/>
  <path class="cls-76" d="M7.26,733.96c2.95-.14,4.2,1.91,4.39,5.67-.08,0-.16.03-.22.01-3.51-1.23-4.96-.76-7.14,2.3-.41.58-.83,1.16-1.28,1.72-.63.78-1.43,1.24-2.47,1.17-.09-.77,0-1.52.2-2.25-.24-.87.1-1.67.29-2.49,1.73-2.2,3.61-4.26,5.72-6.11.17,0,.34,0,.52-.01Z"/>
  <path class="cls-136" d="M30.15,686.47c.63,0,1.25,0,1.88,0,.25,1.55-.24,2.64-1.46,3.79-2.29,2.17-4.32,4.63-6.37,7.04-1.17,1.37-2.63,2.28-4.13,3.18-.73.44-1.08-.03-1.38-.6,1.33-2.25,3.15-4.14,4.66-6.26.66-.93,1.37-1.83,2.05-2.74,1.25-1.65,2.81-2.99,4.31-4.38.12-.11.29-.12.44-.02Z"/>
  <path class="cls-197" d="M9.07,589.04c.91.57,1.21,1.45,1.26,2.46.08,1.22-.42,2.19-1.25,3.03-.4.4-.8.8-1.2,1.2-.79.8-1.83,1.24-2.64,2.04-1.33,1.32-2.37,2.79-2.86,4.62-.08.31-.2.61-.45.83-.46.25-.83.69-1.39.75,0-.12-.02-.24-.03-.36-.17-2.63-.07-5.05,2.16-7.1,1.36-1.24,1.93-3.25,2.63-5.01.7-1.76,1.98-2.47,3.77-2.45Z"/>
  <path class="cls-35" d="M7.91,398.55c-3.06,4.49-5.19,9.45-7.37,14.39,0-3.6,0-7.2,0-10.8,1.38-.87,1.62-2.44,2.27-3.74.28-.56.54-1.12,1.03-1.53.62-.43,1.23-.09,1.81.09.78.25,1.62.37,2.32.84.16.27.13.52-.06.76Z"/>
  <path class="cls-123" d="M11.31,663.7c-.7,1.42-1.49,2.77-2.72,3.8-1,.97-1.88,2.02-2.36,3.35-2.03,2.11-3.94,4.29-5.08,7.05-.18.44-.4.86-.41,1.34-.46-.42-.21-.96-.21-1.44-.03-1.88-.01-3.76-.01-5.63,0-.4-.08-.87.42-.99,2.24-.55,2.89-2.63,4.14-4.18,1.3-1.62,2.23-3.6,4.1-4.73.2-.12.44-.17.66-.25.03.97.77,1.31,1.48,1.69Z"/>
  <path class="cls-59" d="M16.75,502.2c-.83.52-1.68,1-2.38,1.69-3.07.63-6.15,1.27-9.22,1.9-1.54.32-3.07.64-4.61.95,0-1.11,0-2.22,0-3.33,3.9-.27,7.67-1.13,11.4-2.28.79-.24,1.61-.42,2.41-.63,1.63-.42,2.65.3,2.4,1.69Z"/>
  <path class="cls-143" d="M32.12,776.94c-.25-.01-.5-.03-.75-.05-.38-.28-.28-.71-.34-1.09-.04-.27-.06-.58-.36-.69-.37-.14-.59.14-.8.37-.56.62-.96,1.36-1.51,1.98-.39.44-.77.95-1.49.64-.52-.51-.16-1.08-.1-1.63.08-.18.17-.35.25-.53.71-2.18,1.84-4.17,2.87-6.21.65-.94,1.29-1.87,1.94-2.81.14-.34.31-.65.72-.72.58-.17,1.03-1.1,1.48-.79.46.31.46,1.22.35,1.86-.41,2.49-.04,5.08-.9,7.5-.28.79-.57,1.65-1.36,2.15Z"/>
  <path class="cls-63" d="M.52,552.84c1.85-1.47,2.47-3.6,3.1-5.73.46-1.58,1.02-3.1,2.83-3.68.75-.24,1.46-.3,2.18.05.47.71,0,1.31-.27,1.89-.98,2.04-1.96,4.09-3.06,6.07-1.11,1.99-1.99,4.07-2.76,6.2-.26.73-.55,1.43-1.45,1.56-.43,0-.43-.36-.53-.64-.01-1.91-.03-3.82-.04-5.72Z"/>
  <path class="cls-99" d="M44.93,605.12c.97.21,1.32,1.13,1.96,1.72-.23.87-.63,1.52-1.57,1.86-.72.26-1.38.96-1.3,1.71.19,1.79-1.02,2.87-1.89,4.08-.59.83-1.28,1.6-1.92,2.4-.49.61-1.17.92-1.97.91-.61-.25-.54-.81-.56-1.3-.03-.74-.04-1.49.04-2.23.59-1.64,1.56-3.05,2.57-4.44,1.16-.63,1.95-1.57,2.44-2.8.24-.59.56-1.15,1.05-1.56.32-.27.64-.64,1.14-.35Z"/>
  <path class="cls-108" d="M9.82,750.08c.32.48-.1.77-.33,1.02-2.43,2.7-4.61,5.63-7.13,8.27-1.57,1.64-1.24,2.97.81,3.67-.2.19-.37.42-.6.57-.59.39-1.3.94-1.92.67-.43-.19-.14-1.09-.15-1.67-.02-2.02,0-4.05.01-6.07.66-1.56,1.95-2.64,2.94-3.94.37-.49.66-1.09,1.31-1.32.72,0,1.35-.27,1.99-.59.8-.39,1.65-.72,2.59-.65.15.01.31.03.46.04Z"/>
  <path class="cls-34" d="M15.08,491.39c-2.3.78-4.06,2.42-6.02,3.75-2.63,1.78-5.46,2.51-8.52,1.06-.03-.08-.02-.16,0-.23.31-.78,1.03-1.07,1.69-1.43,1.57-.85,3.2-1.6,4.79-2.39,1.4-.7,2.6-1.66,3.83-2.6.31-.11.62-.14.95-.14,1.03,0,2.07-.06,2.85.79.31.33.75.64.43,1.21Z"/>
  <path class="cls-47" d="M20.59,391.87c-.15,1.65.44,3.36-.27,4.94-.45,1-.42,2.24-1.39,2.99-.42-.37-.32-.87-.35-1.34-.09-1.8-.15-1.88-1.7-2.36-.21-.3-.2-.65-.24-1-.01-2.11-.05-4.22,0-6.33.03-1.27.12-2.55.9-3.64.3-.27.64-.47,1-.64.11-.05.23-.1.35-.13.52-.1.74-.52,1-.92.22-.33.46-.44.66.03-.18,2.47.08,4.91.28,7.36.03.36-.07.71-.24,1.03Z"/>
  <path class="cls-22" d="M15.55,788.15c.38,1.42-.04,2.78-.56,4.02-1.24,2.98-3.12,5.6-4.91,8.26-.71.75-1.41,1.49-2.12,2.24-.24.12-.45.35-.75.16-.41-.25-1.1-.2-1-.97,2.6-4.37,5.21-8.73,7.79-13.11.38-.64.84-.91,1.56-.61Z"/>
  <path class="cls-5" d="M24.18,580.19c-.41-.65-.81-1.3-1.22-1.95.71-1.26,1.98-1.91,3.1-2.67,2.28-1.55,4.68-2.9,7.4-3.57.98-.26,1.89-.23,2.69.5-.22,1.19-1.26,1.68-2.04,2.39-1.94.75-3.72,1.75-5.16,3.29-1.19.6-2.38,1.21-3.58,1.8-.37.18-.73.52-1.19.21Z"/>
  <path class="cls-84" d="M.55,474.13c.41-.15.8-.36,1.22-.45,1.73-.34,2.6.35,2.54,2.12-.04,1.5.49,2.88.73,4.32-1.56.67-1.67,2.06-1.7,3.49-.09.29-.26.53-.48.74-.73.49-1.28,1.33-2.32,1.27,0-3.83,0-7.67,0-11.5Z"/>
  <path class="cls-158" d="M36.11,572.67c-.79-.61-1.79-.38-2.66-.67.32-.46.7-.8,1.27-1.01,2.09-.77,3.89-2.14,5.88-3.05,2.54-1.16,4.9-2.77,7.65-3.45.14.69.53,1.15,1.23,1.3.14.53-.26.81-.58,1.08-.82.69-1.71,1.4-2.74,1.62-2.99.66-5.51,2.35-8.24,3.59-.58.26-1.09.82-1.83.59Z"/>
  <path class="cls-7" d="M14.59,455.17c-1.59.24-3.18.48-4.77.72-.5-.09-.9-.4-1.33-.63-.29-.15-.64-.36-.34-.8.59-1.83,2.09-2.49,3.76-2.87,1.85-.42,3.71-.78,5.56-1.16.36,1.37,1.62,1.21,2.59,1.54-.01.76-.86.83-1.14,1.38-.35.21-.75.24-1.13.26-1.29.07-2.25.8-3.21,1.55Z"/>
  <path class="cls-9" d="M22.96,367.83c-.09,1.94.16,3.81,1.16,5.52.21,2.22-.44,4.35-.8,6.5-.44,2.63-.92,5.25-1.04,7.92-.02.48.05.98-.48,1.26-.66-.85-.45-1.86-.31-2.75.29-1.85-.15-3.46-1.1-5-.3-1.69.24-3.32.41-4.97.26-2.45.79-4.87,1.39-7.27.12-.46.09-1.07.76-1.21Z"/>
  <path class="cls-26" d="M40.39,646.12c.63.17.99-.36,1.47-.58,1-.47,1.4-.28,1.69.88-.3,3.23.3,6.42.41,9.63.01.46.15.96-.18,1.39-1.29-.9-1.74-2.32-2.26-3.7-.3-.79-.44-1.75-1.53-1.93-1.27-.14-2.58.21-3.83-.25-.28-.28-.3-.57-.02-.87.25-.09.46.06.69.1,1.29.25,1.49.1,2.1-1.11.56-1.11.94-2.28,1.33-3.45.04-.04.09-.08.13-.12Z"/>
  <path class="cls-3" d="M8.64,421.83c-.02-.33-.04-.66-.06-.98-.18-.86.03-1.61.47-2.38.94-1.61,1.94-3.19,2.8-4.84.22-.42.46-.84.9-1.08.69-.17,1.37-.28,2.07-.07,1.13,1.95-.21,3.45-.97,5.02-.88,1.81-2.01,3.47-3.54,4.83-.66.18-1.19-.05-1.67-.48Z"/>
  <path class="cls-8" d="M.53,364.48c1.05.11,1.67-.58,2.31-1.23.77-.79,1.46-1.69,2.69-1.81.56,1.6.01,3.06-.62,4.48-.79,1.77-1.66,3.52-2.49,5.27-.63.44-1.25.47-1.88,0,0-2.24,0-4.48-.01-6.71Z"/>
  <path class="cls-144" d="M10.78,489.73c-1.3,1.71-3.25,2.44-5.06,3.39-1.75.92-3.6,1.63-5.19,2.85,0-.97,0-1.93,0-2.9,1.31-.83,2.38-1.94,3.53-2.96.78-.69,1.59-1.29,2.59-1.59,1.43.2,2.77.71,4.12,1.22Z"/>
  <path class="cls-96" d="M8.64,421.83c.6,0,1.13.26,1.67.48-.62,3.3-1.69,6.4-4.09,8.88-.93.82-1.6.7-2.6-.48.82-2.14,1.75-4.22,2.86-6.23.56-1.01,1.35-1.84,2.15-2.65Z"/>
  <path class="cls-172" d="M.54,288.91c1.87,1.43,3.89.99,5.92.48,1.21,0,2.42,0,3.63,0-2.8,2.5-5.67,4.73-9.54,5.01,0-1.83,0-3.66,0-5.49Z"/>
  <path class="cls-111" d="M.53,954.47c2.94.29,5.88.51,8.83.5.07.09.14.19.2.28,1.63,2.23,1.32,3.11-1.36,3.85-.64-1.04-1.61-1.23-2.75-1.18-1.65.07-3.31,0-4.9-.56,0-.96-.01-1.93-.02-2.89Z"/>
  <path class="cls-113" d="M14.82,412.47c-.66.41-1.39.18-2.08.24-.26-.22-.19-.5-.11-.76.84-2.72,1.68-5.44,2.51-8.17.09-.3.21-.6.52-.76,1.36.34,2.59,1.82,2.56,3.06-.09,1.35-.76,2.47-1.48,3.55-.63.95-1.28,1.89-1.92,2.83Z"/>
  <path class="cls-93" d="M.54,627.19c1.5-.96,3-1.91,4.5-2.87.12.11.23.24.24.4.15,2.34,1.73,3.18,3.73,3.66.75.18,1.6-.02,2.27.52-.47.26-1.04.31-1.41.8-.33.44-.8.42-1.29.23-2.67-1.03-5.35-.69-8.03-.07,0-.89,0-1.78,0-2.67Z"/>
  <path class="cls-137" d="M40.44,651.45c.51.23.8.71.96,1.16.6,1.71,1.29,3.37,2.38,4.83-.47,1.82-.24,3.68-.32,5.52-.95-.91-2.36-1.02-3.29-1.96-.27-2.22-.1-4.45-.11-6.67.05-.97-.28-2,.37-2.89Z"/>
  <path class="cls-126" d="M40.43,661.3c1.24.14,2.44.34,3.04,1.66.52,2.72-.42,4.98-2.18,7-.26.3-.49.47-.86.5.16-1.2-.43-2.29-.53-3.45-.21-.21-.31-.48-.27-.76.24-1.66.11-3.38.8-4.96Z"/>
  <path class="cls-112" d="M10.58,929.29c-1.37-.6-2.74-.88-4.11,0-1.95.46-3.92.83-5.92.96,0-1.06,0-2.13,0-3.19.29-.48.79-.57,1.25-.5,1.54.25,3.08.1,4.62.01,1.11.43,2.23.77,3.45.74.79-.02,1.35.44,1.41,1.32-.1.36-.33.59-.71.66Z"/>
  <path class="cls-155" d="M3.62,430.7c.83.34,1.58,1.17,2.6.48.07,1.19-.42,2.19-1.19,3.01-1.34,1.44-3,2.58-4.03,4.32-.07.11-.23.17-.46.32,0-1.93,0-3.7,0-5.48,1.02-.89,2.05-1.77,3.07-2.66Z"/>
  <path class="cls-83" d="M18.22,406.08c-.4-1.33-1.43-2.13-2.42-2.97-.46-.63-.1-1.3-.1-1.95,0-1.47.51-2.86.76-4.29.06-.32.19-.6.53-.72.98-.54,1.48-.2,1.76.85.25.94.05,1.87.17,2.8,0,1.45-.02,2.9-.01,4.36,0,.73-.13,1.4-.69,1.92Z"/>
  <path class="cls-37" d="M41.62,474.87c.13,0,.26-.02.39-.03-.08,1.58.34,3.07.82,4.55.8,2.46.35,3.4-2.13,4.07-.35.09-.55.24-.72.51-1.21-.9-1.65-2.12-1.47-3.59.14-.42.35-.77.7-1.06,1.24-1.02,2.06-2.28,2.14-3.94,0-.2.1-.38.27-.51Z"/>
  <path class="cls-73" d="M8.15,454.46c.18.92,1.46.54,1.67,1.43-1.88,2.06-4.2,3.29-6.95,3.74-.56.09-.72-.11-.75-.59.18-1.98,1.34-3.28,3.43-3.86.87-.24,1.74-.48,2.6-.72Z"/>
  <path class="cls-44" d="M9.84,353.21c-.86-.29-1.44-.86-1.71-1.74,1.7-2.21,3.55-4.27,5.8-5.94.88-.14,1.42.4,1.93.98-.25,1.08-1.21,1.64-1.84,2.43-1.05,1.35-2.27,2.56-3.39,3.86-.2.24-.41.51-.79.4Z"/>
  <path class="cls-109" d="M6.74,733.97c-1.64,2.2-3.72,4-5.47,6.1-.47-.3-.45-.89-.73-1.3-.01-2.3.57-4.29,2.75-5.5,1.58-.87,2.23-.76,3.45.7Z"/>
  <path class="cls-174" d="M.54,371.2c.63,0,1.25,0,1.88,0-.47,1.82-.15,3.61.15,5.41.3,1.8.06,3.57-.6,5.26-.24.62-.71,1.15-1.43,1.33,0-4,0-8,0-12Z"/>
  <path class="cls-80" d="M11.29,928.63c-.44-.82-1.11-1.22-2.04-1.05-1.05.19-1.89-.33-2.77-.73-.62-.26-1.31-.26-1.94-.48-.53-.18-1.21-.32-.93-1.17,1.54-1.18,3.32-1.4,5.16-1.2,1.93.21,3.52,3.18,2.52,4.63Z"/>
  <path class="cls-156" d="M28.49,647.89c-.11-.52-.26-1.02-.79-1.28.82-1.21,1.77-2.31,2.83-3.33,1.09-1.04,2.35-1.57,3.86-1.41-1.12,2.84-2.82,5.11-5.9,6.02Z"/>
  <path class="cls-124" d="M38.03,614.04c.09,1.25-.25,2.53.22,3.76-.78.52-1.57,1.04-2.35,1.57-1.01.7-1.85,1.5-1.63,2.92.04.29-.02.64-.31.86-.4-.92-.28-2.02-.97-2.85.48-2.75,2.28-4.57,4.37-6.17.18-.14.41-.26.66-.09Z"/>
  <path class="cls-24" d="M3.35,563.15c-.9,2.64-1.54,5.37-2.8,7.88,0-2.94,0-5.88,0-8.82.16-.47.41-.85.95-.93,1,.24,1.64.85,1.85,1.88Z"/>
  <path class="cls-117" d="M20.58,381.28c1.15,1.22,1.56,2.69,1.3,4.32-.18,1.14-.08,2.28-.08,3.42-.12,1.07-.46,2.05-1.21,2.85-.16-1.6-.32-3.2-.48-4.8-.14-1.31.15-2.59.22-3.88-.44-.71-.19-1.32.25-1.91Z"/>
  <path class="cls-67" d="M4.27,698.99c.24,2.84-.96,4.37-3.73,4.73,0-1.19,0-2.37,0-3.56,1.19-.56,2.29-1.44,3.74-1.18Z"/>
  <path class="cls-19" d="M8.2,960.19c-.62.99-1.68.86-2.6.96-1.69.2-3.37-.2-5.06-.21,0-.55,0-1.11,0-1.66,1.12-.56,6.47-.56,7.6,0,.02.31.04.61.06.92Z"/>
  <path class="cls-89" d="M8.14,959.28c-2.53,0-5.07,0-7.6,0,0-.64,0-1.28.01-1.91,2.13-.05,4.24.36,6.38.23,1.05-.07,1.16.74,1.28,1.51,0,.07-.02.13-.07.18Z"/>
  <path class="cls-28" d="M4.78,751.27c-1.28,1.87-2.8,3.54-4.25,5.27,0-1.45,0-2.9,0-4.35.21-.17.43-.32.62-.5,1.37-1.26,1.99-1.33,3.63-.41Z"/>
  <path class="cls-101" d="M11.31,663.7c-1.51-.12-1.84-.5-1.48-1.69.78-.89,1.94-1.41,2.45-2.59.16-.37.68-.31,1.07-.34.72.25.44,1.04.79,1.49-.78,1.19-1.77,2.19-2.82,3.13Z"/>
  <path class="cls-40" d="M.55,485.63c.7-.48,1.4-.95,2.11-1.43.4.69.67,1.47,1.4,1.91-.82,1.5-1.8,2.82-3.52,3.37,0-1.29,0-2.57,0-3.86Z"/>
  <path class="cls-198" d="M5.05,949.69c-1.16,1.47-2.75,1.79-4.5,1.68,0-1.04,0-2.09,0-3.13.98-.06,1.8.32,2.65.8.56.32,1.16.67,1.86.65Z"/>
  <path class="cls-20" d="M18.23,536.51c.37-.17-.03-.9.58-.85.55.05.87.41,1.1.92.31.69.05,1.62.87,2.09-.27,1.11-.72,2.19-.71,3.36-.68-1.07-.81-2.42-1.65-3.41-.28-.29-.34-.67-.45-1.03-.05-.39-.11-.79.26-1.08Z"/>
  <path class="cls-140" d="M20.13,452.08c-.36,0-.71-.02-1.07-.02-1.3-.03-1.57-.31-1.59-1.63,1.11-.1,2.22-.2,3.33-.3.68.53,1.69.55,2.15,1.42-.8.9-1.59,1.05-2.83.53Z"/>
  <path class="cls-110" d="M3.61,925.21c.08.71.63.87,1.17.93.65.07,1.2.3,1.69.72-1.55.21-3.1.3-4.65.04-.42-.07-.86-.03-1.26.16-.02-.23-.01-.47-.05-.7-.17-.96.26-1.22,1.17-1.12.64.07,1.3.26,1.94-.03Z"/>
  <path class="cls-71" d="M3.14,619.54c-.31,1.43-1.23,2.27-2.6,2.64,0-1.12,0-2.24,0-3.36.38-.38.84-.33,1.31-.24.49.24,1.21.16,1.29.95Z"/>
  <path class="cls-25" d="M1.94,618.82c-.46,0-.93,0-1.39,0,0-1.6,0-3.21,0-4.81,1.08.18,1.44.9,1.4,1.91.54.96.54,1.93,0,2.89Z"/>
  <path class="cls-194" d="M.54,421.35c2.31,2.03,1.9,4.05,0,5.75,0-1.92,0-3.83,0-5.75Z"/>
  <path class="cls-185" d="M1.46,561.44c-.3.26-.6.51-.9.77,0-1.21,0-2.43,0-3.64.14.17.28.33.43.5.72.68,1.05,1.44.47,2.38Z"/>
  <path class="cls-97" d="M.54,738.78c.52.28.72.73.73,1.3-.18.83-.36,1.66-.54,2.49-.48-1.24-.14-2.53-.19-3.79Z"/>
  <path class="cls-64" d="M32.54,766.21c-.24.24-.48.48-.72.72-.03-.53.29-.82.7-1.05,0,.11.01.22.02.33Z"/>
  <path class="cls-201" d="M8.42,821.33c1.38-4.54,3.74-8.56,6.42-12.42,1.04-1.49,2.07-3.02,2.49-4.84.11-.46.47-1.02-.33-1.26-.04-.43.34-.63.53-.93.39-.5.78-1,1.16-1.5.3-.55.46-1.23,1.16-1.46.45.2.85.46,1.2.79.04,1.53.27,1.7,1.67,1.07,1.96-.88,2.92-2.58,3.64-4.49.79-2.1,1.23-4.37,2.78-6.12.1-.11.16-.16.28-.04-.23,2.63-.99,5.15-1.6,7.7-1.1,4.65-2.43,9.23-3.99,13.75-1.75,5.08-3.87,10.02-6.06,14.92-1.43,3.19-3.17,6.14-5.8,8.5.2-1.41-.05-2.66-1.2-3.61-.61-1.23.02-2.26.62-3.23,1-1.63,2.1-3.21,3.1-4.84,1.8-2.92,3.06-6.03,3.33-9.71-1.14,1.12-1.73,2.37-2.37,3.57-.91,1.69-1.65,3.46-2.67,5.09-.67,1.06-1.47,1.99-2.52,2.68-.39.25-.8.59-1.28.14-.39-1.22-.03-2.55-.56-3.75Z"/>
  <path class="cls-191" d="M35.63,480.12c-.23,2.54-1.61,4.5-3.19,6.36-.38.45-.78.88-1.18,1.32-.85-.22-.87-1.03-1.15-1.65-.18-.39-.31-.81-.46-1.21-.04-.51.35-.77.63-1.09,1.18-1.36,2.06-2.87,2.42-4.77-2.49,1.1-4.25,3.06-6.43,4.4-1.57.57-3.06,1.41-4.75,1.65-1.95-.72-1.81-2.21-.27-3.23,1.05-.7,2.17-1.3,3.27-1.93,1.64-.96,3.12-2.16,4.68-3.24,1.64-1.14,3.37-2.07,5.3-2.57.37-.1.74-.33,1.12-.02,0,2,0,3.99,0,5.99Z"/>
  <path class="cls-199" d="M21.56,484.95c1.59-.57,3.17-1.14,4.76-1.7,1.01.11,1.35.8,1.45,1.69-2.1,2.07-4.64,3.43-7.33,4.53-1.75.72-3.57,1.29-5.36,1.92-.57-1.67-1.93-1.73-3.35-1.68-.02-.18.05-.32.22-.37,2.4-.73,4.56-2.03,6.88-2.95.97-.38,1.75-1.11,2.73-1.44Z"/>
  <path class="cls-157" d="M16.75,502.2c-.27-1.25-.82-1.64-2.4-1.69,2.25-1.92,5.06-2.32,7.81-2.86.43-.08.85-.16,1.28-.24-.53,2.65-3.49,4.77-6.68,4.79Z"/>
  <path class="cls-52" d="M27.76,484.94c-.44-.6-.74-1.33-1.45-1.69,2.13-1.71,4.21-3.49,6.69-4.72.06,1.81-.76,3.38-3.34,6.41-.63,0-1.27,0-1.9,0Z"/>
  <path class="cls-41" d="M36.33,650.71c-.26.19-.21.47-.2.73.31.78-.2,1.39-.49,2-1.44,3.07-3.4,5.81-5.28,8.61-.27.4-.6.74-1.08.88-.63.13-1.25.16-1.87-.03-.88-1.26-1.8-2.48-3-3.46-.09-.07-.05-.22,0-.34.5-1.47,1.69-2.44,2.57-3.64.95-1.31,2-2.54,2.69-4.03,1.38-.3,2.53-.9,3.44-2.08.94-1.22,2.21-2.13,3.37-3.15,1.32-1.16,2.6-.72,3.93-.09,0,0,.02.06.02.06-1.73,1.17-2.87,2.88-4.08,4.53Z"/>
  <path class="cls-175" d="M15.57,678.61c-.6-.79-1.57-1.33-1.62-2.51-.01-.34.03-.62.17-.9-.1-.25-.03-.48.11-.68.93-1.36.96-2.8.43-4.31-.11-.32-.26-.68,0-1.02,1.12.02,1.19-.88,1.37-1.62.44-1.85,1.4-3.34,3-4.36.97-.62,2.05-1,3.23-.97.15.33.02.63-.14.9-1.96,3.33-2.6,6.95-2.39,10.76.02.4,0,.79-.01,1.19-.38,2.29-1.6,3.56-3.59,3.75-.2-.02-.38-.08-.53-.23Z"/>
  <path class="cls-184" d="M19.43,675.26c-.36-4.63.2-9.05,2.82-13.03.78-.99,1.25-2.21,2.15-3.12.92,1.01,2.33,1.59,2.72,3.07.05.19.1.37.15.56.11.58-.28.98-.55,1.4-2.15,3.35-4.12,6.82-6.33,10.13-.26.39-.41.88-.96.99Z"/>
  <path class="cls-72" d="M14.66,669.19c.86,2.09,1.09,4.13-.53,6.01-.93-.57-1.16-1.69-1.9-2.41,0-.87-.02-1.75-.02-2.62,0-.74.1-1.56.8-1.85.72-.3,1.2.39,1.66.88Z"/>
  <path class="cls-86" d="M6.23,670.85c.09-1.61.9-2.71,2.36-3.35.92.11,1.73.35,1.71,1.52-.02,1.22-1.1,2.51-2.2,2.56-.7.03-1.42-.03-1.87-.73Z"/>
  <path class="cls-77" d="M59.77,570.83c-.99,5.35-2.61,10.48-5.07,15.34-1.23.77-2.47,1.54-3.98,1.59-.76-1.09-1.75-1.88-3.03-2.3-.33-.11-.63-.32-.75-.7.15-1.99,1.15-3.64,2.11-5.31,1.46-1.94,3.21-3.66,4.38-5.83,1.21-1.02,1.77-2.55,2.81-3.71.26-.29.27-.66.02-1-.24-.32-.57-.42-.95-.35-.32.05-.6.22-.91.3-.37.09-.77.34-1.04-.18-.27-1.08.15-1.92,1-2.49,1.15-.76,2.44-.71,3.65-.17,1.7.76,2.36,2.7,1.76,4.8Z"/>
  <path class="cls-167" d="M59.77,570.83c.05-.88-.03-1.74-.26-2.59-.65-2.41-3.36-2.63-4.83-1.9-1.01.5-1.23,1.49-1.13,2.55.12.73-.48,1.09-.82,1.58-.46.67-.95,1.33-1.46,1.97-.7.59-1.43,1.14-2.37,1.3-2.34-.9-4.42-.22-6.39,1.08-.64.42-1.33.71-2.12.66-.38,0-.76,0-1.14,0-.56-.01-1.13-.06-1.68.12-.31.07-.63.07-.94,0-.42-.14-.86-.15-1.3-.13-.55-.09-1.26.12-1.37-.76.72-.68,1.43-1.36,2.15-2.04,2.55-1.27,5.09-2.57,7.66-3.8,1.06-.51,2.32-.45,3.36-1.12.87-.56,1.71-1.14,2.36-1.96,2.33-1.05,4.84-1.39,7.3-1.92.5-.11,1-.21,1.49-.36,1.69-.53,2.57,0,2.85,1.75.13.78.17,1.57.25,2.36-.54,1.07-1.08,2.13-1.62,3.2Z"/>
  <path class="cls-32" d="M50.69,587.63c1.03-.09,1.86-.75,2.81-1.07.4-.13.75-.42,1.2-.39-.86,5.49-3.94,9.86-7.14,14.16-1,.61-2.06.38-3.11.22-.53-.28-.42-.75-.25-1.14.95-2.11,1.28-4.42,2.09-6.58.84-2.25,2.12-4.16,4.4-5.21Z"/>
  <path class="cls-92" d="M44.23,600.33c1.11,0,2.22,0,3.33,0-.14,2-.94,3.64-2.63,4.79-1.37.38-1.73,1.62-2.26,2.7-.49,1-1.15,1.78-2.23,2.14-.71.39-1.44.41-2.2.19-.67-.54-.2-1.1.04-1.58.86-1.66,1.76-3.29,2.4-5.05.99-1.08,2.18-1.95,3.1-3.1.1-.13.27-.15.43-.08Z"/>
  <path class="cls-53" d="M15.57,678.61h.46c.59.06.72.49.84.99.23.94.14,1.9.32,2.84.09.3.2.59.2.91-.84,1.97-2.09,3.68-3.31,5.42-.11.16-.3.25-.5.29-.87-.06-1.45-.46-1.61-1.36.5-1.66.89-3.37,1.94-4.8.62-.61.8-1.4.91-2.21.1-.75.39-1.42.75-2.06Z"/>
  <path class="cls-100" d="M12.17,687.61c.16.84.78,1.12,1.51,1.28.29.4.29.77-.07,1.13-.47,1.64-1.71,2.79-2.6,4.17-.63-.03-1.26-.05-1.89-.08.01-1.44-.2-2.88.1-4.3.16-.79.58-1.48,1.09-2.1.6-.45,1.21-.51,1.86-.1Z"/>
  <path class="cls-81" d="M7.67,686.12c.06.75-.33,1.39-.51,2.08-.18.69-.76.51-1.15.26-.63-.4-.99-1.01-.97-1.81.02-.88.04-1.76,0-2.64-.05-.92.32-.92.97-.54,1.02.6,1.79,1.34,1.67,2.65Z"/>
  <path class="cls-115" d="M12.17,687.61c-.62.03-1.24.06-1.86.1.38-.76.59-1.52.37-2.39-.38-1.53.34-2.41,1.93-2.45.43-.01.87,0,1.3.01-.58,1.58-1.16,3.15-1.74,4.73Z"/>
  <path class="cls-169" d="M21.56,484.95c-1.05,1.32-2.65,1.71-4.08,2.34-1.9.84-3.68,1.98-5.75,2.42-.31,0-.63.01-.94.02-1.5.03-2.83-.52-4.12-1.22,3.46-3.59,6.92-7.18,10.38-10.77.55-.57,1.08-1.15,1.62-1.73.22-.34.48-.62.81-.86,3.74-2.58,7.3-5.38,10.69-8.4.21-.18.39-.4.68-.47.18-.02.35.02.48.16.53.91,1.33,1.25,2.37,1.23.72-.01,1.49-.26,2.17.21-1.74,3.56-4.72,5.58-8.31,6.88-1.91.69-3.63,1.79-5.5,2.57-.26.11-.49.26-.7.45-.29.28-.61.57-.47,1.02.15.47.59.49.98.51.98.06,2-.03,2.76.8-.83.78-1.94,1.12-2.85,1.78-.16.11-.35.18-.51.29-1.31.97-1.25,1.55.27,2.74Z"/>
  <path class="cls-62" d="M24.64,480.13c-.95-.28-1.88-.59-2.9-.49-.54.05-1.05-.14-1.26-.7-.22-.6.21-.98.58-1.32.87-.79,2.03-1.04,3.04-1.56,1.97-.99,4.03-1.82,6.03-2.78,2.09-1,3.77-2.47,4.84-4.56.2-.38.34-.83.9-.84.81,0,1.38.56,1.98.97.65.44.48,1.12.15,1.71-.41.73-.94,1.36-1.56,1.93-.48.44-.84.95-.81,1.65-3.76.75-6.64,3.13-9.66,5.26-.41.29-.78.68-1.32.74Z"/>
  <path class="cls-36" d="M33.24,450.89c2.78-.04,5.55-.09,8.33-.13.34.53.74,1.03,1,1.59.56,1.18.36,1.57-1.22,2.59-2,.9-3.61,2.46-5.66,3.26-.4-.02-.66-.24-.85-.57-.04-.11-.06-.23-.05-.34.08-.56.13-1.11-.08-1.66-.39-1.31-1.17-2.43-1.83-3.6-.29-.51-.42-.98.37-1.14Z"/>
  <path class="cls-188" d="M35.66,458.08c.95-.61,1.91-1.21,2.85-1.84.88-.59,1.77-1.14,2.85-1.28,1.49.51,1.5.56.33,1.72-2.45,2.41-4.77,4.97-7.52,7.05-1.06.8-2.39,1.3-2.83,2.73-.17,0-.33-.02-.5-.03-.54-.65-1.01-1.39-1.91-1.6-.04-.91.68-1.41,1.09-2.08.35-.33.77-.57,1.19-.76,1.9-.83,3.33-2.18,4.46-3.9Z"/>
  <path class="cls-90" d="M41.62,474.87c.16,2.01-.78,3.49-2.23,4.73-.3.25-.58.52-.88.78-.01-1.05-.02-2.09-.03-3.14.49-1.35.98-2.71,1.47-4.06,1.22-.1,1.56.68,1.67,1.69Z"/>
  <path class="cls-130" d="M7.2,802.84c.25-.05.5-.11.75-.16-.03.48-.07.95-.07,1.43,0,1.48.59,2.08,2.08,2.12.9.03,1.77.06,2.03,1.19-.26,2.17-1.28,4.08-2.16,6.02-1.12,2.49-2.64,4.7-4.74,6.47-1.05-.72-1.32-1.83-1.47-2.99-.32-2.56.58-4.83,1.7-7.05,1.1-2.2,2.17-4.43,1.89-7.02Z"/>
  <path class="cls-2" d="M19.8,798.94c-.28.55-.68,1.02-1.12,1.44.55-1.56,1.07-3.14,1.65-4.69,1.02-2.74,2.08-5.47,3.12-8.21.13-.08.23-.06.32.06.28.94-.31,1.7-.56,2.51-.85,2.74-1.98,5.39-2.88,8.12-.1.3-.2.61-.53.76Z"/>
  <path class="cls-2" d="M23.72,787.49c-.09,0-.18,0-.27-.01.81-2.86,1.9-5.63,2.64-8.52.21-.83.05-1.77.66-2.49.08.55-.14,1.16.28,1.65.19.41,0,.78-.11,1.16-.74,2.4-1.63,4.74-2.41,7.13-.14.42-.2.97-.8,1.08Z"/>
  <path class="cls-29" d="M29.88,769.74c-.71,2.18-1.8,4.19-2.87,6.21-.28-1.28.68-2.16,1.08-3.2.41-1.08.96-2.14,1.79-3Z"/>
  <path class="cls-29" d="M17.52,801.88c.05.44-.18.72-.53.93-.16.03-.32.05-.48.08.21-.46.52-.82,1-1.01Z"/>
  <path class="cls-1" d="M1.46,561.44c.16-.86-.24-1.6-.47-2.38.48-.21.93-.44,1.1-1,1.35-4.47,3.96-8.34,5.87-12.55.3-.66.62-1.29.67-2.03,1.79-.29,2.87-1.57,3.82-2.93.64-.91.32-1.73-.7-2.19-.32-.14-.66-.25-.99-.37,1.81-.73,3.38-2.03,5.37-2.34.86-.13,1.78-.35,2.1.86,0,.39,0,.78-.01,1.17.01.35.15.74-.26.98-.75.46-1.04,1.26-1.47,1.96-.79,1.4-2.06,2.41-3,3.7-2.62,3.57-4.47,7.54-6.15,11.6-.76,1.84-1.48,3.7-2.19,5.57-.11.3-.22.61-.58.7-.32.43-.68.8-1.21.97-.57-.64-.96-1.48-1.9-1.71Z"/>
  <path class="cls-27" d="M4.56,562.18c1.63-4.18,3.15-8.41,5.23-12.4,1.77-3.39,3.73-6.65,6.68-9.17.24,3.03-.37,5.96-1.39,8.76-1.57,4.32-2.96,8.71-4.52,13.04-.49,1.36-1.12,2.64-2.65,3.14-.32-.56-.29-1.11-.01-1.7.22-.46.37-.96.47-1.46.1-.49,0-.95-.47-1.26-.44-.3-.71.11-1.06.23-.76.27-1.29,1.22-2.29.81Z"/>
  <path class="cls-159" d="M17.95,538.66c.09-.33.18-.65.26-.98.32.26.16.62.2.94-.15.01-.31.03-.46.04Z"/>
  <path class="cls-102" d="M9.84,353.21c2.01-2.23,4.01-4.46,6.02-6.69,1.18.13,2.12-.8,3.27-.77.42-.13.93-.28,1.21.07.36.45-.07.89-.31,1.29-.59.96-1.46,1.67-2.23,2.46-.91.95-1.77,1.93-2.29,3.16-.55.95-.6,2.18-1.62,2.87-1.38.12-2.36,1.01-3.35,1.82-.93.75-1.9,1.24-3.12,1.06.02-1.13.75-1.94,1.26-2.85.44-.78.95-1.53,1.16-2.42Z"/>
  <path class="cls-187" d="M13.9,370.75c.03-1.54-.05-3.07.17-4.61.15-1.02-.08-2.16-1.34-2.61.47-1.68.94-3.36,1.41-5.04.61-.63,1.22-.71,1.82.02.32,1.02.23,2.05.01,3.07-.3,1.4-.55,2.83-1.07,4.17-.58,1.5-.29,3.09-.54,4.61-.09.2-.2.38-.46.37Z"/>
  <path class="cls-129" d="M15.81,358.48c-.56-.4-1.12-.14-1.67,0-.01-.97-.03-1.94-.24-2.89.47-.96.94-1.93,1.42-2.89,1.88.32,2.76,1.72,2.06,3.42-.36.87-.4,2-1.56,2.35Z"/>
  <path class="cls-139" d="M11.28,628.9c-1.12.07-2.2-.15-3.27-.48-1.72-.53-3.18-1.57-2.96-4.1.39-.24.79-.48,1.18-.72.73-.62,1.68-.66,2.52-.98,2.32-.9,4.52-2.09,6.85-2.96.44-.17.89-.34,1.35-.44,2.06-.36,3.61.34,4.54,2.22.43.88,1.28,1.7.76,2.86-3.26,2.48-6.79,4.33-10.96,4.6Z"/>
  <path class="cls-151" d="M22.24,624.3c-.64-2.88-1.88-4.65-3.99-4.9-.47-.06-.84.12-1.26.13.03-1.01.8-1.4,1.55-1.73.88-.38,1.8-.54,2.78-.45,1.45.14,2.83-.21,4.15-.78.43-.19.93-.45.84-1.02-.1-.61-.7-.57-1.15-.6-.74-.04-1.51.17-2.21-.21-.34-.18-.89-.26-.61-.89,2.7-1.37,5.55-1.65,8.51-1.21.91.64,1.19,1.65,1.42,2.64.24,1.09.14,2.2.09,3.3-.02.36-.13.7-.52.85-1.34.91-2.67,1.82-4.01,2.73-1.69,1.15-3.55,1.87-5.58,2.11Z"/>
  <path class="cls-148" d="M31.83,619.45c.48-2.33.41-4.58-.98-6.63.19-.7.76-1.1,1.31-1.45.77-.48,1.36-1.19,2.15-1.64.39-.12.8-.17,1.16,0,.84.37,1.69.32,2.55.21.81,0,1.61.01,2.42.02-.81,1.36-1.61,2.72-2.42,4.08-2.19,1.42-3.9,3.23-4.69,5.8-.05.17-.22.31-.34.47-.35-.34-.68-.71-1.17-.85Z"/>
  <path class="cls-88" d="M13.9,370.75c.07-.09.15-.18.22-.27.72-.82,1.68-1.21,2.7-1.43,1.3-.28,2.14.36,2.16,1.67.05,4.31.02,8.63.01,12.94,0,.37-.07.71-.29,1.02-.25.15-.49.29-.74.44-.53.25-.61-.1-.65-.49-.03-.35-.01-.73-.23-1.03-.34-.46-.69-.56-.94.08-.11.29-.14.62-.34.88-.26.33-.68.67-.99.32-.44-.51-1.12-.78-1.41-1.44.44-.4.58-.85.53-1.48-.23-3.05-.47-6.1-.41-9.16.01-.56.07-1.11.35-1.61,0-.15.01-.3.02-.45Z"/>
  <path class="cls-14" d="M7.91,397.83c-1.43-.03-2.65-.91-4.07-.97,1.82-4.73,3.49-9.51,5.46-14.18.95-.11,1.54.4,1.95,1.18.18,1.48.2,2.96,0,4.44-.46.98-1.43,1.59-1.85,2.62-.64,1.56-.81,3.14-.57,4.81.12.83.28,1.79-.91,2.1Z"/>
  <path class="cls-75" d="M11.02,383.68c-.57-.33-1.14-.66-1.72-.99.88-2.71,1.74-5.43,2.66-8.13.42-1.24.95-2.43,1.93-3.36-.15,3.27.24,6.53.25,9.8,0,.31.11.62.18.93.19.84.18,1.57-.9,1.74-.8.52-1.59.5-2.39,0Z"/>
  <path class="cls-21" d="M1.94,618.82c0-.96,0-1.92,0-2.89,3.15-1.58,5.84-3.68,7.39-6.96,1.27-2.68,1.65-5.49,1.28-8.47-.25-2.08-.7-4.06-1.54-5.97.42-1.01.83-2.02,1.25-3.03,1.02-.34,1.9-.79,2.55-1.76.74-1.09,1.64-1,2.91.07.39,1.07.99,2.04,1.49,3.05.15,4.6.35,9.2-1.47,13.58-.15.37-.28.75-.49,1.09-3.16,3.91-6.22,7.91-10.39,10.84-.58.41-1.19.78-1.79,1.16-.27-.46-.88-.35-1.2-.72Z"/>
  <path class="cls-180" d="M1.93,603.21c.68-3.54,2.67-6.02,5.95-7.48-.24,1.2-.47,2.39-.72,3.59-.46,2.21-2.78,3.92-5.24,3.89Z"/>
  <path class="cls-192" d="M17.22,683.36c-.09-.24-.18-.48-.27-.72-.17-.37.02-.62.3-.79,1.13-.69,2.1-1.65,3.38-2.1.27-.06.55-.11.82-.06,2.99.52,4.54-2.66,4.23-5.1-.11-.83-.42-1.6-.58-2.42.16-1.51.85-2.81,1.69-4.04.56-.82,1.18-1.6,1.77-2.4.68-.92.77-1.99.85-3.06,1.81-2.1,3.17-4.51,4.63-6.86.85-1.38,1.57-2.82,2.09-4.36,1.44,0,2.87,0,4.31,0-.01.96-.03,1.91-.04,2.87-.19.21-.39.38-.66.5-1.79.84-2.29,1.76-2.02,3.78.24,1.79.26,3.56-.3,5.31-2.94,1.36-2.8,3.98-2.66,6.6,0,1.07.07,2.14-.06,3.2-.1,1.21-.7,2.1-1.6,2.92-1.34,1.22-2.04,2.92-2.89,4.49-.67,1.23-1.37,2.43-2.29,3.48-.56.63-1.11,1.36-2.09,1.39-2.17-.19-3.85-1.55-5.74-2.4-.93-.45-1.92-.15-2.87-.24Z"/>
  <path class="cls-162" d="M25.84,685.99c2.35-1.43,3.47-3.82,4.71-6.11.87-1.61,1.74-3.24,3.25-4.33.63-.45.14-1.17.63-1.57.62.96.48,1.93.02,2.9-1.43,3.19-2.87,6.39-4.3,9.58-1.58,1.47-3.17,2.94-4.75,4.41q-1.35-1.67-.08-3.62c.25-.38.62-.73.52-1.27Z"/>
  <path class="cls-98" d="M17.22,683.36c1-.4,2-.86,2.87.24.07,1.82-.06,3.63-.47,5.41-.46,2-1.91,2.91-3.88,2.34-.79-.23-2.06.15-2.13-1.32.02-.38.04-.75.07-1.13,1.18-1.84,2.36-3.69,3.54-5.53Z"/>
  <path class="cls-202" d="M11.02,383.68c.8,0,1.59,0,2.39,0,.45.09,1.1-.27,1.21.57.04.29.17.58.51.53.34-.05.54-.33.63-.65.16-.53-.23-1.52.84-1.31.93.18,1.16.98.98,1.86-.07.35.14.4.39.45-.9,1.02-.89,2.32-.94,3.54-.1,2.17-.04,4.35-.05,6.52-.03.82-.38,1.37-1.14,1.77-1.96,1.03-2.3,2.89-2.34,4.88-.02,1.39.07,2.78-.49,4.11-.46,1.09-1.13,2-2.01,2.76-.33.28-.67.58-1.16.4-1.72-.77-2.4-2.47-1.78-4.57.46-1.55,1.01-3.07,1.52-4.6.15-.45.32-.9.26-1.39-.26-.34-.13-.69.01-1.01,1.21-2.76,1.68-5.61,1.1-8.6-.03-.15.04-.31.08-.46,0-1.6,0-3.2,0-4.8Z"/>
  <path class="cls-11" d="M9.83,409.11c2.16-1.25,3.26-3.14,3.35-5.64.04-1.14.03-2.28.17-3.43.19-1.61,1.03-2.65,2.32-3.36.67-.37,1.12-.77,1.3-1.49,0,.32.02.64.03.96-.38,1.56-.77,3.12-.95,4.73-.09.74-.16,1.49-.24,2.23-.96,2.39-1.6,4.88-2.38,7.33-.24.75-.46,1.51-.69,2.27-1.21,2.08-2.41,4.16-3.62,6.23-.35.59-.58,1.2-.54,1.9-.73-1.6-.72-3.31-.66-5.02.22-.88.47-1.75,1.01-2.51.9-1.27,1.02-2.71.91-4.2Z"/>
  <path class="cls-125" d="M11.02,388.48c.86,2.46.59,4.89-.18,7.3-.3.94-.67,1.85-1.01,2.77-.64,0-1.27,0-1.91,0,0-.24,0-.48,0-.72.71-.62.72-1.36.59-2.25-.39-2.78.14-5.29,2.51-7.11Z"/>
  <path class="cls-56" d="M20.13,452.08c.99.07,1.94-.07,2.83-.53.88.12,1.81-.1,2.65.35.4.08.88-.04,1.1.47.13.36.1.72-.04,1.05-.63,1.5-.24,2.63,1.18,3.41.19.34.2.7.14,1.07-.33.9-1.09,1.46-1.68,2.14-1.44,1.65-2.87,3.3-4.38,4.89-.68.86-1.36,1.72-2.26,2.36-.33.23-.71.72-1.19.18-.33-1.51-.72-3-1.13-4.49-.17-.6-.36-1.24.12-1.81.81-1.4,1.62-2.8,2.44-4.18.34-.57.49-1.16.43-1.81.19-.83.01-1.43-.94-1.58-.22-.03-.44-.15-.56-.37.11-.75.67-.99,1.29-1.14Z"/>
  <path class="cls-147" d="M9.59,475.33c-1.16-.67-1.1-1.93-1.42-3-.09-.3-.1-.62-.19-.92-.55-1.86-1.49-2.34-3.27-1.66-.47.18-.96.55-1.41.06-.43-.47-.48-1.03-.31-1.67.31-1.18.74-2.35.61-3.6,2.98-.9,6.03-.31,9.05-.48.42.63-.09,1.13-.26,1.65-.7,2.17-.71,2.23,1.02,3.56.12.56-.34.84-.62,1.17-.58.67-.99,1.39-1,2.3-.44.57-.81,1.18-1.19,1.78-.24.37-.4.91-1.02.83Z"/>
  <path class="cls-46" d="M11.74,472.69c-.52-.84.1-1.43.5-2.03.32-.49.77-.89,1.17-1.33-.13-.36.08-.62.26-.87,1.33-1.84,1.76-3.98,2.03-6.17.05-.39,0-.81.34-1.11.48,0,.95,0,1.43,0-.12,1.43.54,2.7.83,4.04.18.81.44,1.6.37,2.45.3.41.05.77-.12,1.12-.77,1.54-1.41,3.12-1.83,4.8-.09.24-.29.38-.46.55-.58.37-.96,1-1.64,1.23-.78.33-1.14-.37-1.57-.74-.59-.51-1.32-.99-1.33-1.93Z"/>
  <path class="cls-133" d="M16.04,461.17c-.05,2.99-.67,5.79-2.63,8.16-1.64-.55-2.06-1.33-1.54-2.93.26-.79.53-1.57.79-2.35.34-1.5.64-3,1.03-4.49.15-.59.57-1.1,1.27-1,.66.09.83.6.86,1.22.02.47.14.93.22,1.39Z"/>
  <path class="cls-50" d="M18.84,453.23c.3.07.61.12.91.2,1.27.34,1.35.58.59,1.75-1.92,0-3.83,0-5.75,0,.89-1.8,2.61-1.79,4.25-1.94Z"/>
  <path class="cls-95" d="M9.11,825.15c2.21-.77,3.26-2.66,4.28-4.55,1.29-2.37,2.26-4.93,3.98-7.05.17-.21.24-.6.57-.51.41.12.25.55.22.83-.35,3.42-1.51,6.56-3.32,9.46-1.03,1.65-2.12,3.26-3.17,4.9-.61.96-1.01,1.99-.9,3.15-.16,0-.32,0-.48,0-.04-1.87-.31-2.03-2.39-1.43-.27-.25-.28-.57-.2-.89.35-1.35.7-2.69,1.4-3.91Z"/>
  <path class="cls-142" d="M34.21,609.94c-.87,1.25-2.34,1.8-3.36,2.88-2.95-.19-5.82.2-8.6,1.2-2.17.61-4.24,1.49-6.4,2.13-1.28.37-1.75.02-1.77-.98.23-1.55,1.3-2.61,2.26-3.71.83-.96,1.75-1.84,2.38-2.96.83-1.01,2.03-1.53,3.01-2.35,1.63-.85,2.94-2.22,4.66-2.93.62-.04,1.08.25,1.47.69.33.82.25,1.74.61,2.54.84,1.92,2.35,2.93,4.41,3.14.46.05.96-.07,1.34.34Z"/>
  <path class="cls-85" d="M14.08,615.17c0,.64.35.77.91.77,1.4-.02,2.56-.76,3.82-1.19,1.12-.38,2.22-.82,3.44-.72.73.54,1.5.87,2.42.57.57-.19,1.1.1,1.62.21.72.15.73,1.24-.01,1.7-1.44.91-3.07,1.31-4.73,1.19-1.88-.14-3.44.19-4.55,1.83-2.85.82-5.39,2.39-8.16,3.39-.85.31-1.7.6-2.61.69,1.07-3.58,3.28-6.13,6.79-7.46.51-.19.88-.45,1.07-.96Z"/>
  <path class="cls-152" d="M21.83,606.37c-.98.79-1.95,1.61-3.11,2.13-1.6-1.78-1.73-1.81-3.4-.97-.19-1.06.44-1.91.73-2.84.82-2.56.97-5.2.94-7.86-.01-1.39,0-2.78,0-4.17.72-.36,1.24.03,1.76.45.39,1.29.28,2.61.22,3.92-.09,2.02.5,3.7,2.27,4.83.29.42.17.89-.03,1.25-.69,1.27-.49,2.34.6,3.26Z"/>
  <path class="cls-82" d="M26.55,452.3c-.31-.13-.62-.26-.94-.4,1.75-1,3.58-1.63,5.64-1.28.66.11,1.32.18,1.99.27-.37.26-.43.48-.16.95.7,1.22,1.65,2.34,1.84,3.81.17.56.18,1.12,0,1.68,0,.08,0,.16,0,.24-.63.69-1.42.84-2.3.67-.3-.11-.53-.33-.76-.55-.66-.65-1.38-.64-2.16-.26-.62.3-1.19.79-1.96.62,0-.4,0-.8,0-1.2-.03-.6.4-1.01.66-1.49.87-1.62.63-2.24-1.12-2.74-.27-.08-.54-.13-.74-.34Z"/>
  <path class="cls-153" d="M23.72,787.49c1.11-3.12,2.21-6.24,3.32-9.36.95-.37,1.37-1.26,1.94-2,.12-.16.21-.34.34-.48.42-.42.71-1.22,1.44-.99.76.23.54,1.03.58,1.65.01.2.02.39.03.59-.68,1.2-1.34,2.42-2.06,3.6-2.19,3.58-3.48,7.56-4.9,11.47-.97,2.65-2.02,5.26-3.35,7.75-.62.06-.98-.28-1.25-.78.95-2.72,1.9-5.45,2.85-8.18.37-1.08.72-2.18,1.08-3.27Z"/>
  <path class="cls-16" d="M9.11,825.15c.03,1.23-.73,2.24-.95,3.41-.09.46-.31.9-.25,1.39-1.16.71-1.91-.45-2.87-.67-.31-.07-.6-.32-.97-.3,1.45-2.55,2.89-5.1,4.34-7.65.79.48.69,1.27.69,2.03,0,.6,0,1.2,0,1.8Z"/>
  <path class="cls-42" d="M16.27,474.13c.08-.16.16-.33.24-.49.61-.84,1.59-1.19,2.41-1.72,3.09-1.99,5.73-4.57,8.74-6.66.38-.26.71-.67,1.27-.5,1.2-.1,1.7.61,1.9,1.66-1.44,1.59-3.13,2.89-4.79,4.22-2.38,1.9-4.77,3.79-7.38,5.38-.32-1.23-1.09-1.91-2.39-1.88Z"/>
  <path class="cls-43" d="M11.74,472.69c.81,1.06,1.61,2.12,2.89,2.67-2.64,2.69-5.28,5.38-7.93,8.08-.87-.73-1.72-.62-2.61-.01-.28.19-.56.47-.97.3,0-.47,0-.94,0-1.42.02-1.4.49-1.93,1.91-2.18,2.64-.52,3.87-2.39,4.55-4.79.59-.43.83-1.11,1.21-1.69.24-.37.38-.89.94-.95Z"/>
  <path class="cls-122" d="M3.13,483.72c.64-.36,1.18-.9,1.92-1.08.78-.19,1.38-.07,1.65.79-.88.9-1.77,1.79-2.65,2.69-1.23-.07-1.37-.95-1.4-1.91.16-.16.32-.32.48-.49Z"/>
  <path class="cls-106" d="M20.58,381.28c-.08.64-.17,1.27-.25,1.91-.46.5-.32,1.6-1.43,1.46-.22-.37-.11-.78-.11-1.17-.03-4.59.05-9.19-.05-13.78,0-.25,0-.48.1-.7,1.39-3.16,1.65-6.56,2.04-9.93.45-3.85.55-7.72.54-11.6,0-.81-.48-1.29-.82-1.88.77-.01,1.55-.03,2.32-.04.01,7.43.02,14.85.03,22.28-1,2.95-1.43,6.01-1.89,9.07-.22,1.45-.33,2.92-.48,4.38Z"/>
  <path class="cls-18" d="M24.18,580.19c1.64-.62,3.07-1.68,4.75-2.2.49.79.04,1.55-.13,2.29-.25,1.11-.34,2.2-.19,3.32.06.44.17.89.68,1.02.45.11.75-.19,1-.51.55-.68,1.16-1.31,1.8-1.91,1.16-1.07,2.51-1.27,3.81-.4.81.54,1.65.91,2.57,1.14.14.14.17.31.12.5-.18.32-.52.33-.82.4-.79.16-1.37.6-1.75,1.3-1.34,2.47-3.29,4.46-5.14,6.52-1.2,1.32-2.42,2.62-3.55,4-.22.28-.45.56-.79.7-.18.05-.36.04-.52-.04-.33-.22-.43-.56-.46-.93-.35-4.15-2.6-7.09-5.94-9.32-.17-.11-.34-.21-.45-.39.82-1.92,2.37-3.17,3.96-4.39.4-.3.7-.74,1.04-1.12Z"/>
  <path class="cls-12" d="M19.18,585.71c1.53.33,2.53,1.46,3.5,2.52,1.42,1.56,2.43,3.4,3.01,5.47.24.86-.1,1.78.4,2.57.1.69-.48,1.05-.78,1.53-.8,1.28-1.72,2.48-2.81,3.53-.34.33-.66.71-1.2.68-1.63-.55-2.57-1.97-2.61-3.98-.03-1.63-.02-3.26-.03-4.89-.17-.22-.3-.47-.32-.75-.08-1.74-.1-3.47,0-5.21.02-.35.12-.7.34-1,.17-.16.33-.32.5-.48Z"/>
  <path class="cls-103" d="M18.68,586.19c0,2.32-.02,4.64-.03,6.96-.55-.16-1.09-.32-1.64-.48-.75-.8-1.34-1.68-1.22-2.86,1.28-.95,1.66-2.63,2.88-3.62Z"/>
  <path class="cls-33" d="M20.61,345.59c1.04.11,1.22.72,1.19,1.69-.08,3.22.13,6.46-.29,9.67-.5,3.8-.46,7.71-2.02,11.3-.53,1.23-.59,2.44-.59,3.7,0,4.23,0,8.46,0,12.69-.07,0-.14.02-.21.04-.01-4.58-.02-9.17-.03-13.75,0-1.47-.63-1.94-2.02-1.48-.86.29-1.68.68-2.52,1.02-.43-2.79.69-5.35,1.29-7.97.31-1.34.43-2.67.4-4.03.57-.58.84-1.32,1.14-2.05.7-1.73.53-2.31-1.06-3.3-.2-.13-.39-.27-.58-.41.19-1.25,1.14-2.03,1.87-2.92.8-.97,1.88-1.69,2.55-2.78.2-.33.62-.64.46-1.03-.19-.44-.71-.13-1.07-.23.46-.34.97-.19,1.47-.16Z"/>
  <path class="cls-49" d="M37.3,663.92c.48-2.31.03-4.64.13-6.96.07-1.5.97-2.26,2.39-2.48.19-.03.38-.11.57-.16,0,2.33.02,4.66.03,6.99-.18,1.9-.35,3.81-.53,5.71-.48,1.35-1.49,2.32-2.38,3.38-.14.07-.27.04-.37-.08-.9-2.15-1.08-4.29.15-6.39Z"/>
  <path class="cls-177" d="M37.3,670.38c.07,0,.15.01.22.01-.11,2.6-1.12,4.77-3.08,6.5,0-.97-.01-1.94-.02-2.9,0-1.2.01-2.39.02-3.59.95-.55,1.9-.54,2.86-.02Z"/>
  <path class="cls-168" d="M38.51,583.06c-.88.03-1.64-.05-2.38-.74-1.22-1.13-2.74-.95-3.92.23-.53.53-1.09,1.06-1.54,1.66-.38.49-.74,1.01-1.4.89-.83-.15-.93-.92-1.01-1.58-.2-1.65.24-3.23.59-4.82.05-.23.06-.47.09-.7,1.21-1.82,3.12-2.55,5.03-3.28.34.6.92.39,1.43.44.36.28.83-.04,1.2.23.32,0,.64,0,.96,0,.53-.29,1.15.08,1.67-.23.4,0,.79,0,1.19,0,.51.15.81.47.8,1.02-.02,1.23.36,2.42.26,3.65,0,.47.02.94-.12,1.39-.78.87-1.63,1.64-2.84,1.86Z"/>
  <path class="cls-161" d="M36.33,650.71c.55-1.93,2.1-3.09,3.41-4.42.13-.13.44-.07.67-.1.01,1.76-1.06,3.13-1.66,4.66-.25.64-1.83.49-2.42-.14Z"/>
  <path class="cls-45" d="M29.42,662.66c.72,1.52-.14,2.68-.97,3.75-1.34,1.73-2.59,3.48-3.1,5.66-.17.22-.21.52-.42.71-1.89,1.65-2.69,3.94-3.65,6.15-.18.4-.35.8-.72,1.06-1.19.9-2.61,1.49-3.6,2.66-.39-.97-.12-2.03-.4-3.04-.11-.4-.19-.74-.52-1,1.77-.16,2.91-1.29,3.39-3.34,2.62-4.17,5.23-8.35,7.85-12.52.72-.03,1.43-.05,2.15-.08Z"/>
  <path class="cls-141" d="M44.23,600.33c-1.05,1.11-1.97,2.36-3.34,3.12-.62-.17-.73-.67-.77-1.21-.05-.64-.03-1.28.04-1.91.04-.35.14-.75-.26-.96-.36-.19-.71-.03-1.01.17-.84.54-1.61,1.18-2.54,1.55-1.31.52-2.24.05-2.61-1.31.39-1.14,1.24-1.93,2.05-2.74,2.5-2.52,5.05-4.98,7.03-7.97.58-.87.99-1.82,1.52-2.71.8-.75,1.6-1.5,2.77-1.6.4.4.93.54,1.44.75,1,.41,1.88.96,2.15,2.13-.46.78-1.36,1.06-1.94,1.72-1.1,1.24-1.95,2.6-2.38,4.21-.61,2.29-1.31,4.56-2.14,6.78Z"/>
  <path class="cls-149" d="M47.11,584.75c-.88.56-1.75,1.11-2.63,1.67-.66-.55-1.53-.84-1.91-1.7-.02-1.33-.86-2.29-1.46-3.37,0-.46.01-.92.02-1.38,1.61-1.23,3.28-2.34,5.22-3,.95.87,1.75,1.91,2.93,2.51-.88,1.69-1.8,3.37-2.18,5.27Z"/>
  <path class="cls-78" d="M49.28,579.48c-1.49-.17-2.21-1.26-2.89-2.41-.12-.29.08-.46.26-.6.94-.71,1.72-1.52,2.02-2.71.04-.15.23-.21.37-.29.7-.41,1.41-.82,2.11-1.23,1.12-.1,1.93.4,2.43,1.48-.7,1.67-1.95,2.95-3.06,4.33-.4.49-.83.95-1.24,1.43Z"/>
  <path class="cls-164" d="M53.59,573.73c-.73-.63-1.44-1.28-2.43-1.48.8-1.12,1.6-2.25,2.4-3.37.55-.22,1.09-.47,1.65-.64.47-.15.95-.1,1.27.36.22.32.58.71.26,1.06-1.15,1.28-1.64,3.07-3.14,4.07Z"/>
  <path class="cls-196" d="M49.04,573.48c-.24,1.68-1.41,2.66-2.65,3.59-1.81.85-3.39,2.14-5.25,2.89-.08-1.31-.19-2.61-.23-3.92-.01-.43-.27-.64-.5-.9.83.18,1.45-.3,2.07-.7,2.05-1.31,4.18-2.01,6.56-.97Z"/>
  <path class="cls-196" d="M39.22,575.15c-.51.45-1.12.15-1.67.23.51-.45,1.12-.15,1.67-.23Z"/>
  <path class="cls-196" d="M36.59,575.38c-.4-.05-.86.16-1.2-.23.4.05.86-.16,1.2.23Z"/>
  <path class="cls-48" d="M33.96,599.62c.25,1.19.93,1.63,2,1.27.95-.31,1.74-.9,2.52-1.51.52-.4,1.11-.73,1.73-.38.62.35.26.95.24,1.49-.03,1-.34,2.07.44,2.96-.31,1.8-1.33,3.29-2.14,4.86-.28.53-.46,1.09-.72,1.62-.58.6-1.28.64-1.96.31-.6-.29-1.21-.33-1.85-.3-2.45.12-4.52-.53-5.8-2.83-.56-1-.66-2.09-.67-3.2-.15-.45.08-.8.37-1.06,1.68-1.56,3.68-2.55,5.85-3.23Z"/>
  <path class="cls-165" d="M32.53,458.06c.86.13,1.59-.33,2.39-.48.25.17.49.33.74.5-.51,1.77-1.85,2.77-3.33,3.63-.71.41-1.45.77-2.18,1.15-.77.41-1.41.34-1.84-.49.34-1.39,1.45-2.23,2.4-3.14.5-.48.94-1.22,1.82-1.18Z"/>
  <path class="cls-165" d="M34.92,457.34c0-.56,0-1.12,0-1.68.37.56.37,1.12,0,1.68Z"/>
  <path class="cls-105" d="M28.46,462.13c.27.93,1.05.66,1.68.73-.4.63-.81,1.27-1.21,1.9-2.35,1.41-4.32,3.32-6.49,4.97-1.89,1.44-3.79,2.85-5.93,3.91.18-2.19,1.45-3.98,2.17-5.98,1.27-.71,2.13-1.86,3.1-2.89,2.2.06,3.84-1.27,5.61-2.27.33-.19.63-.52,1.08-.37Z"/>
  <path class="cls-119" d="M20.55,679.98c1.17-2.9,2.11-5.94,4.8-7.91.43,1.24.9,2.48.68,3.82-.41,2.45-1.49,4.6-5.48,4.09Z"/>
  <path class="cls-182" d="M37.3,670.38c-.95,0-1.91.01-2.86.02,0-.88,0-1.76,0-2.64,0-2.09.81-3.17,2.87-3.85-.63,2.15-.65,4.31,0,6.46Z"/>
  <path class="cls-134" d="M28.46,462.13c-1.32.79-2.66,1.56-3.97,2.37-.87.54-1.76.66-2.71.27,1.99-2.24,3.98-4.48,5.97-6.72.67-.33,1.33-.68,2-1,1.1-.53,1.77-.29,2.78.99-1.58,1.14-2.85,2.57-4.07,4.08Z"/>
  <path class="cls-94" d="M26.55,452.3c2.26,0,3.56.9,2.01,3.39-.25.4-.54.78-.81,1.17-1.6-.54-2-1.26-1.56-2.84.16-.57.44-1.1.37-1.72Z"/>
  <path class="cls-190" d="M33.96,599.62c-1.52,1.13-3.45,1.53-4.91,2.8-.52.45-1.01.87-1.3,1.5-.53.01-.85-.62-1.43-.45-.35-2.52.89-4.38,2.49-6.1.89-.29,1.52-1.13,2.51-1.21.72.34,1.38.16,2.03-.23,3.21-1.96,5.59-4.66,7.23-8.05.34-.69.14-1.31-.04-1.96.53-.82,1.37-1.04,2.26-1.17.36.77,1.55.69,1.69,1.68-.67,2.14-2.12,3.79-3.45,5.5-2.15,2.76-4.99,4.87-7.07,7.7Z"/>
  <path class="cls-79" d="M28.94,597.46c-1.46,1.74-2.41,3.71-2.63,6-1.52.94-2.89,2.1-4.49,2.92-1.37-.61-1.67-1.28-1.17-2.58.22-.59.42-1.19.64-1.78,2.05-1.54,3.27-3.77,4.78-5.75.16,0,.32,0,.47,0,1.44-.55,2.38-.08,2.39,1.2Z"/>
  <path class="cls-23" d="M28.94,597.46c-.34-1.31-1.4-1.19-2.39-1.2,1.63-2.32,3.68-4.27,5.56-6.37,1.35-1.52,2.65-3.06,3.63-4.85.6-1.1,1.53-1.56,2.74-1.54.73.69.81,1.62.91,2.54-.55,1.35-1.56,2.38-2.46,3.48-1.49,1.81-2.93,3.66-4.37,5.51-.36.46-.66,1-1.26,1.23-.82.32-1.36,1.21-2.35,1.21Z"/>
  <path class="cls-38" d="M39.21,586.17c-.24-.89-.49-1.78-.73-2.67,0-.14.02-.29.02-.43.87-.56,1.65-1.28,2.61-1.71,1.25.78,1.7,1.97,1.68,3.39-.59.63-1.56.59-2.14,1.22-.43.39-.89.61-1.44.21Z"/>
  <path class="cls-65" d="M39.21,586.17c.48-.07.96-.14,1.44-.21.61.41.62,1.02.37,1.58-1.7,3.86-4.36,6.86-8.05,8.91-.52.29-1.2.59-1.67-.2,2.29-3.23,4.93-6.19,7.33-9.33.19-.25.39-.5.59-.74Z"/>
</svg>