<?xml version="1.0" encoding="UTF-8"?>
<svg id="Capa_1" data-name="Capa 1" xmlns="http://www.w3.org/2000/svg" viewBox="0 0 49.09 653.5">
  <defs>
    <style>
      .cls-1 {
        fill: #e8918f;
      }

      .cls-1, .cls-2, .cls-3, .cls-4, .cls-5, .cls-6, .cls-7, .cls-8, .cls-9, .cls-10, .cls-11, .cls-12, .cls-13, .cls-14, .cls-15, .cls-16, .cls-17, .cls-18, .cls-19, .cls-20, .cls-21, .cls-22, .cls-23, .cls-24, .cls-25, .cls-26, .cls-27, .cls-28, .cls-29, .cls-30, .cls-31, .cls-32, .cls-33, .cls-34, .cls-35, .cls-36, .cls-37, .cls-38, .cls-39, .cls-40, .cls-41, .cls-42, .cls-43, .cls-44, .cls-45, .cls-46, .cls-47, .cls-48, .cls-49, .cls-50, .cls-51, .cls-52, .cls-53, .cls-54, .cls-55, .cls-56, .cls-57, .cls-58, .cls-59, .cls-60, .cls-61, .cls-62, .cls-63, .cls-64, .cls-65, .cls-66, .cls-67, .cls-68, .cls-69, .cls-70, .cls-71, .cls-72, .cls-73, .cls-74, .cls-75, .cls-76, .cls-77, .cls-78, .cls-79, .cls-80, .cls-81, .cls-82, .cls-83, .cls-84, .cls-85, .cls-86, .cls-87, .cls-88, .cls-89, .cls-90, .cls-91, .cls-92, .cls-93, .cls-94, .cls-95, .cls-96, .cls-97, .cls-98, .cls-99, .cls-100, .cls-101, .cls-102, .cls-103, .cls-104, .cls-105, .cls-106, .cls-107, .cls-108, .cls-109, .cls-110, .cls-111, .cls-112, .cls-113, .cls-114, .cls-115, .cls-116, .cls-117, .cls-118, .cls-119, .cls-120, .cls-121, .cls-122, .cls-123, .cls-124, .cls-125, .cls-126, .cls-127, .cls-128, .cls-129, .cls-130, .cls-131, .cls-132, .cls-133, .cls-134, .cls-135, .cls-136, .cls-137, .cls-138, .cls-139, .cls-140, .cls-141, .cls-142, .cls-143, .cls-144, .cls-145, .cls-146, .cls-147, .cls-148, .cls-149, .cls-150, .cls-151, .cls-152, .cls-153, .cls-154, .cls-155, .cls-156, .cls-157, .cls-158, .cls-159, .cls-160, .cls-161, .cls-162, .cls-163, .cls-164, .cls-165, .cls-166, .cls-167, .cls-168, .cls-169, .cls-170, .cls-171, .cls-172, .cls-173, .cls-174, .cls-175, .cls-176, .cls-177, .cls-178, .cls-179, .cls-180, .cls-181, .cls-182, .cls-183, .cls-184, .cls-185, .cls-186, .cls-187, .cls-188, .cls-189, .cls-190, .cls-191, .cls-192, .cls-193, .cls-194, .cls-195, .cls-196, .cls-197, .cls-198, .cls-199, .cls-200, .cls-201, .cls-202, .cls-203, .cls-204, .cls-205, .cls-206, .cls-207, .cls-208, .cls-209, .cls-210, .cls-211, .cls-212, .cls-213, .cls-214, .cls-215, .cls-216, .cls-217, .cls-218, .cls-219 {
        stroke-width: 0px;
      }

      .cls-2 {
        fill: #60554e;
      }

      .cls-3 {
        fill: #7d5c5a;
      }

      .cls-4 {
        fill: #c5caa8;
      }

      .cls-5 {
        fill: #cf6c5b;
      }

      .cls-6 {
        fill: #e98c7a;
      }

      .cls-7 {
        fill: #ea8055;
      }

      .cls-8 {
        fill: #a6ae8b;
      }

      .cls-9 {
        fill: #5c6059;
      }

      .cls-10 {
        fill: #ec8b7d;
      }

      .cls-11 {
        fill: #a14336;
      }

      .cls-12 {
        fill: #e78779;
      }

      .cls-13 {
        fill: #dc9080;
      }

      .cls-14 {
        fill: #e79c8f;
      }

      .cls-15 {
        fill: #eb8573;
      }

      .cls-16 {
        fill: #eb825a;
      }

      .cls-17 {
        fill: #d18b7b;
      }

      .cls-18 {
        fill: #9d4f3d;
      }

      .cls-19 {
        fill: #8e4232;
      }

      .cls-20 {
        fill: #e8917e;
      }

      .cls-21 {
        fill: #dc8463;
      }

      .cls-22 {
        fill: #b7563d;
      }

      .cls-23 {
        fill: #a24637;
      }

      .cls-24 {
        fill: #ea9b82;
      }

      .cls-25 {
        fill: #dcaaa4;
      }

      .cls-26 {
        fill: #d88781;
      }

      .cls-27 {
        fill: #ea9284;
      }

      .cls-28 {
        fill: #5a613c;
      }

      .cls-29 {
        fill: #a94f3c;
      }

      .cls-30 {
        fill: #c2736a;
      }

      .cls-31 {
        fill: #ec9b8d;
      }

      .cls-32 {
        fill: #f4a89d;
      }

      .cls-33 {
        fill: #de8774;
      }

      .cls-34 {
        fill: #f29d90;
      }

      .cls-35 {
        fill: #ba6e5f;
      }

      .cls-36 {
        fill: #c86050;
      }

      .cls-37 {
        fill: #5f4f4e;
      }

      .cls-38 {
        fill: #53413e;
      }

      .cls-39 {
        fill: #a44528;
      }

      .cls-40 {
        fill: #ead8c3;
      }

      .cls-41 {
        fill: #663423;
      }

      .cls-42 {
        fill: #8d5c57;
      }

      .cls-43 {
        fill: #515157;
      }

      .cls-44 {
        fill: #ef9c8d;
      }

      .cls-45 {
        fill: #4c362e;
      }

      .cls-46 {
        fill: #dc928d;
      }

      .cls-47 {
        fill: #7f3d2d;
      }

      .cls-48 {
        fill: #5c5e55;
      }

      .cls-49 {
        fill: #ebdbb9;
      }

      .cls-50 {
        fill: #f3d0b2;
      }

      .cls-51 {
        fill: #505856;
      }

      .cls-52 {
        fill: #5f5a54;
      }

      .cls-53 {
        fill: #db7260;
      }

      .cls-54 {
        fill: #555d39;
      }

      .cls-55 {
        fill: #dc8d7e;
      }

      .cls-56 {
        fill: #c26554;
      }

      .cls-57 {
        fill: #c16851;
      }

      .cls-58 {
        fill: #434246;
      }

      .cls-59 {
        fill: #e08870;
      }

      .cls-60 {
        fill: #da987c;
      }

      .cls-61 {
        fill: #e98466;
      }

      .cls-62 {
        fill: #c56d68;
      }

      .cls-63 {
        fill: #4a342d;
      }

      .cls-64 {
        fill: rgba(255, 255, 255, 0);
      }

      .cls-65 {
        fill: #e29981;
      }

      .cls-66 {
        fill: #e8d6c0;
      }

      .cls-67 {
        fill: #c1bdc1;
      }

      .cls-68 {
        fill: #8f8853;
      }

      .cls-69 {
        fill: #633d37;
      }

      .cls-70 {
        fill: #efe9c6;
      }

      .cls-71 {
        fill: #52535c;
      }

      .cls-72 {
        fill: #da8275;
      }

      .cls-73 {
        fill: #f5deb8;
      }

      .cls-74 {
        fill: #683e41;
      }

      .cls-75 {
        fill: #d88d7a;
      }

      .cls-76 {
        fill: #b45d56;
      }

      .cls-77 {
        fill: #f09c9b;
      }

      .cls-78 {
        fill: #ae5236;
      }

      .cls-79 {
        fill: #cc9887;
      }

      .cls-80 {
        fill: #ea9d8d;
      }

      .cls-81 {
        fill: #eb826d;
      }

      .cls-82 {
        fill: #cca687;
      }

      .cls-83 {
        fill: #ecdebf;
      }

      .cls-84 {
        fill: #cd8b88;
      }

      .cls-85 {
        fill: #853e2e;
      }

      .cls-86 {
        fill: #735650;
      }

      .cls-87 {
        fill: #b96c65;
      }

      .cls-88 {
        fill: #c2bc92;
      }

      .cls-89 {
        fill: #e07170;
      }

      .cls-90 {
        fill: #3b3135;
      }

      .cls-91 {
        fill: #c46f61;
      }

      .cls-92 {
        fill: #6c1f24;
      }

      .cls-93 {
        fill: #e89173;
      }

      .cls-94 {
        fill: #eb827f;
      }

      .cls-95 {
        fill: #5f4c58;
      }

      .cls-96 {
        fill: #c96b67;
      }

      .cls-97 {
        fill: #554040;
      }

      .cls-98 {
        fill: #dc7568;
      }

      .cls-99 {
        fill: #e06f58;
      }

      .cls-100 {
        fill: #de8772;
      }

      .cls-101 {
        fill: #554949;
      }

      .cls-102 {
        fill: #d36b5f;
      }

      .cls-103 {
        fill: #f1f3d8;
      }

      .cls-104 {
        fill: #423d38;
      }

      .cls-105 {
        fill: #524e47;
      }

      .cls-106 {
        fill: #ba665d;
      }

      .cls-107 {
        fill: #995046;
      }

      .cls-108 {
        fill: #97452a;
      }

      .cls-109 {
        fill: #cb7a71;
      }

      .cls-110 {
        fill: #584346;
      }

      .cls-111 {
        fill: #e2b7ac;
      }

      .cls-112 {
        fill: #b64d3f;
      }

      .cls-113 {
        fill: #816763;
      }

      .cls-114 {
        fill: #49454d;
      }

      .cls-115 {
        fill: #e49381;
      }

      .cls-116 {
        fill: #394e53;
      }

      .cls-117 {
        fill: #3e3d3f;
      }

      .cls-118 {
        fill: #4b535f;
      }

      .cls-119 {
        fill: #c66c5a;
      }

      .cls-120 {
        fill: #df7367;
      }

      .cls-121 {
        fill: #c2673f;
      }

      .cls-122 {
        fill: #a9564b;
      }

      .cls-123 {
        fill: #eb8072;
      }

      .cls-124 {
        fill: #eb8579;
      }

      .cls-125 {
        fill: #727e5a;
      }

      .cls-126 {
        fill: #e38a7e;
      }

      .cls-127 {
        fill: #564c4f;
      }

      .cls-128 {
        fill: #e99179;
      }

      .cls-129 {
        fill: #ec8076;
      }

      .cls-130 {
        fill: #e5dcc8;
      }

      .cls-131 {
        fill: #f4e7cb;
      }

      .cls-132 {
        fill: #b85d48;
      }

      .cls-133 {
        fill: #dc7060;
      }

      .cls-134 {
        fill: #d27b6c;
      }

      .cls-135 {
        fill: #ec8271;
      }

      .cls-136 {
        fill: #d0675e;
      }

      .cls-137 {
        fill: #47404c;
      }

      .cls-138 {
        fill: #be533f;
      }

      .cls-139 {
        fill: #4f4b4a;
      }

      .cls-140 {
        fill: #313e43;
      }

      .cls-141 {
        fill: #eb8d7a;
      }

      .cls-142 {
        fill: #e8d2c3;
      }

      .cls-143 {
        fill: #dc7d69;
      }

      .cls-144 {
        fill: #524d56;
      }

      .cls-145 {
        fill: #463f42;
      }

      .cls-146 {
        fill: #f3d6b1;
      }

      .cls-147 {
        fill: #623935;
      }

      .cls-148 {
        fill: #ae5345;
      }

      .cls-149 {
        fill: #e68475;
      }

      .cls-150 {
        fill: #b96141;
      }

      .cls-151 {
        fill: #cd6253;
      }

      .cls-152 {
        fill: #e58473;
      }

      .cls-153 {
        fill: #e4876f;
      }

      .cls-154 {
        fill: #f6d8b3;
      }

      .cls-155 {
        fill: #5a5749;
      }

      .cls-156 {
        fill: #c46450;
      }

      .cls-157 {
        fill: #4b5c5a;
      }

      .cls-158 {
        fill: #b57266;
      }

      .cls-159 {
        fill: #a15f4a;
      }

      .cls-160 {
        fill: #6b4745;
      }

      .cls-161 {
        fill: #d9877c;
      }

      .cls-162 {
        fill: #3f4439;
      }

      .cls-163 {
        fill: #9e925e;
      }

      .cls-164 {
        fill: #daac9a;
      }

      .cls-165 {
        fill: #f3f2e4;
      }

      .cls-166 {
        fill: #cb6a58;
      }

      .cls-167 {
        fill: #e77d67;
      }

      .cls-168 {
        fill: #544b47;
      }

      .cls-169 {
        fill: #a95949;
      }

      .cls-170 {
        fill: #4f524e;
      }

      .cls-171 {
        fill: #473e4b;
      }

      .cls-172 {
        fill: #633d3a;
      }

      .cls-173 {
        fill: #c27f64;
      }

      .cls-174 {
        fill: #e88e7f;
      }

      .cls-175 {
        fill: #dda393;
      }

      .cls-176 {
        fill: #9f5e50;
      }

      .cls-177 {
        fill: #8d7c48;
      }

      .cls-178 {
        fill: #7f8561;
      }

      .cls-179 {
        fill: #d17b71;
      }

      .cls-180 {
        fill: #8a8e69;
      }

      .cls-181 {
        fill: #bf5e38;
      }

      .cls-182 {
        fill: #db8a76;
      }

      .cls-183 {
        fill: #6a4a45;
      }

      .cls-184 {
        fill: #634946;
      }

      .cls-185 {
        fill: #ce8574;
      }

      .cls-186 {
        fill: #d48182;
      }

      .cls-187 {
        fill: #f1f1d1;
      }

      .cls-188 {
        fill: #e88e79;
      }

      .cls-189 {
        fill: #ccbaa1;
      }

      .cls-190 {
        fill: #6a535a;
      }

      .cls-191 {
        fill: #d56e53;
      }

      .cls-192 {
        fill: #e68c74;
      }

      .cls-193 {
        fill: #767977;
      }

      .cls-194 {
        fill: #32392f;
      }

      .cls-195 {
        fill: #dbb8ac;
      }

      .cls-196 {
        fill: #b26861;
      }

      .cls-197 {
        fill: #755a54;
      }

      .cls-198 {
        fill: #82613f;
      }

      .cls-199 {
        fill: #e7dcc6;
      }

      .cls-200 {
        fill: #c87467;
      }

      .cls-201 {
        fill: #d88284;
      }

      .cls-202 {
        fill: #de9586;
      }

      .cls-203 {
        fill: #de675e;
      }

      .cls-204 {
        fill: #6b4747;
      }

      .cls-205 {
        fill: #6c5e5d;
      }

      .cls-206 {
        fill: #e68c73;
      }

      .cls-207 {
        fill: #8c433b;
      }

      .cls-208 {
        fill: #e49385;
      }

      .cls-209 {
        fill: #9f4c36;
      }

      .cls-210 {
        fill: #cdcec8;
      }

      .cls-211 {
        fill: #5e4944;
      }

      .cls-212 {
        fill: #b46145;
      }

      .cls-213 {
        fill: #db8f86;
      }

      .cls-214 {
        fill: #365757;
      }

      .cls-215 {
        fill: #d67670;
      }

      .cls-216 {
        fill: #ad6144;
      }

      .cls-217 {
        fill: #e38b75;
      }

      .cls-218 {
        fill: #857944;
      }

      .cls-219 {
        fill: #f6f7e7;
      }
    </style>
  </defs>
  <g>
    <path class="cls-54" d="M48.47,235.6c.47.55.59,1.21.56,2.01-.05,1.23,0,2.46,0,3.69-.55.13-.88-.4-1.2-.78-.55-.66-1.16-1.05-1.9-1.2-1-.73-1.78-1.82-2.69-2.69-3.56-3.4-7.36-6.36-11.14-9.33-.98-.77-1.42-.46-1.59,1-.08.7.07,1.35.26,1.99.28.98.55,1.97.46,3.03-.08.91.21,1.54.84,1.95.81,1.57.88,3.47,1.45,5.15.63,1.83.91,3.81,1.49,5.67.92,1.01,1.11,2.5,1.55,3.8.87,2.54,2.18,4.68,3.53,6.81.76,1.2,1.58,2.3,2.52,3.26.47,1.21,1.12,2.31,1.51,3.59.19.64.58,1.02,1.05,1.31,1.23.76,2.39,1.66,3.63,2.39.07.08.13.16.18.25,0,.91,0,1.83.02,2.74,0,.29.02.57-.31.56-1.17-1-2.56-1.4-3.86-2.05-.86-.44-1.57-1.05-2.12-1.97-.81-1.36-1.82-2.47-2.85-3.54-1.79-1.86-3.19-4.08-3.74-6.93-.37-1.95-1.32-3.5-1.99-5.22-1.32-3.36-2.7-6.69-3.58-10.29-.12-.49-.28-1.01-.55-1.38-.71-.99-.61-1.94-.04-2.92.37-.63.63-1.18-.24-1.57-.49-.22-.86-.77-.88-1.46-.06-1.65-.55-3.16-.87-4.73-.41-2,.66-3.8,2.44-3.96,2.05-.18,3.98.56,5.9,1.35,3.12,1.28,5.7,3.7,8.39,5.93,1.3,1.09,2.55,2.26,3.75,3.53h0Z"/>
    <path class="cls-187" d="M49.03,619.65c0,10.87,0,21.74.02,32.6,0,.94-.25,1.33-1,1.24-.51-.06-1.03.12-1.5-.24-.42-1.12-.32-2.39-.32-3.51,0-1.92-.6-3.66-.71-5.51-.27-4.77-1.72-9.26-2.06-14.01-.21-.47-.27-1.03-.57-1.45.04-1.46-.06-2.91-.39-4.32.08-.79-.16-1.61.14-2.37.72.08.36.92.62,1.34.1.44.22.88.37,1.59-.14-2.12.11-3.98-.17-5.81-.1-.21-.18-.51-.31-.02-.1.43.07.99-.37,1.27-.36-.05-.14-.68-.48-.76-.79-1.58-.76-2.21.12-3.54.07-.11.06-.3.08-.46.03-.05.06-.09.1-.14.15.03.27.13.38.25,1.19.39,2.4.07,3.6.19.45.04,1.15-.25,1.25.44.1.71-.63.72-1.04.94-.18.09-.36.15-.53.28-.19.15-.44.32-.36.62.09.33.38.21.59.19,1-.1,2.01-.24,2.55,1.2h0Z"/>
    <path class="cls-41" d="M21.56,301.39c-1.33-.28-2.39-1.27-3.53-2.09-.34-.24-.31-.68-.25-1.08.13-.97-.14-1.61-.91-1.95-.97-.43-1.47-1.47-1.98-2.5-1.85-3.72-2.83-7.92-4.33-11.84-.52-1.36-.8-2.85-.98-4.36-.12-.99.16-1.9.13-2.85.14-.03.24.04.36.11.91.52,1.29.28,1.41-.98.08-.87.21-1.74.26-2.62.02-.36-.04-.86.45-.88.34,1.12.3,2.43,1.06,3.35.31,2.23,1.07,4.3,1.49,6.5.39,2.02,1.25,3.82,2,5.66,0,2.26.85,4.11,1.87,5.86.34.58.65,1.18.88,1.83.4,1.15.97,2.13,1.77,2.91.37,1.37.81,2.71,1.51,3.89-.38.4-.8.72-1.22,1.05h0Z"/>
    <path class="cls-58" d="M35.99,203.68c-.87-.59-1.26-1.5-1.56-2.69-.41-1.61-1.12-3.1-1.74-4.62-.18-.46-.48-.88-.52-1.4-.18-2.45-1.23-4.6-1.56-7-.02-.11-.02-.26-.08-.33-1.45-1.79-1.67-4.08-1.7-6.46,0-.39-.07-.71-.26-1.08-.73-1.5-1.18-3.2-1.46-4.88-.16-.96.54-2.03.48-3.2-.06-1.15.1-2.31.15-3.46.07-1.62.62-1.96,1.78-1.39,1.05.52,1.43,1.73,2.07,2.67-.22.44-.41.86.04,1.28.15.14.25.35.04.56-1.25.77-1.49,1.42-1.12,3.05.14.66.29,1.31.34,1.99.19,2.81,1.13,5.39,1.61,8.12.27,1.51,1.25,2.71,1.34,4.33.12.71.43,1.33.63,2,.22,2.27,1.19,4.19,1.88,6.24.22.56.27,1.17.28,1.78,0,.67.35,1.2.46,1.83.02.12.04.24.04.36-.19.91-.11,2.03-1.14,2.29h-.02Z"/>
    <path class="cls-55" d="M21.23,416.73c-1.12-1.83-1.14-3.88-.8-6.02,1.67-1.09,3.19-.63,4.63.7.35.45.8.37,1.24.41.96.08,1.94-.21,2.89.2.21.74-.31.63-.57.66-.69.1-1.4.03-2.1.04-1.47.03-1.75.56-1.22,2.28-.21.83.06,1.42.56,1.96,1.7,1.83,3.31,3.82,5.25,5.29.48.37,1.11.75.87,1.73-.7.67-1.44,1.22-2.32,1.39-.31.04-.63.06-.94.15-.97.27-1.18,1.02-.47,1.92.55.7,1.01,1.41,1.08,2.43,0,1.29.13,2.58-.08,3.86-.43.75-.77.21-1.04-.19-.4-.6-.75-1.27-1.16-1.87-.32-.8-.57-1.64-.88-2.46-1.42-3.92-2.17-8.24-4.41-11.68-.18-.28-.33-.59-.53-.84l-.02.04Z"/>
    <path class="cls-165" d="M49.05,589.68c0,1.76,0,3.52,0,5.28-.9.67-1.37,1.78-1.89,2.85-.47.45-1.05.55-1.57.83-1.85,1-2.66,2.85-2.79,5.26-.02.28-.04.56,0,.84.14,1.48-.31,2.47-1.48,2.89-.18.16-.31.41-.52.53-.23-.42-.39-.88-.68-1.27-.45-.59-.67-1.32-.66-2.17.03-1.36.04-2.71,0-4.07-.08-3.01.89-5.38,2.9-6.95,1.51-1.18,2.96-2.5,4.6-3.43.68-.39,1.36-.68,2.12-.59h0Z"/>
    <path class="cls-118" d="M46.16,540.45c-.53-.07-.96,0-1.24.72-.2.5-.68.69-1.12.85-3.78,1.39-7.65,2.17-11.59,2.04-1.53-.05-3.05-.31-4.56-.57-1.09-.19-2.06-.85-2.96-1.62-.98-.85-1.47-3.11-1.04-4.52.24-.81.68-1.21,1.37-1.24.11.08.18.22.22.37.32,1,.86,1.45,1.61,1.35,1.33.64,2.73.54,4.11.5,1.28-.04,2.52.03,3.7.68-.22.98-.93.96-1.52,1.07-.79.14-1.59.02-2.39.06-.37.01-.77-.09-1.23.39,1.24.51,2.4.41,3.54.25,2.66-.38,5.33-.69,7.98-1.24.29-.06.57-.07.86,0,1.19,0,2.39-.13,3.53.38.27.12.67,0,.74.55l-.02-.02Z"/>
    <path class="cls-63" d="M49.01,318.6c0,1.02-.02,2.04.02,3.06.02.54-.11.81-.55.81-3.21.11-6.15-1.19-9.09-2.58-1.65-.78-3.31-1.48-5.09-1.49-.3,0-.58-.08-.8-.32-1.31-1.39-2.69-2.67-3.83-4.3-.35-1.27.32-1.93.99-2.6.16-.16.35-.24.55-.23.68.15,1.22.67,1.77,1.15,1.41,1.24,2.99,1.95,4.65,2.41,1,.64,1.91,1.46,2.91,2.09,1.3.83,2.72,1.12,4.15,1.32.86.79,1.78.88,2.8.47.5-.2,1.06-.32,1.53.19v.02Z"/>
    <path class="cls-33" d="M35.61,506.46c.25-2.36,1.32-3.99,2.88-4.37.76.52,1.42.22,2.08-.37.59-.52,1.15-1.13,1.9-1.32.41-.05.82-.11,1.19.21-.22,1.05-.07,2.07.06,3.12.18,1.39.19,1.45,1.33,1.19.56-.13,1.12-.3,1.7-.19,1.21.22,1.74,1.43,1.29,2.87-.43.62-1.01.62-1.58.63-.42,0-.83.08-1.24.18-1.2.08-2.39.25-3.56.58-.28.08-.56.13-.84,0-1-1.22-2.27-.63-3.44-.78-.36,0-.73.02-1.08-.15-.43-.4-.55-1-.68-1.6h0Z"/>
    <path class="cls-45" d="M12.12,270.37c-.11,1.2-.21,2.4-.35,3.59-.07.61-.12,1.31-.72,1.53-.59.21-1.02-.17-1.33-.78-.29-.84-.23-1.72-.2-2.6.05-1.43.12-2.87.14-4.3.05-2.24,1.42-3.74,3.18-3.36,1.38.3,2.63.9,3.52,2.4.62,1.05,1.54,1.5,2.56,1.64.68.1,1.33.29,1.71,1.11.13.66-.14.99-.6,1.17-1.69-.69-3.52-.64-5.18-1.52-1.17-.62-2,.08-2.74,1.12h0Z"/>
    <path class="cls-9" d="M45.97,147.81c-.37-.09-.47-.45-.59-.84-.74-2.58-1.28-5.21-1.57-7.95-.14-1.32-.39-2.71-.72-4.05-.35-1.46-.28-3.14.02-4.71.39-.81.46-1.69.48-2.62.04-1.49-.2-3,.17-4.47.63-.32.58.41.67.75.39,1.38.59,2.84.96,4.23.14,1.86.21,3.73.56,5.56.18.92.68,1.73.58,2.75-.6,2,.16,3.94.19,5.91.02,1.03.33,2.03.32,3.07-.84.44-.75,1.56-1.08,2.37h0Z"/>
    <path class="cls-145" d="M46.12,387.95c-1.02-.71-1.65-1.88-2.2-3.09-1.46-3.22-2.85-6.5-4.32-9.71-1.12-2.44-2.28-4.85-3.23-7.4-.08-.21-.14-.43-.21-.65.14-1.19.26-1.28,1.2-1.03.9,1.11,1.35,2.56,1.86,3.96.07.38.16.74.39,1.03,1,1.93,1.7,4.11,3.04,5.77.76,2.11,1.62,4.13,2.82,5.93.51.78,1.07,1.47,1.78,1.96.55.89.94,1.87,1,3.03-.63,1.01-1.21,1.07-2.1.2h0Z"/>
    <path class="cls-37" d="M35.99,203.68c.68-.58.79-1.51.96-2.41.39-.06.47.35.59.64.55,1.26,1.16,2.48,1.62,3.8.1.36.22.73.45,1,1.16,1.95,2.1,4.08,3.1,6.15.27.83.47,1.68.4,2.59-.38,1.11-1.08,1.51-2,1.44-.55-.03-.87-.47-1.08-1.02-1.24-3.25-2.47-6.5-3.69-9.76-.29-.76-.38-1.59-.38-2.43h0Z"/>
    <path class="cls-117" d="M24.84,411.67c-.98-1.21-2.2-1.3-3.47-1.13-.31.04-.63.11-.95.17-.41-1.39-.32-1.58.77-1.59,3.74-.06,7.47-.32,11.19.4,1.07.21,2.14.46,3.2.72,1.52.37,2.94,1.24,4.5,1.4-.31.48-.76.31-1.16.39-.59.12-1.16.25-1.41,1.07-.74.22-1.46.15-2.17-.16-1.37-.62-2.79-.67-4.24-.71-2.09-.07-4.19-.13-6.27-.54v-.02Z"/>
    <path class="cls-105" d="M26.58,537.84c-.47.88-.86.77-1.23-.14-.21-.51-.35-1.02-.35-1.58-.27-3.68.22-7.13,2.02-10.17.4-.68.66-1.45.88-2.24.35-1.3,1.05-2.43,1.17-3.84,1.33-.77,1.96-.24,1.98,1.7,0,.32-.02.66-.17.92-.88,1.68-1.36,3.57-1.98,5.39-1.04,3.04-2.07,6.07-2.1,9.45-.03.2-.1.37-.22.51h0Z"/>
    <path class="cls-197" d="M36.94,279.74c.65.05,1.25.32,1.79.76,1.62,1.33,3.22,2.71,4.85,4.03,1.12.91,1.95,2.14,2.62,3.56-.56.73-.47,1.74-.73,2.61-.11.12-.27.14-.32-.02-.27-.76-.85-1.03-1.36-1.42-.53-1.13-1.3-.77-2.05-.5-.61-.16-.88-.76-1.11-1.39-.1-.38-.19-.77-.49-1-.1-.08-.22-.15-.32-.22-.32-.2-.61-.43-.77-.85-.46-1.3-1.31-2.09-2.22-2.84-.46-.38-1.04-.64-1.09-1.5.4-.4.8-.79,1.2-1.2v-.02Z"/>
    <path class="cls-74" d="M27.18,431.5c.76.68.95,2.03,1.86,2.55.08.06.18.14.19.25.31,2.44,1.69,4.02,2.94,5.7.21.44.26.91.25,1.41,0,2.68-.06,2.73-2.45,2.19-.92-.37-1.29-1.45-1.82-2.3-1.28-2.08-1.99-4.4-1.57-7.08.44-.82.07-1.93.6-2.72h0Z"/>
    <path class="cls-31" d="M34.28,353.81c.23-.54-.23-.91-.22-1.4-.15-.85-.05-1.7-.07-2.56.38-.52.59-1.16.82-1.78.65.08.76.76.91,1.33.81,3.16,2.06,6.04,3.4,8.88.59,1.25,1.6,1.91,2.36,2.9.27.88,1.05,1.45,1,2.54-.31.88-.88.78-1.45.6-.44-.14-.8-.5-1.08-.94-1.05-1.66-2.19-3.17-3.86-3.89-.73-1.83-1.27-3.76-1.81-5.69h0Z"/>
    <path class="cls-190" d="M21.23,416.73c.27-.03.47.09.63.4,1.01,1.89,2,3.78,2.64,5.93.6,2.05,1.25,4.08,1.87,6.12-.69.02-.93.8-1.37,1.27-.35-.47-.67-.96-1.04-1.41-1.03-1.27-1.37-2.83-1.28-4.59.02-.43.14-.9-.31-1.13-.37-.19-.59.14-.84.39-.29.28-.51.83-.96.52s-.19-.85-.19-1.3c0-2.13.55-4.14.84-6.2h0Z"/>
    <path class="cls-184" d="M29.97,443.61c.06,0,.13-.02.18-.02,1.3-.04,1.97-.86,2.01-2.45.55.23.41.83.41,1.3,0,.7.18,1.21.65,1.61.67.56,1.21,1.3,1.73,2.07.51,1.31,1.29,2.43,1.81,3.74.27.67.57,1.34.3,2.13-.27.46-.63.63-1.07.49-2.42-.39-4.04-1.83-4.46-5.04-.13-1-.55-1.94-.8-2.92-.13-.51-.35-.81-.76-.92h0Z"/>
    <path class="cls-139" d="M30.97,339.51c-1.08-.84-1.45-2.1-1.53-3.63-.14-3,.22-5.97.25-8.97,0-.83.49-1.23,1.12-1.4.55-.15.96-.1,1.31.58.46.88,1.37,1.01,2.02,1.58-.39.38-.76.78-1,1.33-2.09.92-2.09.93-1.53,3.64.04.2.03.39-.06.57-.5,1.42-.16,2.92-.27,4.37-.05.66.14,1.37-.31,1.93h0Z"/>
    <path class="cls-211" d="M36.94,176.6c3,2.3,5.37,5.39,7.33,9.01.21.38.5.69.76,1.03-.06.96-.16,1.03-1.12.81-1.72-1.36-3.29-2.98-4.9-4.52-.95-1.66-1.98-3.25-2.7-5.1.14-.48.36-.88.64-1.25v.02Z"/>
    <path class="cls-101" d="M42.27,500.65c-.74.6-1.48,1.19-2.2,1.82-.64.55-1.16.47-1.57-.38-.26-2.11.35-3.55,1.94-4.5,1.22-.73,2.31-1.85,3.77-1.74.56-.45,1.16-.37,1.77-.21.53.35.3.78.06,1.16-.31.5-.67.95-1.09,1.33-.9.81-1.8,1.63-2.65,2.51h-.02Z"/>
    <path class="cls-171" d="M49,463.03c-.04,1.53.2,3.07-.14,4.59-.54-.02-1.11.05-1.59-.3-1.4-.99-2.73-2.09-3.83-3.58-.06-.23-.14-.46-.09-.72.49-1.05.88-2.24,2.04-2.38,1.31.55,2.47,1.44,3.62,2.39h0Z"/>
    <path class="cls-144" d="M34.28,353.81c.79,1.26,1.05,2.82,1.53,4.25.14.43.27.88.4,1.32.02.07.07.14.08.22.1,1.93.59,3.72,1.16,5.49.13.4.17.86-.11,1.24-.74-.57-.93.15-1.17.76-.42-1.8-1.24-3.44-1.92-5.02-1-2.34-.56-4.59-.75-6.88-.06-.72.16-1.24.78-1.38h0Z"/>
    <path class="cls-127" d="M45.39,460.85c-1.04.16-1.29,1.4-1.88,2.16-.29-.25-.27-.78-.59-1-.71-1.36-1.75-2.29-2.72-3.31-1.35-1.43-2.43-3.11-3.29-5.01-.11-.22-.15-.45-.06-.7.37-.44.74-.11,1.06.07,1.96,1.09,3.59,2.76,5.04,4.7.74.99,1.41,2.04,2.52,2.4.09.25.07.49-.09.69Z"/>
    <path class="cls-97" d="M41.37,334.16c.37-.12.73-.27,1.1-.36,2.19-.56,3.38.29,4.08,2.91.2.75.39,1.5.59,2.26-.24.91-.92.79-1.47.96-1.36-.53-2.46-1.63-3.66-2.51-.47-.68-.8-1.45-.88-2.36,0-.33,0-.66.24-.9h0Z"/>
    <path class="cls-95" d="M34.04,349.79c.39.87.22,1.75.02,2.63-1.57-.56-3.17-3.08-3.15-5.35.02-1.49-.16-3,.1-4.48.48-.16.84-.47.92-1.15.03-.28.08-.66.46-.55.26.36.53.69.69,1.13.15,1.46.26,2.93.36,4.39.09,1.15.39,2.25.59,3.37h0Z"/>
    <path class="cls-71" d="M30.8,521.77c0-1.27-.58-1.91-1.73-1.9.33-2.35,1.25-4.46,1.74-6.74.16-.76.76-.98,1.32-1.19.9.16,1.47.76,1.6,1.92,0,1.42-.58,2.58-1.12,3.74-.62,1.33-1.33,2.6-1.55,4.16-.08.1-.17.11-.27.01h0Z"/>
    <path class="cls-157" d="M49.03,608.88c0,.78,0,1.55-.02,2.33-.33.5-.8.42-1.24.43-1.52.03-3.04-.06-4.56.15-.56-.09-1.12-.16-1.7-.23-.35-.04-.68-.18-.88-.6-.3-.81-.42-1.6.14-2.33.31-.35.69-.4,1.08-.34,1.93.34,3.87.12,5.81.19.47.02.96-.07,1.36.39h0Z"/>
    <path class="cls-45" d="M21.56,301.39c.2-.68.57-1.06,1.17-1.03.61-.44,1.02,0,1.22.6.44,1.37,1.3,2.24,2.14,3.16.53.93,1.02,1.88,1.3,2.97.06.51.07,1.03,0,1.54-.1.75-.39,1.17-1.05.86-1.24-1.05-2.06-2.56-2.69-4.19-.41-1.06-.51-2.32-1.65-2.7-.43-.14-.43-.74-.45-1.22h0Z"/>
    <path class="cls-45" d="M36.94,279.74c-.14.79-.55,1.17-1.17,1.22-.34.34-.67.19-.96-.07-.47-.43-1.02-.64-1.52-.97-1-1.27-2.31-1.84-3.56-2.57-.49-.65-1.29-.97-1.41-2.02.46-.45.97-.46,1.51-.32,2.68.85,5.22,2.04,7.12,4.73h0Z"/>
    <path class="cls-51" d="M42.13,111.05c.2-2.1,1.05-3,2.42-2.56.88.28,1.04,1.31,1.44,2.1.17.33.03.52-.19.69-.14.08-.31.11-.46.14-1,.19-1.15.38-1.17,1.68-.02.99,0,1.98,0,2.97,0,.47.02.96-.18,1.39-.38.31-.41-.12-.49-.38-.12-.41,0-.87-.24-1.39-.43.96-.39,1.93-.45,2.89-.04.65.16,1.37-.3,1.92-.3-.59-.31-1.26-.34-1.92-.04-1,.02-2.01-.37-2.94.12-1.53.17-3.06.33-4.59h0Z"/>
    <path class="cls-116" d="M46.19,495.89c-.67-.01-1.33-.03-2-.04.1-1.55.85-2.79,1.29-4.18.16-.51.68-.52,1.09-.55.63-.04,1.27-.04,1.9-.06.36.02.59.15.55.71-.04.79-.02,1.59-.02,2.39-.67.7-1.48,1.14-2.2,1.73-.18.15-.41.21-.61,0h0Z"/>
    <path class="cls-194" d="M42.49,120.5c.06-1.46-.02-2.93.23-4.37.08-.46.11-1.11.56-1.09.54.03.34.71.39,1.15.06.46-.11.96.16,1.38.2.17.3.43.29.71,0,1.59.3,3.19-.22,4.74,0,1.89-.04,3.78-.03,5.67,0,.75-.18,1.3-.77,1.58-.37-2.16-.35-4.36-.44-6.55-.04-1.07-.11-2.15-.18-3.22h0Z"/>
    <path class="cls-183" d="M43.84,187.13c.5.25,1,.53,1.17-.49,1.25.97,2.42,2.09,3.44,3.43.95,1.34.44,2.97.57,4.48-.36.34-.6-.02-.8-.28-.85-1.1-1.78-2.08-2.75-3.02-.35-.94-.8-1.79-1.28-2.63-.24-.42-.62-.85-.35-1.48h0Z"/>
    <path class="cls-104" d="M36.94,176.6c.05.6-.22.95-.61,1.2-.3.23-.56.04-.8-.16-1.6-1.37-2.89-3.09-3.77-5.26-.1-.25-.18-.52-.02-.79-.99-.89-1.01-1.21-.14-1.75,2.15,1.79,3.95,4.03,5.35,6.76h0Z"/>
    <path class="cls-155" d="M49.02,224.08v3.64c0,.3.06.66-.33.65-1.76-1.32-2.49-3.64-3.5-5.68-.2-1.35.07-1.8,1.18-1.96,1.16.77,1.82,2.16,2.65,3.35Z"/>
    <path class="cls-110" d="M41.55,411.92c1.36.22,2.68.64,3.99,1.15.86.33,1.37,1.13,1.63,2.18-.49.7-1.17.54-1.79.62-.84-.04-1.7.13-2.54-.15-.58-.92-1.29-1.48-2.27-1.38-.22.02-.43-.14-.59-.34-.17-.25-.27-.52-.22-.86.53-.55,1.25-.65,1.78-1.21h0Z"/>
    <path class="cls-52" d="M46.52,220.96c-.97-.05-1.33.62-1.33,1.73-.58-.97-1.49-1.47-2.13-2.38-.75-1.06-1.21-2.34-1.94-3.41.61-.5,1.51-.45,1.81-1.53,1.04.56,1.81,1.5,2.23,2.79.32.98.73,1.84,1.41,2.49.04.12.02.22-.06.31h0Z"/>
    <path class="cls-160" d="M45.4,290.76c.12-.96-.37-2.2.81-2.66,1.02.01,1.64.87,2.27,1.69.13.25.26.51.39.76.18,1.06.06,2.14.07,3.21,0,.78-.29.97-.86.59-.36-.24-.65-.65-1.04-.86-.5-.22-.84-.68-1.19-1.14-.22-.5-.74-.86-.47-1.59h.02Z"/>
    <path class="cls-214" d="M46.16,540.45c-1.24-.18-2.41-1.08-3.71-.47-.18.09-.38.02-.51-.21.02-.61.43-.62.74-.73,1.28-.48,2.53-1.03,3.77-1.67.8-.41,1.67-.76,2.55-.23,0,.98-.02,1.96.02,2.94.02.54-.15.8-.55.88-.77-.17-1.54-.33-2.31-.5h0Z"/>
    <path class="cls-2" d="M33.51,513.93c.02-1.18-.89-1.36-1.39-1.99-.18-1.52.39-2.56,1.37-3.35.76-.62,1.24-1.69,2.12-2.13.44.3.55.8.51,1.38-.05.89-.3,1.67-.78,2.33-.26.35-.46.74-.55,1.21-.13.53-.08,1.11-.27,1.62-.2.53-.37,1.14-1,.94h0Z"/>
    <path class="cls-48" d="M45.72,111.12c.18-.1.25-.3.26-.53,1,.15,1.69,1.25,2.69,1.4.45.11.35.56.35.93,0,1.29,0,2.58,0,3.87-.72.08-.97-.75-1.43-1.16-.74-.66-1.44-1.41-1.79-2.52-.08-.66-.17-1.32-.08-2h0Z"/>
    <path class="cls-146" d="M49.03,608.88c-2.75-.16-5.5.13-8.24-.25,0-.16,0-.31,0-.47.07-.24.14-.48.21-.73.72-.11,1.41-.46,2.16-.36,1.52.06,3.03-.01,4.55-.02.47,0,.96-.07,1.34.4v1.43h0Z"/>
    <path class="cls-170" d="M49.01,152.91c-.06,1.8.18,3.61-.12,5.41-.34-.42-.57-.93-.79-1.46-.33-.8-.62-1.61-1.29-2.13-.52-.41-.55-1.14-.41-1.82.1-.5.18-1,.18-1.51.32-.14.46.42.77.32.2-.41,0-.97.33-1.33.51-.03.58.5.72.92.18.54.42,1.06.59,1.61h0Z"/>
    <path class="cls-172" d="M41.37,334.16v.96c-.08.07-.18.13-.27.08-1.82-.96-3.59-2.02-4.59-4.34.21-.33.39-.69.63-1,2.33.03,3.39,2,4.23,4.3h0Z"/>
    <path class="cls-147" d="M32.29,340.91c-.26.31-.1.75-.22,1.12-.22.63-.49,1.03-1.06.56-.02-1.02-.03-2.05-.05-3.07,0-1.78.02-3.55.02-5.33,0-.51-.06-1.07.51-1.2.86.61.85,1.7.91,2.71.09,1.55-.05,3.11.13,4.66-.02.23-.08.43-.24.56h0Z"/>
    <path class="cls-82" d="M49.01,613.46c0,.4,0,.79,0,1.19-.31.36-.71.33-1.08.33-.96.02-1.91.03-2.88,0-.87-.03-1.72.05-2.51.53,0,.06,0,.12-.02.18-.47-.41-1.13-.22-1.53-.83-.21-1.26-.17-1.36.76-1.57.4-.09.8-.21,1.21-.2,1.66-.09,3.33-.04,4.98-.04.39,0,.77.01,1.06.41h0Z"/>
    <path class="cls-69" d="M26.34,309.5c.6.02.86-.35.81-1.1-.03-.51,0-1.03,0-1.54.71-.2,1.15.41,1.53.93.8,1.12,1.55,2.29,2.14,3.62-.64.6-1.25,1.21-1.15,2.37-.05-2.01-.99-2.97-2.47-3.4-.32-.09-.56-.58-.84-.88h0Z"/>
    <path class="cls-140" d="M29.83,275.01c-.51.14-1.04.29-1.55.43-.13.14-.3.22-.44.14-1.36-.76-2.79-1.35-4.03-2.43-.1-.09-.16-.24-.22-.39-.07-.58.07-1.02.51-1.28,1.41.77,2.92,1.25,4.26,2.24.51.38.98.86,1.47,1.29h0Z"/>
    <path class="cls-38" d="M37.14,329.86c.02.53.02,1.04-.59.97-1.18.33-2.27.07-3.28-.76-.19-.32-.37-.65-.21-1.08.02-.85.29-1.39,1.05-1.32,1.34.01,2.2,1.04,3.01,2.19h0Z"/>
    <path class="cls-204" d="M45.56,339.72c.54-.21,1.11-.32,1.57-.76h1.33c.39.23.59.55.56,1.16-.06,1.13-.02,2.26-.02,3.4-.15.1-.33.1-.45-.03-1.04-1.08-2.14-2.08-2.98-3.43-.06-.09-.05-.23-.02-.34h0Z"/>
    <path class="cls-162" d="M47.72,150.37c0,.16,0,.32-.02.47-.07.48.23,1.16-.22,1.4-.52.27-.51-.69-.88-.86-.24-1.18-.64-2.32-.63-3.58,0-.47-.03-.96.02-1.42.07-.67.29-1.16.94-.76.86.98,1.25,3.31.8,4.75h0Z"/>
    <path class="cls-43" d="M46.12,387.95c.69.13,1.44.83,2-.32.44.01.72.3.89.79-.03,1.18.14,2.37-.1,3.54-.63-.43-1.24-.95-1.9-1.27-.88-.42-1.19-1.06-.85-2.18.05-.16-.02-.38-.03-.56h0Z"/>
    <path class="cls-168" d="M25,430.45c.25-.77.31-1.84,1.37-1.27.27.77.55,1.55.81,2.32,0,.58-.03,1.16-.03,1.74,0,.51-.08.93-.58.98-1.41-.68-1.55-2.19-1.57-3.77h0Z"/>
    <path class="cls-114" d="M24.1,271.48c-.14.41-.27.83-.4,1.24-1.32.46-3.36-.73-3.63-2.12.34-.2.41-.64.58-1,1.34.09,2.48.76,3.46,1.88h0Z"/>
    <path class="cls-40" d="M42.9,613.43c-.34.07-.68.24-1.01.2-.79-.1-1.02.34-.9,1.22-.39-1.26-1.19-2.47-.35-3.9.82.17,1.63.35,2.45.52.36.72.42,1.39-.19,1.95h0Z"/>
    <path class="cls-86" d="M45.36,415.55c.6-.1,1.21-.2,1.82-.3.43,0,.87-.02,1.3-.02.39.11.58.38.55.91-.03.67-.02,1.33-.02,2-.09.12-.21.22-.33.19-1.37-.43-2.55-1.23-3.33-2.77h0Z"/>
    <path class="cls-90" d="M41.55,411.92c-.31.99-1.04,1.05-1.74,1.2-.65.53-1.33.41-2.02.12-.11-.1-.14-.22-.08-.38-.47-.54-.14-.77.25-.94.69-.3,1.41-.25,2.12-.3.06-.02.1,0,.13.06.31.24.68-.03,1,.2.11.01.22.02.35.03h0Z"/>
    <path class="cls-83" d="M42.71,622.07c-.09.79.18,1.63-.19,2.38-.43-1.57-.08-3.19-.21-4.78.05-.21.1-.54.29-.16.11.23.07.57.1.86.35.56.34,1.13,0,1.69h0Z"/>
    <path class="cls-193" d="M42.13,111.05c.4,1.59-.18,3.06-.33,4.59-.02-1.14-.02-2.29-.04-3.43,0-.45.06-.86.37-1.15h0Z"/>
    <path class="cls-84" d="M36.98,453.02c-.02.22-.04.45-.06.67-.67.03-.66-.77-.93-1.22.32-.17.64-.34.96-.51.27.34.19.7.03,1.06Z"/>
    <path class="cls-67" d="M42.93,462.01c.45.1.59.49.59,1-.02.24-.05.49-.07.73-.68-.34-.31-1.17-.51-1.73Z"/>
    <path class="cls-219" d="M42.91,628.78c.6.23.61.82.57,1.45-.44-.33-.58-.84-.57-1.45Z"/>
    <path class="cls-117" d="M41.22,411.89c-.34,0-.71.18-1-.2.33.1.69-.07,1,.2Z"/>
    <path class="cls-141" d="M34.84,446.22c-.73-.77-1.33-1.72-2.19-2.31-.35-.24-.35-.6-.36-1.01-.02-.59.13-1.2-.13-1.76.03-.41-.03-.8-.18-1.17.37-.82.78-1.61,1.12-2.45.55-.06,1,.32,1.48.55,2.43,2.21,5.2,3.49,8.09,4.36,2.11,1.47,4.07,3.28,6.31,4.47v4.36c-.07.1-.16.17-.27.22-.88.26-1.7-.05-2.53-.32-.71-.23-1.41-.48-2.12-.69-.75-.22-1.39-.6-2.04-1.17-.99-.86-2.21-1.16-3.42-1.31-.35-.04-.7,0-1.04-.15-.76-.96-1.78-1.24-2.75-1.64v.02Z"/>
    <path class="cls-163" d="M34.83,246.39c-.8-3.12-1.61-6.24-2.41-9.36-.14-.56-.31-1.12-.47-1.68.22-.81.47-1.55,1.35-1.29.38.69.55,1.5.92,2.21.85,1.62,1.95,2.81,3.37,3.58.05.1.1.22.1.33-.07.92-.13,1.81.45,2.57.8,1.06,1.71,1.88,2.84,2.31.4.16.58-.15.8-.42.76.93,1.75,1.35,2.72,1.81-.06.64.13,1.14.53,1.55.89.91,1.82,1.72,2.94,2.14.36.13.76.19,1.04.54,0,1.29,0,2.57.02,3.86-.1.06-.18.04-.25-.07,0-1.74-.9-2.35-2.09-2.62-1.36-.57-2.68-.46-3.97.28-.4.23-.81.46-1.26.49-.78-.04-1.07-.75-1.29-1.52-.18-.65-.35-1.28-.83-1.68-.39-.47-.64-1.07-1.01-1.56-.67-.9-1.42-1.58-2.49-1.3-.35.09-.68,0-1-.18h0Z"/>
    <path class="cls-217" d="M45.56,339.72c1.08,1.38,2.18,2.71,3.45,3.8v10.35c-.07.08-.15.12-.25.11-.34-.09-.55-.39-.74-.71-1.74-2.94-3.6-5.75-5.41-8.62-.24-.38-.4-.81-.63-1.2-.69-1.34-1.29-2.77-2.44-3.63-.98-1.26-1.79-2.67-2.39-4.26-.02-.25,0-.49.13-.7.47-.38.85-.12,1.21.24.43.41.87.81,1.27,1.27.69.8,1.59.69,2.42.91,1.12.81,2.25,1.63,3.37,2.44h0Z"/>
    <path class="cls-167" d="M49,518.89v6.99c-.64.83-1.49,1.31-2.21,2.03-1.39,1.4-2.86,2.68-4.25,4.08-.91.92-1.56,2.1-2.38,3.1-.36.44-.68.95-1.13,1.28-.88.28-1.65,1-2.6.91-.27-.19-.42-.5-.51-.85.07-1.6.87-2.66,1.78-3.59.4-.41.76-.83,1.03-1.37,1.25-.95,2.47-1.96,3.57-3.2.75-.85,1.27-1.78,1.19-3.1.28-1.22,1.21-1.9,1.62-3.01.76-1.15,1.45-2.4,2.59-3.07.42-.25.83-.65,1.32-.19h0Z"/>
    <path class="cls-199" d="M46.32,136.48c-.03-.31-.02-.65-.11-.92-.88-2.37-.96-4.89-1-7.44-.45-2.94-.69-5.9-.33-8.88.05-.43.06-.88.35-1.21.24-.11.36.1.45.3.56,1.31,1.39,2.38,2.07,3.59.68,1.22,1.14,2.52,1.04,3.68-.28-2.13-.19-4.64-.18-7.15,0-.49-.19-1.17.44-1.38,0,6.72-.02,13.44-.02,20.16-.76-.16-1.49-.73-2.27-.17-.3-.02-.37-.3-.43-.59h0Z"/>
    <path class="cls-143" d="M49.02,358.64v12.01c-.48-.13-.43-.66-.39-1.03.1-1.19-.2-2.14-.97-2.85-.2-.46-.59-.8-.56-1.41.7-.58.78-1.29.24-2.13-1.26-1.98-2.68-3.71-4.59-4.72-.51-.27-.95-.65-1.16-1.34-.22-.89-.64-1.64-1.1-2.36-.38-.6-.7-1.24-.92-1.95-.18-.58-.28-1.19.2-1.62.48-.44.97-.32,1.39.16.51.59,1.04,1.17,1.59,1.71.35.35.72.65,1.08.98.68.65,1.37.79,2.1.15.92.33,1.81.77,2.51,1.64.35.41.44.92.42,1.49-.02.43-.03.86.15,1.25v.02Z"/>
    <path class="cls-98" d="M44.62,318.12c-2.75.11-4.94-1.59-7.09-3.41-.15-1.26.57-2.88,1.61-3.51.51-.31,1.04-.58,1.63-.52,1.34.6,2.59,1.5,3.94,2.08.99.42,1.97.89,3,1.16.48.24,1.02.37,1.29,1.02v3.39c-.65-.27-.23-1.03-.49-1.54-1.12,1.15-2.34,2.1-3.9,1.32h0Z"/>
    <path class="cls-99" d="M39.06,536.18c2.31-3.69,5.3-6.42,8.3-9.15.52-.47,1.04-.89,1.65-1.14v7.66c-.22.29-.51.32-.8.32-1.37,0-2.33.84-3.03,2.25-.4.29-.84.39-1.29.41-1.29.09-2.58.04-3.87.03-.35,0-.7-.01-.96-.37h0Z"/>
    <path class="cls-215" d="M45.4,290.76c.2.47.4.95.6,1.42-.43,2.34-.54,4.72-.51,7.11.02,2.52.8,4.65,2.31,6.33.18.2.35.56.63.38.21-.14.14-.5.14-.78,0-1.99,0-3.99,0-5.98,0-.32.02-.64.14-.93.06-.13.15-.17.27-.12,0,5.44,0,10.87,0,16.31-.53-.17-.43-.75-.39-1.15.21-2-.31-3.4-1.7-4.61-2.05-1.78-3.54-4.32-5.1-6.74-.05-.36.07-.63.3-.84,1.25-.84,1.25-.84,1.08-2.59-.07-.75-.1-1.49-.27-2.23-.31-1.38.32-5.97.93-7.27.67.33,1.43.54,1.53,1.69h0Z"/>
    <path class="cls-94" d="M45.36,415.55c1.12,1.07,2.15,2.36,3.66,2.59,0,2.73,0,5.45,0,8.18-.12.04-.22-.02-.27-.16-.27-.81-.16-1.66-.14-2.49.02-.98-.33-1.34-1.09-1.34-1.02.01-2.05.09-3.06-.07-.52-.15-.64-.7-.77-1.24-.15-.69-.31-1.37-.47-2.06-.06-.28-.19-.52-.44-.56-.3-.04-.46.21-.59.5-.18.42-.1.95-.34,1.36-.52.18-.79-.39-1.16-.61-.47-.74-.93-1.49-1.23-2.35-.23-.68-.44-1.42.18-2.01,1.07-.2,2.14-.4,3.17.18.86.03,1.72.05,2.58.08h0Z"/>
    <path class="cls-192" d="M49.02,370.87c0,2.57,0,5.14,0,7.71-.21.25-.45.24-.71.13-.41-.31-.55-.84-.74-1.34-.35-2.23-1.21-4.1-2.52-5.65-.23-.28-.48-.52-.77-.7-1.04-.64-1.54-.27-1.57,1.15,0,.24-.02.48-.16.67-1.28-.19-2.02-1.7-1.61-3.3.47-1.82,1.57-2.92,2.86-3.78,1.12.36,1.95,1.24,2.73,2.24.8,1.01,1.78,1.76,2.49,2.87h0Z"/>
    <path class="cls-68" d="M41.37,252.38c1.33-.46,2.55-1.47,4.04-1.22.47.08.95.09,1.34.49-.27.59-.1,1.01.3,1.42.56.6,1.25.92,1.83,1.46h.14c0,4.33,0,8.65-.02,12.98h-.14c-.3-.44-.27-.97-.28-1.48,0-1.46-.02-2.93,0-4.39.02-.91-.3-1.35-1.01-1.54-.73-.19-1.45-.03-2.18-.1-.24-.09-.36-.33-.38-.62-.14-2.38-1.41-3.79-2.78-5.13-.48-.47-1.1-.87-.86-1.87h0Z"/>
    <path class="cls-53" d="M45.39,460.85c-.02-.23-.03-.45-.05-.68.06-.24.22-.38.35-.55.51-.64.39-1.2-.14-1.69-.54-.49-1.12-.9-1.66-1.42-.96-.94-1.49-2.16-1.41-3.71.02-.28.07-.55.28-.73.38-.22.75-.06,1.12,0,1.41.25,2.8.69,4.18,1.1.36.11.76.17.93.69v9.15c-1.33-.41-2.37-1.54-3.6-2.18v.02Z"/>
    <path class="cls-44" d="M49.01,207.96v3.89c-.31.32-.63.15-.88-.07-2.34-2.01-4.72-3.95-6.92-6.21-.29-.81-.57-1.62-.34-2.53.9-.55,1.65-1.31,2.21-2.35.43-.21.75.05,1.05.38,1.22,1.79,2.35,3.67,3.65,5.4.39.53.89.91,1.24,1.49h0Z"/>
    <path class="cls-61" d="M47.91,507.44c.3-1.42-.23-2.37-1.37-2.45-.68-.04-1.33.21-1.97.39-.7.2-1.16.04-1.09-1,.05-.69-.06-1.37-.24-1.99-.23-.78-.11-1.3.43-1.71.28-1.09,1.01-1.59,1.75-2.07.8-.52,1.7-.72,2.56-.94.81-.21.95-.04.96,1,.04,2.83-.08,5.65.06,8.48v.27c-.36.36-.73.37-1.11.03h0Z"/>
    <path class="cls-137" d="M44.11,536.22c.36-.1.72-.21,1.09-.31,1.25-.36,2.47-1.01,3.81-.68v1.9c-1.11.13-2.18.3-3.22.92-1.23.72-2.55,1.16-3.85,1.72-2.32.37-4.64.76-6.97,1.09-1.82.26-3.65.64-5.49.11-.22-.06-.47-.09-.52-.41-.06-.41.23-.53.46-.65.61-.31,1.26-.12,1.9-.15,1.13-.04,2.3.19,3.33-.68.33-.66.88-.7,1.41-.84,1.49-.12,3,.01,4.5-.1,1.4-.11,2.62-.61,3.57-1.95v.03Z"/>
    <path class="cls-65" d="M45.6,191.18c1,.62,1.76,1.61,2.54,2.58.26.32.44.79.88.79,0,3.05,0,6.1,0,9.15-.79-.11-1.16-.93-1.57-1.57-.63-.97-1.37-1.75-2.18-2.44-.55-.63-.88-1.44-1.19-2.26-.14-.39-.3-.8-.04-1.22.27-.15.56-.05.84-.04,1.11,0,1.34-.45.8-1.63-.51-1.11-.64-2.2-.08-3.33v-.03Z"/>
    <path class="cls-92" d="M41.97,302c1,.89,1.64,2.21,2.44,3.33,1.16,1.61,2.42,3.04,3.8,4.31.53.49.72.99.71,1.78,0,1.02-.14,2.06.1,3.07,0,.15,0,.3,0,.45-.42-.23-.84-.46-1.25-.7-.12-.08-.18-.23-.21-.38-.31-2.24-1.58-3.45-3.07-4.39-.72-.46-1.33-1.06-1.91-1.75-.39-1.26-1.08-2.24-1.89-3.1-.46-.47-.6-1.11-.63-1.81.4-1.44,1-1.7,1.94-.82h-.02Z"/>
    <path class="cls-206" d="M41.37,205.6c2.17,1.88,4.34,3.76,6.51,5.65.35.3.67.61,1.12.6,0,1.35,0,2.71.02,4.06-.07.08-.15.14-.24.18-.56,0-1.12-.21-1.68.03-1.08.07-1.72-.64-2.1-1.82-.16-.52-.29-1.05-.44-1.57-.32-1.11-.77-2.09-1.62-2.7-.25-.18-.44-.45-.59-.76-.34-.67-.84-1.2-1.01-1.99-.13-.56-.35-1.13.04-1.67h0Z"/>
    <path class="cls-130" d="M46.32,136.48c.14.17.27.34.42.51.5-.12.67.39.8.78.39,1.16.99,2.18,1.49,3.26,0,3.96,0,7.92-.02,11.88-.87-.5-.63-1.86-1.28-2.54-.12-1.62-.19-3.25-.8-4.75-.57-2.44-.53-5-.96-7.47-.1-.61.13-1.15.35-1.67h0Z"/>
    <path class="cls-4" d="M46.04,239.15c.98-.16,1.52.75,2.17,1.4.27.27.55.5.83.76v7.51c-.1.04-.19,0-.26-.11-.12-.25-.18-.53-.14-.8.22-1.63-.54-2.42-1.55-3.17-2.11-1.57-4.13-3.32-5.8-5.6-.33-.45-.92-1.02-.61-1.57.35-.63.95-.04,1.35.27,1.25.95,2.63,1.14,4.02,1.32h0Z"/>
    <path class="cls-166" d="M49,453.88c-2.06-.76-4.16-1.32-6.29-1.66-1.06-.67-2.23-.95-3.33-1.43-.67-.3-1.28-.75-1.7-1.5-.27-.49-.55-1.02-.15-1.63,1.58-.24,3.27.1,4.42,1.15,1.68,1.53,3.61,1.54,5.39,2.31.47.2,1.01.12,1.52.16.24.69-.02,1.43.15,2.13v.48h0Z"/>
    <path class="cls-131" d="M49.03,607.45c-1.98,0-3.95-.01-5.93-.02,0-.53.35-.48.62-.53.35-.07.7-.03,1.04-.04q1.21-.02.77-1.36c-.16-.49-.27-1.04-.1-1.5.79-2.04,1.23-4.22,1.7-6.4.39-1.16.69-2.42,1.91-2.63,0,.96,0,1.93,0,2.89-1.11,1.75-1.45,3.59-.43,5.54,0-1.27-.02-2.61,0-3.95,0-.42-.12-.99.43-1.13,0,3.04,0,6.09,0,9.13h0Z"/>
    <path class="cls-66" d="M49.04,117.08c-.3.36-.18.83-.18,1.24,0,2.7,0,5.39-.08,8.12.03-2.86-1.52-4.69-2.75-6.72-.32-.53-.54-1.06-.63-1.69-.72-1.33-.56-2.76-.26-4.17.1-.44.31-.9.82-.62.93,1.31,1.94,2.51,3.06,3.55,0,.1,0,.19,0,.29h0Z"/>
    <path class="cls-18" d="M45.4,199.6c.79.39,1.38,1.08,1.9,1.89s1.07,1.56,1.71,2.21c0,1.42,0,2.84,0,4.26-1.29-.47-1.8-2.03-2.66-3.09-.87-1.07-1.53-2.39-2.28-3.61-.11-1.25.39-1.87,1.34-1.66Z"/>
    <path class="cls-96" d="M49.01,433.99v.25c-.08.26-.08.55-.05.81.14.97-.24,1.46-.96,1.66-.39.1-.67-.14-.96-.4-1.65-1.45-2.83-3.52-4.36-5.12-.19-.2-.31-.51-.18-.85.62-.3,1.25-.56,1.62-1.35.13-.27.39-.4.66-.43.71.14.93.95,1.34,1.5.14.22.25.47.29.74.23,1.57.94,2.54,2.21,2.85.16.04.27.2.38.34Z"/>
    <path class="cls-120" d="M49.01,433.99c-1.99-.07-2.65-1.79-3.04-3.84.4-.77.67-1.58.77-2.52.16-1.45,1-1.92,2.11-1.32h.14v7.67h0Z"/>
    <path class="cls-79" d="M49.02,507.14c-.33-.99-.12-2.03-.14-3.05-.04-1.79-.02-3.58,0-5.37,0-.71-.09-.95-.76-.77-1.68.44-3.25,1.05-4.43,2.72-.47,0-.94-.02-1.41-.03.24-.83.8-1.28,1.35-1.74,1-.82,2.02-1.6,2.58-3.02,1.02-.37,1.7-1.62,2.82-1.74v12.99h0Z"/>
    <path class="cls-29" d="M49,446.9c-1.3-.12-2.3-1.06-3.33-1.9-.98-.8-2.06-1.4-2.97-2.34-.2-.94.32-1.26.88-1.49.36-.14.76-.08,1.13-.07.15,0,.31.05.46.12,1.09,1.36,2.57,1.9,3.86,2.84v2.83h-.02Z"/>
    <path class="cls-158" d="M49,518.89c-1.29.13-2.18,1.12-2.95,2.28-.26.39-.48.82-.83,1.1-.56-.21-1.12-.45-1.33-1.25-.03-.54.11-1.03.37-1.44.44-.71.67-1.51.78-2.38.06-.17.15-.31.27-.42.9-.36,1.77-.81,2.68-1.1.43.41.63,1.05,1,1.51v1.7Z"/>
    <path class="cls-134" d="M48.08,515.79c-.83.62-1.74.96-2.68,1.2-.33-.52-.06-.98.11-1.42.36-.92.72-1.83.93-2.83.15-.29.42-.35.63-.51.36-.27.8-.55.63-1.17-.16-.64-.61-.88-1.13-.9-.44-.01-.84.41-1.31.18-.14-.14-.16-.33-.13-.53.11-.36.32-.66.6-.69,1.09-.12,2.19-.41,3.25.19,0,1.93.02,3.86.02,5.79-.26.35-.55.63-.94.7h0Z"/>
    <path class="cls-89" d="M49.01,388.42c-.3-.26-.59-.53-.89-.79-.33-.94-.66-1.89-.99-2.83.22-1.28-.08-2.38-.69-3.42-.28-.48-.61-1.06-.23-1.73.38-.26.79-.21,1.19-.15.61.26,1.07.82,1.61,1.22,0,2.57,0,5.13,0,7.7Z"/>
    <path class="cls-50" d="M42.9,613.43c.3-.62.16-1.3.19-1.95,1.97-.35,3.95-.05,5.92-.27,0,.75,0,1.5,0,2.26-2.03-.01-4.07-.02-6.11-.03h0Z"/>
    <path class="cls-28" d="M48.87,248.76s.1.05.16.06c0,.62,0,1.24-.02,1.86-1.92-.21-3.38-1.5-4.69-3.14-.32-.4-.21-.69.14-.94.2-.27.47-.28.71-.17,1.32.56,2.68,1.05,3.7,2.33Z"/>
    <path class="cls-181" d="M49,509.29c-.89,0-1.79.03-2.68,0-.5-.02-.88.14-1.11.72-1.56,1.02-3.14.72-4.72.12-.22-.08-.36-.32-.39-.63.02-.58.32-.69.71-.67,1.46-.35,2.91-.82,4.42-.72.63.53,1.33.62,2.07.62.58,0,1.21-.21,1.73.32.03.08.02.16,0,.23h-.02Z"/>
    <path class="cls-73" d="M49.03,619.65c-.8-.98-1.74-1.18-2.8-.77-.33.13-.64.08-.79-.4-.12-.42.1-.62.32-.88.55-.66,1.39-.48,1.96-1.29-1.37,0-2.73.02-4.09-.01-.34,0-.8.26-.93-.46.54-.41,1.12-.13,1.68-.12,1.55.03,3.1-.17,4.65.1v3.84h0Z"/>
    <path class="cls-198" d="M49.03,615.81c-.99.41-2.01.16-3.01.17-1.1.02-2.22.17-3.31-.15-.06-.11-.11-.22-.17-.33.2-.63.58-.89,1.12-.89,1.78.02,3.57.02,5.36.03,0,.39,0,.77.02,1.16h0Z"/>
    <path class="cls-106" d="M49.01,444.07c-1.45-.46-2.83-1.11-3.81-2.63.17-.3.43-.33.69-.33.72,0,1.3-.35,1.79-.98.43-.14.72.05.92.53.06-1-.08-2.02.02-3.03.12-.17.25-.18.39-.04v6.48Z"/>
    <path class="cls-208" d="M48.86,215.91h.16v8.18c-1.08-.73-1.57-2.21-2.5-3.13,0-.07,0-.15,0-.22.52-.36.91-.9,1.23-1.53.67.17.87-.21.87-1.02,0-.76-.18-1.58.25-2.27h0Z"/>
    <path class="cls-87" d="M49.01,298.19h-.15c-.34.14-.56-.13-.74-.38-.94-1.31-1.55-2.77-1.19-4.61.55-.16.8.37,1.12.73.18.21.36.51.65.34.26-.15.17-.48.17-.74,0-.99,0-1.99,0-2.98.39.81.15,1.69.17,2.53.03,1.7-.02,3.4-.03,5.11h0Z"/>
    <path class="cls-62" d="M49.01,535.24c-1.27.2-2.48.92-3.81.68.39-1.85,1.57-2.18,2.84-2.36.31-.04.63,0,.95,0v1.69h.02Z"/>
    <path class="cls-189" d="M49.02,141.03c-.76-.6-1.11-1.57-1.45-2.53-.21-.57-.39-1.14-.84-1.51.72-.76,1.26-.7,2.29.25v3.78h0Z"/>
    <path class="cls-154" d="M49.03,598.31c-.38,1.15-.1,2.35-.17,3.53-.04.82,0,1.64,0,2.58-1.61-2.67-1.53-4.86.17-6.56v.46h0Z"/>
    <path class="cls-136" d="M44.62,318.12c1.61.17,3-.38,4.07-2.12.38.81-.07,1.67.31,2.33v.27c-.59.05-1.2-.1-1.78.2-.98.5-1.86.27-2.61-.68h0Z"/>
    <path class="cls-39" d="M49.01,509.06c-.88,0-1.78.02-2.66,0-.51-.02-1.04-.1-1.14-.93.43-.39.91-.22,1.37-.24.47-.02.95.02,1.33-.44.37,0,.74-.02,1.11-.03v1.65h0Z"/>
    <path class="cls-138" d="M49.02,370.87c-1-.68-1.76-1.74-2.63-2.63.67-.28,1.07-.89,1.32-1.68.99.62,1.34,1.61,1.16,2.97-.05.36-.1.79.14,1.12.02.07.02.15,0,.22Z"/>
    <path class="cls-156" d="M49.01,380.72c-.72.22-1-.62-1.5-.95-.14-1.03-.05-1.19.77-1.21.24,0,.47.02.72.03,0,.71,0,1.42,0,2.13h0Z"/>
    <path class="cls-109" d="M49,437.59h-.35c-.64.18-.89-.14-.76-.94.44-.5.93-1.56,1.12-2.41v3.35Z"/>
    <path class="cls-207" d="M48.08,515.79c.22-.43.55-.64.94-.7,0,.71,0,1.42,0,2.13-.61-.17-.91-.66-.93-1.43Z"/>
    <path class="cls-119" d="M49.02,358.64c-.39-.24-.38-.69-.35-1.11.05-.58-.1-1.07-.39-1.5.42-.63.18-1.53.58-2.17h.16v4.78Z"/>
    <path class="cls-53" d="M49.01,453.4c-.31-.68-.07-1.42-.15-2.13h.15v2.13Z"/>
    <path class="cls-88" d="M48.87,248.76c-.95-.55-1.9-1.12-2.85-1.64-.5-.27-1-.53-1.57-.51-.14-.2-.33-.22-.52-.22-1.01,0-1.72-.59-2.15-1.71-.71-2.15-2.42-3.09-3.62-4.64-.58-.66-.91-1.54-1.21-2.41-.35-.97-.92-1.71-1.47-2.48-.59-.84-1.42-.76-2.18-.98-.77-.18-.84.87-1.33,1.18-.8-.13-1.08-.75-1-1.69.1-1.18-.08-2.3-.47-3.38-.25-.71-.31-1.46-.2-2.23.24-1.7.72-1.99,1.88-1.07,1.92,1.51,3.82,3.05,5.74,4.58,2.85,2.29,5.57,4.8,8.13,7.58-1.13.44-2.19.04-3.22-.51-.67-.36-1.31-.79-2.03-1.09.43,1.36,1.31,2.28,2.15,3.16,1.46,1.53,3.02,2.92,4.7,4.07.9.61,1.42,1.42,1.23,2.78-.06.39,0,.8,0,1.19v.02Z"/>
    <path class="cls-177" d="M45.21,259.82c.91-.33,1.8-.26,2.72,0,.64.17.98.45.95,1.39-.06,2.1-.02,4.2-.02,6.31-1.55-.67-2.88-1.89-4.35-2.76-.16-.1-.31-.3-.39-.5-.55-1.39-1.08-2.79-1.61-4.18.1-.18.26-.25.43-.3.76-.05,1.53-.15,2.28.05h0Z"/>
    <path class="cls-178" d="M42.9,260.05c-.14,0-.27,0-.4.01-1.57-1.08-2.44-3-3.53-4.65-1.48-2.23-2.56-4.75-3.25-7.52-.15-.62-.46-1.13-.88-1.51,1.12-.16,2.24-.49,3.22.66.56.66.96,1.45,1.39,2.21-.55.9-.35,1.67.12,2.56,1.08,2.07,1.8,4.4,2.93,6.44.27.5.54,1.1.4,1.78v.02Z"/>
    <path class="cls-49" d="M43.67,618.95c.4,1.28.13,2.6.18,3.91.04.91,0,1.83,0,3.09-.51-.91-.72-1.63-.77-2.44-.26-1.36-.2-2.71.15-4.03.07-.26.12-.55.43-.53h0Z"/>
    <path class="cls-70" d="M43.67,618.95c-.4,1.48-.71,2.97-.58,4.56-.4-.37.02-1.07-.38-1.43v-1.69c.33-.38.14-.88.18-1.33.03-.32.04-.68.35-.72.33-.05.39.29.43.62h0Z"/>
    <path class="cls-14" d="M16.59,285.96c-1.13-2.15-1.83-4.5-2.39-6.97-.39-1.74-.94-3.43-1.1-5.24-.12-1.32.32-2.32,1.19-3.03.72-.59,1.45-.51,2.18-.03.59.39.88.93.47,1.74-.16.26-.39.21-.62.2-.31-.01-.68-.1-.84.35-.16.44.14.75.34,1.05.54.84,1.1,1.66,1.65,2.5.77,1.61,1.96,2.79,2.8,4.33.36.84.7,1.7,1.03,2.55.17.43.36.86.18,1.36-.31.49-.74.76-1.18.99-.52.27-.88.76-1.25,1.27-.92,0-1.66-.66-2.46-1.06h0Z"/>
    <path class="cls-175" d="M16.78,272.51c.03-.47.42-.99-.14-1.38-.63-.45-1.28-.78-1.99-.35-.74.45-1.17,1.2-1.33,2.21-.04.27,0,.57-.22.75-1-.81-.93-2.12-.99-3.37.63-1.77,1.37-2.16,2.81-1.45.8.4,1.61.74,2.48.8.94.06,1.81.4,2.66.87.92,1.5,2.25,1.88,3.63,2.12,1.41,1.19,3.02,1.89,4.57,2.72.52.57,1.04,1.14,1.57,1.7.17.6-.22.64-.5.71-.43.12-.87.07-1.3.07-.38-.04-.76-.04-1.12.12-.47.11-.96.13-1.43-.01-.27-.1-.55-.23-.76-.46-1.36-1.43-2.92-1.57-4.58-1.2-.64.02-1.08-.48-1.53-.96-.83-.76-1.37-1.8-1.85-2.91v.02Z"/>
    <path class="cls-182" d="M16.59,285.96c.96-.21,1.62.77,2.48.97.52.07.88.49,1.18.95.93,1.48,1.82,3.01,2.19,4.87.25,1.24.48,2.48.98,3.62.1.23.23.51-.02.75-.8.14-1.57.03-2.25-.59-.63-.22-1.09-.78-1.32-1.47-.79-2.37-2.26-4.25-3.01-6.66-.27-.84-.18-1.63-.24-2.44Z"/>
    <path class="cls-17" d="M21.17,296.53c.78.16,1.55.31,2.33.47.95.17,1.3,1.23,1.9,1.94.43,1.42,1.14,2.67,1.63,4.05.16.44.47.92,0,1.39-.39.2-.75.14-1.08-.15-.92-.77-1.8-1.58-2.13-2.99-.16-.69-.59-.85-1.09-.88-1.01-.96-1.39-2.32-1.56-3.82h0Z"/>
    <path class="cls-195" d="M31.74,171.59c1,2.68,2.4,4.9,4.59,6.21.92,1.66,1.86,3.32,2.78,4.97-.58.62-1.25.35-1.9.3-.85-.67-1.49-1.72-2.45-2.22-.31-.16-.61-.63-.93-.18-.26.37,0,.77.21,1.06.94,1.26.83,2.86.92,4.39,0,.12,0,.23-.02.35-.31,1.03-.69,2.02-1.28,2.86-.27-2.23-1.41-4.03-1.86-6.22-.61-2.96-1.01-5.97-1.63-8.92-.31-1.46.47-2.71,1.57-2.62v.02Z"/>
    <path class="cls-164" d="M41.37,205.6c-.04,1.11.19,2.1.87,2.87.17.19.29.42.29.71.33,1.21.55,2.41-.02,3.62-1.02-2-2.05-4.01-3.07-6.01-.21-.27-.14-.72-.39-.96-.71-1.52-1.41-3.04-2.11-4.56,0-.08,0-.15-.03-.23-.09-.62-.14-1.26-.51-1.75-.03-.63-.06-1.25-.27-1.84.38-.29.79-.3,1.21-.22,1.53,1.6,3.17,3.08,3.63,5.73-.06.93.25,1.77.39,2.64Z"/>
    <path class="cls-111" d="M37.33,197.44c-.39-.09-.79.24-1.18,0-.74-2.03-1.81-3.9-1.86-6.24.96-1.06,1.04-1.43.56-2.86-.22-.66-.27-1.28-.02-1.93v-.24c.6-.38.91.17,1.14.66.59,1.22,1.25,2.39,1.56,3.8.07.41.1.83.08,1.25.05,1.38.03,2.75.02,4.13,0,.5.04,1.03-.3,1.44v-.02Z"/>
    <path class="cls-142" d="M34.83,186.42c-.07.82.14,1.53.42,2.27.46,1.23-.02,2.4-.96,2.52-.24-.6-.59-1.16-.63-1.86.15-1.13.76-1.97,1.18-2.93h0Z"/>
    <path class="cls-205" d="M36.41,199.29c.74.32.48,1.1.51,1.75-.19-.57-.51-1.09-.51-1.75Z"/>
    <path class="cls-59" d="M47.72,440.2c-.13.98-.79,1.06-1.37,1.19-.37.09-.76.04-1.15.05-.12-.01-.24-.02-.37-.03-2.09.08-3.73-1.54-5.58-2.34-.47-.2-1.03-.52-1.06-1.36.69-.85.66-.91-.12-1.74-.48-.51-1.32-.56-1.4-1.61.29-.6.84-.5,1.27-.71.26-.13.63-.11.65-.57.02-.36-.27-.5-.48-.68-1.13-.93-2.42-1.45-3.64-2.12-1.25-.69-2.58-1.2-3.66-2.32-.45-.47-.82-1-1.1-1.64-.17-.39-.35-.79-.06-1.22.89-.07,1.49-1,2.34-1.21.19-.1.36,0,.53.09,2.59,2.52,5.15,5.09,7.99,7.2,2.09,2.74,4.53,5.01,6.6,7.76.27.36.69.63.62,1.26h0Z"/>
    <path class="cls-128" d="M36.76,434.46c.51.78,1.36.97,1.87,1.74.19.29.61.49.52.91-.1.48-.53.45-.88.49-.97.32-1.83-.04-2.64-.69-.79-.24-1.43-.75-2.02-1.45-.72-.84-1.66-1.26-2.64-1.89.54,1.63,1.14,2.99,2.15,4.03-.02,1.04-.43,1.81-1.12,2.36-1.53-1.54-2.8-3.29-2.95-5.91,0-1.46.02-2.93.03-4.39.2-.22.42-.15.63-.04,1.33.67,2.72,1.16,3.9,2.2,1.04.91,2.01,1.93,3.16,2.64h0Z"/>
    <path class="cls-21" d="M36.76,434.46c-.67,0-1.28-.35-1.73-.89-1.7-2.02-3.82-2.94-5.95-3.91-.12-.63-.27-1.26-.72-1.63-.59-.49-.92-1.1-.78-1.99.14-.94.87-.62,1.32-.88.22-.12.5-.04.76-.06.35,2.31,1.82,3.2,3.31,4.06,1.79,1.03,3.7,1.71,5.38,3.05.32.26.74.44.67,1.03-.06.56-.52.52-.83.66-.47.22-1,.19-1.43.56h0Z"/>
    <path class="cls-185" d="M37.71,412.87c.02.07.04.13.06.2-.82.75-1.75.28-2.64.39-.57,0-1.21-.04-1.47.73-.28.79.05,1.44.55,1.95.34.42.56.89.32,1.5-.38.39-.73.09-1.04-.13-.76-.54-1.43-.47-2.02.35-.63.19-1.24.29-1.81-.23-.65-1.67-.59-2.47.34-3.73.43-.59.48-1-.19-1.28-.22-.09-.4-.22-.53-.47-1.1,0-2.2-.01-3.31,0-.42,0-.82-.03-1.11-.48,2.73.07,5.47.12,8.2.21.47.02.97.1,1.4.32,1.06.55,2.14.75,3.27.67h0Z"/>
    <path class="cls-122" d="M32.35,424.13c-.12-.08-.24-.16-.36-.24-.14-.72-.59-1.1-1.06-1.45-2.17-1.63-3.96-3.83-5.8-5.96-.39-.45-.39-.88.1-1.24.41-.38.8-.08,1.17.1,1.03.49,1.9,1.29,2.74,2.15.75,1.4,1.78,2.34,3,2.99.32.17.63.38.9.67.32.44.67.87.52,1.57-.43.44-.97.73-1.22,1.42h0Z"/>
    <path class="cls-46" d="M29.07,417.67c-1.25-.91-2.32-2.22-3.84-2.43-.39-.58-.77-1.11-.45-1.99.35-.94.96-.82,1.6-.87.96-.08,1.94.29,2.88-.22.18.06.36.16.55.19.4.05.83.15.9.7.07.51-.25.84-.59,1.12-.6.49-.77,1.26-.62,2.1.07.39.16.77.14,1.17-.07.54-.32.41-.59.24h.02Z"/>
    <path class="cls-103" d="M47.13,597.6c.07,1.97-.44,3.75-1.14,5.45-.45,1.09-.58,2.03.14,3.06.52.74.1,1.01-.51,1.09-.84.11-1.71-.29-2.52.23h-2.11c1.53-.8,1.51-.8,1.54-2.92.05-3.28.91-5.39,3.71-6.49.31-.12.59-.28.89-.42h0Z"/>
    <path class="cls-179" d="M35.98,538.49c-.44.21-.89.41-1.33.62-2.27-.68-4.59-.32-6.88-.51-.51-.04-.92-.18-1.18-.76v-.46c.88-.42,1.74-.97,2.62-1.4,1.41.13,2.27-.74,2.73-2.33.09-.3.19-.58.44-.74.24-.11.47-.11.7.03.58,1.47,1.41,2.57,2.68,3.11.12.05.18.22.23.36.26.14.39.39.39.74.07.54-.13.95-.39,1.34h0Z"/>
    <path class="cls-102" d="M40.79,310.91c-1.87.21-2.88,1.59-3.26,3.79-2.47-.25-4.34-2.15-6.35-3.62-.45-.24-.44-.75-.43-1.22.03-1.62.53-3,1.44-4.15,1.31-.44,2.57-.11,3.8.43.31.13.56.36.63.81-.2.5-.59.38-.92.45-.31.06-.7.04-.76.55-.06.53.28.78.61.94.79.39,1.61.5,2.45.48.67-.01,1.36-.04,1.97.37.37.25.87.42.83,1.15v.02Z"/>
    <path class="cls-30" d="M32.15,305.89c-.43,1.33-1.25,2.48-1.16,4.06.02.39,0,.79.18,1.14-.12.11-.24.21-.37.32-.81-.64-1.2-1.73-1.75-2.63-.52-.84-1.13-1.49-1.9-1.91-.4-.88-.8-1.75-1.2-2.63.4-.01.8-.03,1.21-.05.95-.17,1.9-.49,2.85-.1.76.52,1.53,1.02,2.14,1.8Z"/>
    <path class="cls-81" d="M40.79,508.84l-.59.48c-.22,3.3,1,5.63,3.16,7.35.18.15.39.27.54.49.18.44,0,.77-.22,1.06-.93,1.21-1.67,2.59-2.23,4.11-.35.37-.76.61-1.16.8-.9.41-1.47,1.32-2.14,2.08-.62-.73-1.2-.62-1.86,0-1.04.99-2.14,1.87-3.08,3.02-.43.26-.82.59-1.25.81-.42.22-.85.36-1.15-.29-.2-2.36-.27-4.71.15-7.05-.18-1.21.42-2.09.85-3.04.69-1.51,1.57-2.91,1.7-4.74.67-.14.73-.86.91-1.47.11-.4-.02-.87.21-1.24.65,1.33,1.19,1.33,1.89,0,.34-.64.53-1.35.56-2.12.02-.43-.02-.88.26-1.23.76,0,1.51.05,2.26-.02.63-.06,1.01.25,1.21.98l-.02.02Z"/>
    <path class="cls-1" d="M37.33,507.87c.08,1.42-.06,2.76-.8,3.92-.18.28-.37.53-.64.69-.87.51-1.21.17-1.27-1.27,0-.12-.02-.27.02-.35.61-.92,1-2.01,1.47-3.04.4.01.81.02,1.21.04h0Z"/>
    <path class="cls-210" d="M45.97,113.24c-.78.21-.67,1.05-.75,1.71-.13,1.04.12,2.05.18,3.08-.56,2.23-.47,4.52-.3,6.78.08,1.11.06,2.21.1,3.31-.61-1.63-.72-3.46-1.29-5.11-.02-1.82-.06-3.63-.08-5.45.02-1.46.02-2.93.04-4.39.02-2.02.22-2.24,1.86-2.06.47.64.18,1.41.24,2.12h0Z"/>
    <path class="cls-126" d="M43.88,365.81c-.67.72-1.41,1.36-1.98,2.18-1.21,1.71-1.23,3.79.63,4.82.41.36.51.98.8,1.44.32,1.03.95,1.98.56,3.2-.61.41-1.01-.03-1.4-.54-1.45-1.56-2.1-3.78-3.04-5.77-.2-.29-.15-.71-.36-.99-.55-1.29-1-2.65-1.75-3.81-.02-.84-.16-1.65-.49-2.38-.64-1.44-.83-2.96-.63-4.57,1.57.48,2.64,1.79,3.57,3.35.39.66.84,1.34,1.58,1.43.39.05.78.07.98-.49,1.16.4,1.65,1.09,1.54,2.14h0Z"/>
    <path class="cls-186" d="M42.48,376.9c.45.22.87.58,1.39.46.43-.33.73.07,1,.35.53.58.94,1.29,1.31,2.05.09.86.5,1.51.86,2.21.47.9.79,1.84.1,2.82-.67-.1-1.07-.67-1.46-1.25-1.36-1.99-2.48-4.16-3.18-6.64h-.02Z"/>
    <path class="cls-3" d="M39.08,370.14c.5.12.33.61.36.99-.35-.2-.43-.56-.36-.99Z"/>
    <path class="cls-80" d="M42.51,212.81c0-1.21,0-2.41.02-3.62,1.57,1.13,2.27,2.97,2.72,5.06.24,1.14.97,1.6,1.88,1.66.63,1,1,2.07.58,3.35.08,1.09-.37,1.51-1.19,1.46-.38-.13-.78-.35-.91-.78-.55-1.85-1.47-3.34-2.68-4.58,0-.89-.28-1.7-.42-2.56h0Z"/>
    <path class="cls-113" d="M39.06,205.84c.52.08.35.58.39.96-.35-.19-.41-.55-.39-.96Z"/>
    <path class="cls-75" d="M30.96,521.7c.02,2.43.02,4.86.04,7.29.3.85-.27,1.32-.57,1.88-.26.48-.47.85.05,1.28.41.33.38.88.35,1.41-.31,1.06-1.16,1.62-1.54,2.62-.88.46-1.62,1.39-2.69,1.2-.12-1.32.06-2.61.35-3.87.68-3.04,1.8-5.87,2.63-8.84.29-1.03,1.2-1.68,1.24-2.89.06-.02.1-.04.16-.07h0Z"/>
    <path class="cls-149" d="M33.3,279.68c.95.05,1.51,1.26,2.46,1.28.5.85,1.27,1.27,1.93,1.86.71.62,1.3,1.35,1.53,2.43-1.94,1.87-3.04,4.48-3.99,7.2-.1.29-.18.6-.39.81-.18.12-.37.13-.56.05-.78-.94-1.2-2.27-2.07-3.09-1.04-.97-1.83-2.21-2.68-3.4-.59-.83-1.2-1.68-1.19-2.9.08-.44.23-.83.45-1.17.58-.94,1.24-1.05,1.95-.27.46.49.95.94,1.3,1.57.18.34.43.64.79.52.46-.15.37-.67.39-1.09.08-1.26-.13-2.53.08-3.79h0Z"/>
    <path class="cls-10" d="M34.83,293.18c.67-2.67,1.77-5.04,3.29-7.11.31-.41.65-.75,1.12-.82.18.37.49.54.78.73.56,1.59.26,3.25.27,4.88-.24,1.33-.14,2.68-.16,4.02-.02,1.95-.44,2.6-1.96,3.05-.39.02-.68-.21-.91-.56-.8-1.23-1.53-2.55-2.37-3.75-.09-.12-.09-.29-.05-.45h0Z"/>
    <path class="cls-13" d="M43.87,289.07c-.36,1.59-.31,3.26-.71,4.87-.21.84-.14,1.83.13,2.8.28,1.01.39,2.17.32,3.23-.06.91-.75,1.31-1.49,1.35-.48.05-.58-.41-.64-.83-.26-1.66-.68-3.28-.78-4.98.02-.92.02-1.84,0-2.76-.04-1.54.47-2.86,1.04-4.15,1.26-.79,1.55-.73,2.11.46h0Z"/>
    <path class="cls-76" d="M41.76,288.61c-.03.31,0,.68-.11.93-.93,1.89-.6,3.99-.68,6.02-.75-.47-.54-1.39-.62-2.15-.09-.81.03-1.65-.31-2.4,0-1.68-.02-3.35-.02-5.03.07.07.14.14.21.22.2.31.29.72.57.97.21.6.51,1.12.97,1.45h0Z"/>
    <path class="cls-42" d="M40.79,287.17c-.49-.05-.6-.44-.57-.97.44.09.51.53.57.97Z"/>
    <path class="cls-57" d="M41.35,361.32c-2.08-1.54-3.07-4.09-4.11-6.67-.88-2.16-1.42-4.49-2.39-6.59-.13-.12-.19-.28-.22-.47-.06-.48-.02-.98-.16-1.45-.05-.25-.07-.49-.08-.75-.03-.82.09-1.64-.11-2.44-.1-.36-.21-.72-.23-1.11,0-.52.14-.96.58-1.11.46-.16.83.11,1.09.53.59.92.99,1.97,1.26,3.08.38,1.53.56,3.11.62,4.72.1,2.4.72,4.52,2.12,6.24.66.81,1.33,1.62,1.96,2.47.35.7.47,1.48.53,2.28-.33.37-.57.85-.85,1.27h0Z"/>
    <path class="cls-78" d="M41.35,361.32c-.02-.7.07-1.3.8-1.25.3-.09.51.12.66.36,1.22,1.95,2.84,3.36,4.32,4.94.16.42.58.65.58,1.19-.03,1.54-.13,1.66-1.32,1.68-.66-1.09-1.71-1.56-2.51-2.43-.03-1.26-1.06-1.39-1.54-2.14-.09-.94-.92-1.4-.99-2.35h0Z"/>
    <path class="cls-77" d="M34.26,341.86c.06.31.14.63.2.94.24.87-.09,1.79.18,2.66,0,.23,0,.47,0,.7.22.45-.06,1.01.18,1.46,0,.15,0,.3,0,.44-.02.76.05,1.58-.8,1.73-.92-.97-.73-2.4-.9-3.64-.19-1.4-.17-2.85-.24-4.28.45-.94.9-.61,1.36,0h0Z"/>
    <path class="cls-201" d="M37.52,447.66c-.03,1.67.92,2.3,1.94,2.86.89.49,1.94.36,2.76,1.15.18.17.39.28.48.55-.14,2.08.51,3.63,2,4.61.31.2.58.5.87.73.41.32.86.61.78,1.35-.08.72-.47,1.09-1,1.26-.85.05-1.39-.52-1.92-1.3-1.62-2.39-3.49-4.4-5.82-5.67-.2-.11-.39-.27-.63-.18,0-.35-.02-.71-.03-1.06.09-1.62-.79-2.72-1.39-3.96-.28-.58-.66-1.07-.72-1.78,1.09-.09,2.08.12,2.69,1.44h0Z"/>
    <path class="cls-25" d="M33.07,328.99c.07.3.15.59.22.89.3.52.34,1.11.21,1.7-.15.7-.14,1.41-.12,2.12.02,1.42.07,2.85-.03,4.27-.06.93-.03,2.02-.98,2.44-.34-.82-.22-1.7-.22-2.57,0-1.66.1-3.35-.66-4.85-.12-.27-.26-.54-.36-.83-.67-1.89.18-3.28,1.93-3.17h0Z"/>
    <path class="cls-34" d="M36.95,182.8c.72,0,1.43,0,2.15-.02,1.58,1.45,3.17,2.9,4.74,4.36.25,1.06.92,1.8,1.33,2.73.18.41.28.88.42,1.32-.14,1.33-.2,2.6.59,3.76.41.6,0,1.46-.65,1.52-.5.05-1.02.12-1.49-.22-.72.03-1-.75-1.39-1.26-.94-1.22-1.83-2.5-2.76-3.74-.55-1.27-1.4-2.29-1.88-3.6-.72-1.17-1.08-2.5-1.2-3.96-.02-.32-.08-.64.14-.89h0Z"/>
    <path class="cls-213" d="M33.11,333.7c.06-1.27.12-2.55.18-3.82,1,.78,2.18.6,3.25.95,1.28,2.01,2.97,3.28,4.82,4.29.1.82.43,1.5.81,2.16-1.08.51-1.94-.05-2.8-.85-.63-.59-1.08-1.63-2.05-1.53-.43-.16-.59-.7-.88-1.05-.44-.52-.86-1.06-1.41-1.42-1.16-.76-1.41-.59-1.48,1.01-.11.21-.24.35-.47.25h0Z"/>
    <path class="cls-174" d="M33.11,333.7c.13-.08.26-.16.39-.24.96-.3,1.9.27,2.46,1.57.23.54.49,1.01.9,1.34.54.92.59,2.14,1.25,3.01.5.65,1.08,1.22,1.46,2,.06,1.47.55,2.67,1.45,3.61.22.23.36.55.48.88.55,2.6,1.92,4.5,3.39,6.34.47.6,1.1,1.11,1.11,2.11-.51,1.08-1.21.91-1.89.38-1.05-.82-2.06-1.75-2.92-2.87-.35-.46-.73-.84-1.25-.4-.55.47-.25,1.04-.07,1.59.28.86.77,1.55,1.21,2.28.35.58.67,1.17.68,1.93.08.31.27.65-.2.73-1.92-2.07-3.81-4.21-4.15-7.58-.2-1.96-.18-3.96-.66-5.87-.27-1.11-.69-2.13-1.23-3.08-.18-.33-.45-.57-.82-.48-.42.11-.43.52-.43.93-.46-.25-.91-.45-1.36,0-.29-.24-.67-.38-.61-.96.02-.17.06-.33.08-.5.52-.76.71-1.67.72-2.63.02-1.36,0-2.71,0-4.07v-.02Z"/>
    <path class="cls-93" d="M33.3,279.68c.38,1.52.11,3.08.17,4.62.02.35-.15.62-.45.66-.35.05-.8.19-.96-.27-.29-.82-.88-1.24-1.34-1.81-.81-1-1.35-.9-1.9.34-.13.28-.22.57-.35.85-.22.22-.47.23-.72.17-1.08-.39-2.04-1.03-2.7-2.23-.1-.33-.1-.67-.1-1.02-.04-.74-.06-1.49,0-2.22.03-.39-.04-.91.47-.98h1.53c.29-.27.67.05.96-.23.63-.19,1.38.42,1.92-.43.86.57,1.86.77,2.64,1.56.3.3.61.56.82.98h0Z"/>
    <path class="cls-100" d="M34.44,417.67c.08-.57-.12-1.01-.39-1.44.02-.03.04-.07.06-.09.39-.34,1.06-.13,1.23-.93.14-.7-.34-1.06-.55-1.56-.08-.19-.09-.37.04-.54.98-.01,1.96-.03,2.94-.04.68.02,1.36.03,2.04.05.07.24.14.47.22.71-.42.44-1.21.68-.59,1.69-.27,1.73.93,2.7,1.34,4.08.39,1.74.03,3.32-.66,4.83-.54.33-.91-.1-1.27-.48-.41-.44-.78-.93-1.2-1.35-.61-1.12-1.35-2.08-2.2-2.94-.48-.49-1.15-.95-1.02-1.97v-.02Z"/>
    <path class="cls-26" d="M39.45,415.51c-.43-.05-.65-.37-.55-.88.14-.7.64-.77,1.13-.81.42.27.88.18,1.31.23.72.09,1.3.41,1.44,1.42-1.11.01-2.23.03-3.33.04h0Z"/>
    <path class="cls-133" d="M46.93,293.2c.18,1.94.46,3.83,1.93,4.99v7.65c0,.29.14.7-.17.85-.25.13-.48-.13-.67-.34-1.75-1.88-2.76-4.19-2.82-7.14-.04-1.84.28-3.64.22-5.47-.02-.61.22-1.15.59-1.57.31.34.62.68.92,1.02h0Z"/>
    <path class="cls-150" d="M35.6,436.62c.8.68,1.77.7,2.67.98.23.86.87,1.09,1.45,1.41,1.13.63,2.36,1,3.38,1.94.53.49,1.22-.05,1.74.46-.84.06-1.85-.31-2.14,1.25-3-.69-5.77-2.1-8.23-4.38-.31-1.34.04-1.85,1.14-1.66h0Z"/>
    <path class="cls-5" d="M35.6,436.62c-1.04-.15-1.06.79-1.14,1.66-.45-.23-.91-.45-1.36-.68-.34,0-.63-.11-.83-.49-.63-1.22-1.37-2.39-1.64-4.05,1.32.82,2.64,1.35,3.56,2.68.4.59.97.5,1.41.87h0Z"/>
    <path class="cls-180" d="M42.9,260.05c-1.27-3.05-2.56-6.08-4.03-8.99-.48-.96.09-1.34.57-1.8.47.22.72.59.84,1.26.14.76.23,1.69,1.08,1.86.15.73.5,1.25,1.01,1.64,1.15.87,1.91,2.19,2.61,3.58.35.7.18,1.47.22,2.22-.74.49-1.54.12-2.31.23Z"/>
    <path class="cls-218" d="M38.29,239.89c.87.88,1.74,1.74,2.59,2.63.53.55.92,1.23.88,2.15.02.67-.07,1.02-.76.75-1.29-.52-2.35-1.42-3.23-2.68-.6-.87-.44-1.85-.26-2.83.24-.31.5-.2.76-.03h0Z"/>
    <path class="cls-8" d="M38.29,239.89c-.25,0-.51.02-.76.03-2.39-.79-3.52-3.05-4.25-5.75,1.47-.74,2.6.81,3.57,2.66.51.99.78,2.17,1.44,3.06Z"/>
    <path class="cls-125" d="M48.87,254.54c-1.03-.07-1.71-.93-2.39-1.73-.34-.4-.5-1.01.27-1.15,1.7.16,2.1.7,2.12,2.88h0Z"/>
    <path class="cls-209" d="M45.99,354.31c-.88-1.67-2.18-2.87-3.13-4.46-.72-1.19-1.34-2.4-1.49-3.91-.43-1.7-.26-2.29.76-2.63,2.05,3.31,4.1,6.62,6.15,9.92.15.25.38.42.57.63,0,.5,0,1.01,0,1.51.02.53-.22.67-.59.65-.63-.85-1.63-.92-2.29-1.72h.02Z"/>
    <path class="cls-216" d="M42.13,343.31c-.96.56-.75,1.65-.76,2.63-.3-.41-.57-.87-.9-1.23-.81-.89-1.14-1.99-1.03-3.32-.27-.63-.4-1.25.21-1.72,1.31.7,1.81,2.26,2.48,3.63h0Z"/>
    <path class="cls-91" d="M36.77,336.57c-.37-.16-.72-.37-.84-.88-.37-1.49-1.29-2.06-2.43-2.23-.08-.56-.41-1.12.07-1.66.47-.51.84-.01,1.22.18,1.14.56,1.94,1.61,2.55,2.92,0,.24,0,.48,0,.73-.12.37-.21.78-.56.94h0Z"/>
    <path class="cls-121" d="M36.77,336.57c.15-.35.22-.77.56-.94.77,1.35,1.54,2.7,2.31,4.05-.27.53-.18,1.14-.21,1.72-1.33-1.23-2.28-2.79-2.68-4.82h0Z"/>
    <path class="cls-36" d="M35.98,538.49c-.06-.53.15-.94.39-1.34.94-.13,1.73-.92,2.68-.97,1.69.02,3.37.03,5.05.05-.35,1.27-1.14,1.93-2.14,2.1-1.99.33-3.99.39-6,.17h0Z"/>
    <path class="cls-124" d="M35.99,536.42c-.98-.47-1.98-.89-2.56-2.12-.18-.38-.35-.76-.32-1.22.21-.67.68-.73,1.16-.79.4-.05.82.03,1.21-.12.84-.16,1.56-.59,2.15-1.37.17-.23.35-.46.64-.43.31.34.41.83.61,1.26-.18.79-.74,1.13-1.21,1.6-.84.83-1.36,1.93-1.68,3.2h0Z"/>
    <path class="cls-188" d="M38.86,531.62c-.49-.18-.64-.62-.58-1.21-.14-.62.19-.97.51-1.29.4-.4.77-.82,1.12-1.29.83-1.03,1.92-1.62,2.81-2.56.26-.27.59-.5.93-.13.3,1.86-.75,2.85-1.67,3.85-.96,1.02-1.97,1.98-3.13,2.63Z"/>
    <path class="cls-11" d="M43.67,525.14c-1.29.43-2.14,1.78-3.27,2.53-.14.09-.25.24-.38.36-.27-.25-.37-.63-.5-.99-.06-.82.46-1.16.86-1.59.8-.85,1.59-1.7,2.18-2.81.39-.69.52-1.73,1.48-1.57.25.62.94.57,1.17,1.21-.23,1.19-1.23,1.74-1.55,2.86h0Z"/>
    <path class="cls-153" d="M41.55,357.94c.22-.17.19-.46.2-.73.27.46.6.79,1.03,1,2.21,1.11,3.74,3.23,5.17,5.46.6.94.35,1.43-.83,1.69-.83-.2-1.33-1-1.94-1.6-1.12-1.09-2.02-2.46-3.04-3.7-.43-.6-.31-1.46-.59-2.13h0Z"/>
    <path class="cls-151" d="M40.79,310.91c-.56-.86-1.3-1.21-2.17-1.2-.85,0-1.7.03-2.55-.22-.42-.12-.79-.31-1.13-.59-.3-.24-.51-.62-.38-1.11.12-.45.35-.74.77-.72.41.02.83,0,1.24,0,.87-.48,1.74-.37,2.62-.07.62.21,1.21.53,1.8.83.62.32,1.17.32,1.7-.22.94,1.08,2.14,1.69,3.18,2.58,1.15.98,1.82,2.3,1.88,4.06-2.45-.69-4.74-1.91-6.96-3.34h0Z"/>
    <path class="cls-107" d="M40.03,291.01c.59.06.57.59.57,1.12,0,1.17-.05,2.34.37,3.43.27,1.75.54,3.49.81,5.24.04.25.17.42.35.53-.06.23-.1.46-.16.68-1.24-.44-1.4-.34-1.78,1.03-1.04.11-1.62-.7-2.14-1.66.63-.81.64-1.65.11-2.55-.18-.31-.39-.64-.25-1.09,1.81-.69,1.93-.94,1.96-3.35.02-1.13-.28-2.28.16-3.38h0Z"/>
    <path class="cls-152" d="M48.86,426.31c-1.69,0-1.72.05-1.93,2.27-.07.71-.29,1.38-.96,1.58-.47-.37-.59-1.18-1.15-1.45-.41-.74-.8-1.49-.85-2.43.47-.95.7-1.9.18-2.97-.19-.4-.23-.9.07-1.32,1.24,0,2.48.02,3.72-.01.65-.02.93.28.91,1.11-.03,1.07,0,2.14,0,3.22h0Z"/>
    <path class="cls-20" d="M44.05,426.33c.27.79.76,1.46.77,2.37-.26.16-.51.31-.66.65-.35.84-.92,1.15-1.66,1.04-.41.06-.51-.41-.73-.66-.53-.94-.65-2.12-1.14-3.08-.06-.55-.22-1.05-.52-1.46-.1-.25-.22-.5-.1-.8.52-1.54.71-3.15.77-4.8.42.02.69.34.93.72.32.29.31.76.37,1.17.21,1.6.68,3.02,1.66,4.14.16.19.3.41.31.71h0Z"/>
    <path class="cls-212" d="M44.05,426.33c-1.66-1.47-2.17-3.65-2.33-6.02.06-.55-.03-1.12.21-1.63.2-.43.41-.86.88-.74.42.11.59.47.68,1.01.17,1.04.35,2.09.76,3.05,0,.52,0,1.04.23,1.5.59,1.11.31,2.03-.42,2.84h0Z"/>
    <path class="cls-135" d="M43.09,374.25c-.31-.4-.49-.89-.57-1.44,0-.12,0-.24,0-.36-.07-.65-.37-1.4.22-1.85.56-.44,1.2-.26,1.72.19,1.83,1.6,3,3.74,3.25,6.57-.88.25-1.53-.32-2.14-.95-.78-.8-1.52-1.68-2.47-2.16h0Z"/>
    <path class="cls-203" d="M43.09,374.25c1.02-.24,1.55.79,2.15,1.45.75.82,1.53,1.37,2.47,1.67.19.4.39.8.59,1.2-.55.11-.8.53-.77,1.21h-1.34c-.48-.25-.78-.7-1.03-1.28-.26-.6-.75-.93-1.28-1.12-.08-1.11-.45-2.1-.78-3.11v-.02Z"/>
    <path class="cls-32" d="M37.33,197.44v-5.76c.97.34,1.59,1.26,2.23,2.14.8,1.68,1.84,3.13,2.64,4.81.34.7.83,1.32.88,2.2-.39,1.19-.95,2.13-2.11,2.13-.8-2.27-2.22-3.9-3.65-5.52Z"/>
    <path class="cls-159" d="M43.09,200.83c-1.16-2.1-2.2-4.32-3.51-6.3-.1-.16-.1-.44-.15-.67-.27-.61-.35-1.26-.22-1.93.1-.52.27-1,.83-.76,1.44,1.57,2.54,3.55,4.01,5.07.12,1.33.8,2.3,1.36,3.35-.86.04-1.16.77-1.34,1.66-.31-.2-.57-.57-.97-.43h0Z"/>
    <path class="cls-6" d="M38.08,301.33c.65.66,1.25,1.42,2.1,1.7.19.73.55,1.29,1.03,1.79.71.74,1.34,1.56,1.48,2.79-.18.95-.63.98-1.29.73-1.25-.48-2.41-1.43-3.81-1.28-.33.04-.68.27-1.02,0-.75-1.07-1.82-.98-2.8-1.17-.53-.1-1.08-.01-1.62,0-.83-.22-1.37-1.07-2.11-1.46,0-.62.41-.65.72-.75.5-.16.99-.33,1.47-.55.55-.25.9-.71,1.07-1.42.21-.88.42-1.77.96-2.44.33-.22.68-.2,1.04-.15,1.04.5,1.9,1.36,2.78,2.21h0Z"/>
    <path class="cls-123" d="M47.71,219.27c.06-1.18-.37-2.24-.58-3.35.58-.53,1.16-.13,1.74,0,0,.86.02,1.73-.02,2.59-.02.4.18.92-.22,1.17-.39.24-.63-.23-.92-.41h0Z"/>
    <path class="cls-47" d="M41.95,429.64c.19.25.38.5.57.75,1.74,2.16,3.29,4.57,5.37,6.26.1.51.35.83.76.95.42,1,.13,2.06.21,3.09-.51.18-.73-.48-1.14-.49-1.8-2.59-3.98-4.69-5.95-7.06-.48-.58-.91-1.21-1.37-1.82-.47-1.23.31-1.48.92-1.86.22-.05.42.06.61.18h0Z"/>
    <path class="cls-16" d="M43.89,517.24c-2.64-1.09-4.48-5.06-3.69-7.93.43,1.09,1.29.77,1.98.92,1,.23,2.01-.11,3.01-.23.06.09.13.17.2.26.38.81,1.23,1.26,1.16,2.4.11.93-.31,1.66-.59,2.45-.22.6-.59,1.14-.56,1.86-.06.08-.13.16-.19.25-.43.4-.88.44-1.32.02h0Z"/>
    <path class="cls-169" d="M43.89,517.24c.44,0,.88-.01,1.32-.02.09.83-.13,1.57-.54,2.18-.34.5-.51,1.06-.62,1.67-.7.24-.96,1-1.29,1.68-.38-.46-.96-.1-1.36-.52.2-1.59,1.06-2.68,1.83-3.85.24-.36.6-.62.66-1.14h0Z"/>
    <path class="cls-129" d="M46.56,512.67c-.16-.97-1.21-1.28-1.16-2.4.58-.27,1.14-.73,1.8-.31.43.28.87.59.88,1.27,0,.63-.4.95-.8,1.21-.22.14-.47.16-.72.23h0Z"/>
    <path class="cls-24" d="M25.23,298.92c-.58-.64-1.15-1.28-1.73-1.92-.63-1.07-.93-2.3-1.17-3.58-.48-2.62-1.63-4.75-3.25-6.49-.02-.42.06-.76.39-.97.64-.39,1.28-.8,1.92-1.2.84.03,1.33.9,2.04,1.26,1.45,3.74,3.98,6.34,6.21,9.24.3.39.72.7.66,1.37-.96,1.19-1.96.55-2.88,0-1.41-.83-1.37-.89-1.4.99,0,.64-.07,1.3-.79,1.3h0Z"/>
    <path class="cls-196" d="M23.32,286.18c-.7-.34-1.3-.9-1.92-1.42-.14-1.44-.97-2.51-1.33-3.85.76-.42,1.23-1.2,1.72-1.99,1.38.18,2.34,1.38,3.44,2.25,0,.31.02.62.02.92-.1.55-.53.85-.66,1.38-.2.61-.38,1.24-.55,1.86-.12.43-.36.72-.72.84h0Z"/>
    <path class="cls-176" d="M21.77,279.03c-.26,1.06-.65,1.93-1.7,1.88-.86-1.48-2.14-2.56-2.72-4.3.16-.91.55-1.48,1.36-1.45.4.39.78.85,1.31.98.54,1.01,1.29,1.81,1.75,2.88h0Z"/>
    <path class="cls-35" d="M18.7,275.16c-.61.26-.97.87-1.36,1.45-.84-.86-1.43-2-2.1-3.04-.42-.65-.05-1.04.43-1.23.37-.15.76-.05,1.11.16.84.66,1.08,2.01,1.93,2.66Z"/>
    <path class="cls-202" d="M21.77,279.03c-.75-.81-1.55-1.56-1.75-2.89,2.06-.78,3.83-.06,5.41,1.66-.4,1.09-.1,2.25-.19,3.37-1.29-.36-2.18-1.77-3.46-2.14h0Z"/>
    <path class="cls-202" d="M27.92,277.57c-.27.39-.63.18-.96.23.27-.39.63-.18.96-.23Z"/>
    <path class="cls-15" d="M25.23,298.92c.68-.45.67-1.17.47-1.95-.13-.53-.17-1.05.22-1.41.47-.43.74.14,1.07.4,1.01.8,2.03,1.55,3.24.55,1.34-.09,3.49,1.43,4.03,2.86-.21,1.03-.58,2-.88,2.99-.36,1.21-1.47,1.25-2.33,1.57-.36.13-.76.1-1.02.51-.45-.31-.95-.36-1.39-.16-.53.25-1,.08-1.49-.09-.35-1.42-1.04-2.61-1.56-3.92-.17-.42-.24-.89-.36-1.34h0Z"/>
    <path class="cls-60" d="M36.95,182.8c.16,1.73.42,3.41,1.33,4.82-.45.52-.73,1.14-.71,1.94,0,.34,0,.71-.27.95-.44-1.04-.87-2.08-1.32-3.1-.26-.58-.52-1.19-1.16-1.23-.3-.36-.2-.83-.18-1.25.06-1.19-.23-2.2-.88-3.05-.38-.5-.54-1.06-.16-1.59.38-.54.8-.06,1.1.2.8.69,1.84,1.01,2.23,2.31h0Z"/>
    <path class="cls-173" d="M37.31,190.51c0-.54-.02-1.09.03-1.63.06-.69.21-1.33.94-1.26.39,1.34,1.41,2.18,1.76,3.56-.55.08-.62.56-.6,1.13.02.52,0,1.04,0,1.55-.7-.73-1.4-1.46-2.09-2.19,0-.39-.02-.78-.02-1.17h0Z"/>
    <path class="cls-85" d="M41.4,429.64c-.48.42-1.15.67-.99,1.68-2.42-1.49-4.45-3.68-6.59-5.69-.51-.48-.99-1-1.49-1.5-.16-1.17.55-1.23,1.16-1.44.95,0,1.56.86,2.22,1.48,1.66,1.57,3.33,3.09,5.07,4.51.28.23.64.41.61.97h0Z"/>
    <path class="cls-56" d="M34.44,417.67c.34.93.94,1.56,1.57,2.18.72.71,1.41,1.46,1.71,2.61-.25.96-.85.91-1.31.47-.72-.69-1.51-1.06-2.34-1.41-.89-1.23-1.91-2.32-2.5-3.85.16-.94.62-1.11,1.28-.77.53.27,1.06.52,1.59.78h0Z"/>
    <path class="cls-161" d="M31.58,417.67c.92,1.11,1.7,2.36,2.49,3.6-.39,1.01-.77.17-1.16,0-1.04-.73-2.23-1.14-3.08-2.27-.31-.41-.59-.81-.76-1.33.21-.01.44.04.59-.24.62.42,1.29.18,1.93.24h0Z"/>
    <path class="cls-115" d="M34.83,413.11c.06.18.08.42.18.52.52.51.84,1.09.54,1.93-.31.86-.94.63-1.49.67-.82-.29-.79-1.18-.74-1.91.07-1.1.86-1.07,1.5-1.21h0Z"/>
    <path class="cls-200" d="M32.91,421.28c.39-.02.77.54,1.16,0,.93.23,1.79.59,2.49,1.48.37.47.83.13,1.16-.29.59.11.84.78,1.24,1.21.31.34.63.65,1.06.72.06.24.14.47.2.71.24.45.31,1,.57,1.44.63.89.67,2.13,1.16,3.09h-.55c-1.61-1.43-3.24-2.84-4.82-4.31-1-.93-1.99-1.87-3.08-2.64-.06-.57-.35-.97-.59-1.42h0Z"/>
    <path class="cls-191" d="M35.62,532.37c-.79.5-1.78-.14-2.51.69-.26,0-.51,0-.77-.01-.72-.65-1.22-.13-1.71.49-.03-.53.1-1.08-.53-1.34-.52-.22-.47-.7-.08-1.2.45-.56.84-1.2.98-2.01.91.21,1.42-1.02,2.28-.98.32.46.63.93,1.13,1.11.2.35.21.79.32,1.19-.12.9.17,1.59.88,2.07h0Z"/>
    <path class="cls-112" d="M30.62,533.55c.49-1.53.92-1.65,1.71-.49-.21,1.01-.49,1.97-1.21,2.6-.56.49-1.14.86-1.85.52.11-.84.35-1.57,1.01-1.97.21-.13.31-.37.34-.66h0Z"/>
    <path class="cls-27" d="M34.65,530.21c-.4-.22-.39-.59-.23-1.01-.05-.33.13-.52.3-.69,1.08-1.05,2.18-2.06,3.12-3.32.06-.09.17-.09.27-.05.64-1.77,2.03-2.23,3.3-2.9.47.1,1.16-.68,1.36.52-.43,1.24-1.37,1.92-2.1,2.81-.38.46-.85.81-1.06,1.46-.21.57-.68.69-1.07.95-.84.57-1.65,1.24-2.47,1.85-.42.31-.84.81-1.4.38h0Z"/>
    <path class="cls-22" d="M38.1,525.14c-1.02,1.65-2.44,2.72-3.68,4.06-.72.1-1.12-.26-1.14-1.19.07-.76.64-.95,1.02-1.33.7-.69,1.42-1.34,2.15-1.98.8-.7,1.23-.58,1.65.44Z"/>
    <path class="cls-7" d="M37.53,517.63c.06.8-.32,1.2-.84,1.42-.72.3-1.1-.28-1.47-.94-.34-.6-.39-1.04.14-1.49.31-.26.28-.78.43-1.18.31-.85.74-.93,1.19-.18.42.7.46,1.55.55,2.37Z"/>
    <path class="cls-23" d="M27.74,284.03c.25.02.49.03.74.05.58,2.13,1.89,3.59,3.13,5.05,1.03,1.22,2.02,2.43,2.68,4-.42.45-.59,1.12-.94,1.64-.61.21-1.13-.04-1.63-.46-1.41-2.6-3.07-4.96-4.82-7.21-.3-.38-.49-.83-.55-1.37.13-1.65.32-1.89,1.39-1.72v.02Z"/>
    <path class="cls-19" d="M33.48,294.61c-.18-.87.2-1.27.81-1.47.18.01.36.03.54.04,1.16,1.38,1.88,3.22,3.08,4.56.27.58.56,1.15.8,1.75.33.87.15,1.53-.62,1.84-1.05-.3-1.74-1.37-2.67-1.95-.3-.14-.62-.26-.71-.71-.25-1.29-.76-2.44-1.24-3.6-.06-.14-.04-.31,0-.46Z"/>
    <path class="cls-174" d="M34.65,345.46c-.4-.85-.11-1.77-.18-2.66.38.85.11,1.77.18,2.66Z"/>
    <path class="cls-174" d="M34.84,347.62c-.35-.43-.14-.97-.18-1.46.32.43.14.97.18,1.46Z"/>
    <path class="cls-148" d="M27.74,284.03c-1.18-.1-1.1,1-1.17,1.94-.08.08-.18.12-.29.11-1.58-.41-2.07-1.16-1.82-2.76.05-.62.43-.92.79-1.23.77.77,1.56,1.5,2.5,1.93h0Z"/>
    <path class="cls-108" d="M34.65,530.21c.59-.05,1.06-.45,1.54-.84,1.09-.87,2.17-1.78,3.39-2.35.37.19.46.57.43,1.02-.43.96-1.42,1.27-1.74,2.37-.76.94-1.49,1.93-2.68,1.97-1.49-.11-1.6-.35-.96-2.17h0Z"/>
    <path class="cls-72" d="M40.79,426.55c-.5-.29-.63-.81-.57-1.44.49.29.63.81.57,1.44Z"/>
    <path class="cls-132" d="M24.46,283.33c-.13,1.76.93,2.15,1.93,2.61-.83.43-.7,1.16-.39,1.95,1.01,2.56,2.69,4.22,4.68,5.45.37.23.76.44,1.08.78.55.32,1.12.54,1.74.49.59,1.25,1.24,2.47,1.42,3.95.05.38.31.57.51.82-.39,0-.76-.01-1.15-.02-1.23-1.2-2.43-2.48-4.03-2.86-1.08-1.39-2.15-2.81-3.26-4.16-1.49-1.81-2.8-3.77-3.66-6.16.68-.76.61-2,1.14-2.86h0Z"/>
    <path class="cls-12" d="M31.75,294.12c-2.81-1.15-5.01-3.19-6.15-6.7-.42-1.27-.31-1.39.79-1.48.06.02.12.03.18.03.74,1.6,1.93,2.71,2.86,4.11.85,1.28,1.71,2.54,2.32,4.03h0Z"/>
  </g>
  <rect class="cls-64" width="49" height="108.38"/>
</svg>